<?xml version="1.0" encoding="UTF-8"?>
<svg xmlns="http://www.w3.org/2000/svg" width="35" height="41" viewBox="0 0 35 41" fill="none">
  <path d="M25.8433 10.5065L25.845 10.5066C28.6714 10.7358 30.8007 11.7095 32.3232 13.512C31.0984 14.3905 30.1212 15.3947 29.4241 16.56C28.5998 17.938 28.1907 19.502 28.1907 21.2745C28.1907 21.2574 28.1866 21.4098 28.1907 21.5832C28.1952 21.7697 28.2088 22.024 28.2446 22.3307C28.316 22.9433 28.4766 23.7694 28.8335 24.6829C29.5049 26.4012 30.8617 28.4006 33.5519 29.8586C32.9644 31.4478 31.89 33.683 30.5083 35.5982C29.7257 36.6831 28.8644 37.6374 27.9619 38.3146C27.0591 38.9921 26.1595 39.3598 25.2808 39.3598C24.2163 39.3598 23.3759 39.0308 22.3589 38.6327L22.2958 38.608C21.2606 38.2029 20.0761 37.753 18.4965 37.753C16.8786 37.753 15.6326 38.1984 14.5683 38.606C14.5059 38.6299 14.4444 38.6535 14.3838 38.6768C13.3845 39.0608 12.6062 39.3598 11.7122 39.3598H11.6966L11.681 39.3605C10.8542 39.3949 9.96527 39.0347 9.03483 38.3134C8.10854 37.5952 7.20617 36.5681 6.37584 35.4013C4.71473 33.0671 3.42845 30.2973 2.86823 28.7028L2.86693 28.6992C2.00531 26.2866 1.66089 23.9624 1.66089 21.7208C1.66089 17.9228 2.91512 15.174 4.70248 13.3661C6.49628 11.5516 8.86934 10.6413 11.1832 10.5983C12.2442 10.5999 13.4907 10.9787 14.7255 11.4052C14.8954 11.4639 15.0662 11.5239 15.2358 11.5834C15.6601 11.7323 16.0768 11.8786 16.4518 11.9954C16.9643 12.1551 17.5014 12.2944 17.9609 12.2944C18.4182 12.2944 18.9876 12.119 19.5196 11.9377C19.7686 11.8528 20.037 11.7562 20.3141 11.6564C20.3527 11.6426 20.3914 11.6286 20.4303 11.6147C20.7512 11.4992 21.0866 11.3795 21.4356 11.2623C22.8478 10.7879 24.3982 10.386 25.8433 10.5065ZM20.5715 3.7443L20.5746 3.74084C21.7088 2.46478 23.6005 1.36708 25.3412 0.988623C25.322 2.20607 25.0868 4.11233 23.3721 6.14682C21.8737 7.8684 20.1857 8.84238 18.4218 8.93101C18.4562 7.01075 19.2389 5.22497 20.5715 3.7443Z" stroke="black" stroke-width="1.5"></path>
</svg>
