<?xml version="1.0" encoding="UTF-8"?>
<svg xmlns="http://www.w3.org/2000/svg" width="200" height="201" viewBox="0 0 200 201" fill="none">
  <path d="M29.3379 68.4663H39.4767V90.2869H39.6972C40.9525 88.7681 42.5556 87.5744 44.3704 86.807C46.1853 86.0396 48.1584 85.7212 50.1225 85.8787C59.4679 85.8787 65.1545 94.2763 65.1545 103.511C65.1545 113.474 58.7185 120.527 48.9764 120.527C47.0092 120.508 45.0733 120.033 43.3214 119.138C41.5695 118.243 40.0496 116.953 38.8816 115.37H38.7494V119.778H29.3379V68.4663ZM46.7944 111.534C47.8971 111.602 49.0013 111.431 50.032 111.033C51.0627 110.635 51.9957 110.02 52.7674 109.23C53.5391 108.439 54.1315 107.492 54.5042 106.452C54.877 105.412 55.0213 104.304 54.9275 103.203C55.0146 102.106 54.8653 101.002 54.4896 99.9679C54.1138 98.9333 53.5205 97.9914 52.7495 97.2058C51.9785 96.4202 51.0479 95.8092 50.0206 95.4141C48.9932 95.019 47.893 94.849 46.7944 94.9155C45.6934 94.8515 44.5916 95.0249 43.5636 95.4241C42.5356 95.8233 41.6054 96.4388 40.8362 97.2289C40.0669 98.0191 39.4765 98.9654 39.1051 100.004C38.7336 101.042 38.5898 102.148 38.6833 103.247C38.5898 104.346 38.7336 105.452 39.1051 106.49C39.4765 107.529 40.0669 108.475 40.8362 109.265C41.6054 110.055 42.5356 110.671 43.5636 111.07C44.5916 111.469 45.6934 111.642 46.7944 111.578" fill="white"></path>
  <path d="M99.2066 114.003C97.5335 116.067 95.4206 117.732 93.0222 118.876C90.6237 120.02 88.0001 120.614 85.3428 120.615C75.1819 120.615 67.0488 113.826 67.0488 103.335C67.0488 92.8432 75.1819 86.0767 85.3428 86.0767C94.8205 86.0767 100.772 92.8432 100.772 103.335V106.531H77.2758C77.5726 108.332 78.5097 109.966 79.9147 111.133C81.3198 112.299 83.0985 112.919 84.9241 112.879C86.3701 112.873 87.7916 112.506 89.0586 111.809C90.3255 111.112 91.3972 110.108 92.1755 108.889L99.2066 114.003ZM90.6327 99.4996C90.6508 98.6765 90.5018 97.8583 90.1944 97.0946C89.8871 96.3308 89.428 95.6373 88.8448 95.0562C88.2616 94.4751 87.5665 94.0184 86.8017 93.7138C86.0368 93.4092 85.2181 93.263 84.3951 93.2841C82.621 93.1684 80.8727 93.7556 79.5281 94.9187C78.1835 96.0818 77.3507 97.7274 77.2097 99.4996H90.6327Z" fill="white"></path>
  <path d="M125.655 94.9153H116.839V105.936C116.839 109.462 117.258 112.019 121.644 112.019C123.051 112.079 124.445 111.727 125.655 111.005V119.469C123.367 120.222 120.966 120.573 118.558 120.505C111.792 120.505 106.59 117.728 106.59 110.542V94.9153H99.9775V86.7822H106.59V77.0181H116.729V86.7822H125.545L125.655 94.9153Z" fill="white"></path>
  <path d="M149.284 94.9153H140.468V105.936C140.468 109.462 140.864 112.019 145.272 112.019C146.71 112.12 148.145 111.79 149.394 111.071V119.535C147.098 120.288 144.69 120.639 142.275 120.571C135.508 120.571 130.307 117.794 130.307 110.609V94.9153H123.694V86.7822H130.307V77.0181H140.468V86.7822H149.284V94.9153Z" fill="white"></path>
  <path d="M152.877 86.7822H163.126V92.05C163.915 90.2037 165.241 88.6369 166.93 87.5523C168.62 86.4678 170.596 85.9154 172.604 85.9667C173.744 85.9368 174.884 86.0478 175.998 86.2973V95.5765C174.569 95.1365 173.084 94.9063 171.59 94.8933C163.986 94.9153 163.126 99.3235 163.126 105.936V119.689H152.877V86.7822Z" fill="white"></path>
  <path d="M176.041 81.6905C176.037 81.2076 176.127 80.7285 176.306 80.2799C176.484 79.8569 176.747 79.4744 177.077 79.1558C177.409 78.8365 177.798 78.5823 178.223 78.4064C179.1 78.0533 180.08 78.0533 180.956 78.4064C181.382 78.5823 181.771 78.8365 182.103 79.1558C182.767 79.8321 183.139 80.7424 183.138 81.6905C183.148 82.176 183.05 82.6577 182.852 83.1011C182.679 83.5251 182.422 83.9097 182.096 84.2317C181.77 84.5537 181.382 84.8064 180.956 84.9746C180.526 85.164 180.06 85.2619 179.59 85.2619C179.119 85.2619 178.654 85.164 178.223 84.9746C177.793 84.807 177.403 84.5518 177.077 84.2252C176.747 83.9066 176.484 83.5241 176.306 83.1011C176.125 82.653 176.035 82.1736 176.041 81.6905V81.6905ZM176.658 81.6905C176.658 82.1067 176.74 82.5188 176.901 82.9028C177.041 83.2571 177.25 83.5795 177.518 83.8505C177.783 84.1264 178.097 84.3506 178.444 84.5118C178.806 84.6649 179.197 84.74 179.59 84.7322C179.983 84.7381 180.373 84.6631 180.736 84.5118C181.083 84.3506 181.397 84.1264 181.662 83.8505C181.929 83.5795 182.139 83.2571 182.279 82.9028C182.438 82.5223 182.52 82.114 182.52 81.7015C182.52 81.289 182.438 80.8807 182.279 80.5003C182.139 80.1395 181.929 79.8098 181.662 79.5305C181.408 79.2398 181.102 79.0004 180.758 78.8252C180.397 78.6669 180.007 78.5844 179.612 78.5827C179.217 78.5818 178.826 78.6644 178.466 78.8252C178.12 78.9784 177.806 79.1952 177.54 79.4644C177.272 79.7437 177.063 80.0733 176.923 80.4342C176.765 80.8111 176.682 81.2156 176.68 81.6244L176.658 81.6905ZM178.245 79.5525H179.81C180.78 79.5525 181.265 79.9493 181.265 80.7207C181.283 80.8747 181.264 81.0307 181.21 81.1761C181.157 81.3216 181.07 81.4525 180.956 81.5583C180.732 81.7443 180.454 81.8526 180.163 81.8668L181.375 83.6962H180.758L179.634 81.9109H178.951V83.6962H178.312L178.245 79.5525ZM178.885 81.404H179.943C180.059 81.429 180.179 81.429 180.295 81.404C180.395 81.3546 180.479 81.2783 180.538 81.1836C180.578 81.0544 180.578 80.9159 180.538 80.7868C180.563 80.6781 180.563 80.5649 180.538 80.4562C180.481 80.3731 180.406 80.3051 180.317 80.2578H180.009H178.863L178.885 81.404Z" fill="white"></path>
  <path d="M200 100.139C200.004 80.3588 194.143 61.0217 183.156 44.5735C172.17 28.1252 156.552 15.3045 138.279 7.73301C120.005 0.161513 99.8965 -1.82068 80.4964 2.03714C61.0962 5.89496 43.2759 15.4195 29.2894 29.4061C15.3028 43.3926 5.77826 61.2129 1.92044 80.6131C-1.93738 100.013 0.044814 120.122 7.61631 138.395C15.1878 156.669 28.0085 172.286 44.4567 183.273C60.905 194.259 80.242 200.121 100.022 200.117C113.151 200.117 126.152 197.531 138.282 192.506C150.412 187.482 161.433 180.118 170.717 170.834C180.001 161.55 187.365 150.529 192.39 138.399C197.414 126.269 200 113.268 200 100.139" fill="#FFC200"></path>
  <path d="M29.3379 68.8848H39.4767V90.6833H39.6972C40.9525 89.1645 42.5556 87.9708 44.3704 87.2034C46.1853 86.4361 48.1584 86.1176 50.1225 86.2751C59.4679 86.2751 65.1545 94.6507 65.1545 103.908C65.1545 113.87 58.7185 120.902 48.9764 120.902C47.0117 120.882 45.0782 120.408 43.3269 119.517C41.5757 118.626 40.0543 117.342 38.8816 115.766H38.7494V120.174H29.3379V68.8848ZM46.7944 111.953C47.8871 112.018 48.9812 111.85 50.0035 111.459C51.0259 111.067 51.953 110.462 52.7229 109.684C53.4927 108.906 54.0876 107.972 54.4678 106.946C54.848 105.919 55.0047 104.824 54.9275 103.732C55.0213 102.631 54.877 101.523 54.5042 100.483C54.1315 99.4428 53.5391 98.4953 52.7674 97.7047C51.9957 96.9142 51.0627 96.2992 50.032 95.9015C49.0013 95.5038 47.8971 95.3328 46.7944 95.4001C45.6934 95.3361 44.5916 95.5095 43.5636 95.9087C42.5356 96.3078 41.6054 96.9234 40.8362 97.7135C40.0669 98.5037 39.4765 99.45 39.1051 100.488C38.7336 101.527 38.5898 102.633 38.6833 103.732C38.5898 104.83 38.7336 105.936 39.1051 106.975C39.4765 108.013 40.0669 108.959 40.8362 109.75C41.6054 110.54 42.5356 111.155 43.5636 111.554C44.5916 111.954 45.6934 112.127 46.7944 112.063" fill="white"></path>
  <path d="M99.2066 114.377C97.5335 116.441 95.4206 118.106 93.0222 119.25C90.6237 120.394 88.0001 120.988 85.3428 120.989C75.1819 120.989 67.0488 114.223 67.0488 103.731C67.0488 93.2397 75.1819 86.4731 85.3428 86.4731C94.8205 86.4731 100.772 93.2397 100.772 103.731V106.905H77.2758C77.5722 108.709 78.5084 110.345 79.913 111.515C81.3175 112.685 83.0965 113.31 84.9241 113.275C86.3693 113.266 87.7894 112.896 89.0556 112.2C90.3219 111.503 91.3943 110.501 92.1755 109.286L99.2066 114.377ZM90.6327 99.8961C90.6507 99.072 90.5017 98.2528 90.1946 97.4879C89.8876 96.723 89.4288 96.0281 88.8459 95.4453C88.2631 94.8624 87.5682 94.4036 86.8033 94.0965C86.0384 93.7895 85.2192 93.6405 84.3951 93.6585C82.6175 93.5431 80.8661 94.1333 79.5209 95.3011C78.1757 96.4688 77.3452 98.1199 77.2097 99.8961H90.6327Z" fill="white"></path>
  <path d="M125.655 95.2898H116.839V106.31C116.839 109.837 117.258 112.394 121.644 112.394C123.049 112.46 124.443 112.116 125.655 111.402V119.865C123.366 120.611 120.965 120.954 118.558 120.879C111.792 120.879 106.59 118.102 106.59 110.939V95.2898H99.9775V87.1567H106.59V77.4146H116.729V87.1567H125.545L125.655 95.2898Z" fill="white"></path>
  <path d="M149.284 95.2898H140.468V106.31C140.468 109.837 140.864 112.394 145.272 112.394C146.71 112.494 148.145 112.164 149.394 111.446V119.91C147.097 120.656 144.689 120.999 142.275 120.923C135.508 120.923 130.307 118.146 130.307 110.983V95.3339H123.694V87.1567H130.307V77.4146H140.468V87.1567H149.284V95.2898Z" fill="white"></path>
  <path d="M152.877 87.1566H163.126V92.4464C163.915 90.6002 165.241 89.0333 166.93 87.9488C168.62 86.8642 170.596 86.3118 172.604 86.3631C173.745 86.3212 174.886 86.4324 175.998 86.6937V95.973C174.569 95.5329 173.084 95.3027 171.59 95.2897C163.875 95.2897 162.928 99.6979 162.928 106.31V120.042H152.877V87.1566Z" fill="white"></path>
  <path d="M176.041 82.0211C176.028 81.5498 176.114 81.081 176.292 80.6446C176.471 80.2082 176.738 79.8137 177.077 79.4863C177.409 79.1671 177.798 78.9129 178.223 78.7369C179.1 78.3839 180.08 78.3839 180.956 78.7369C181.382 78.9129 181.771 79.1671 182.103 79.4863C182.768 80.1624 183.14 81.0728 183.14 82.0211C183.14 82.9694 182.768 83.8797 182.103 84.5558C181.771 84.8751 181.382 85.1293 180.956 85.3052C180.08 85.6582 179.1 85.6582 178.223 85.3052C177.798 85.1293 177.409 84.8751 177.077 84.5558C176.738 84.2284 176.471 83.8339 176.292 83.3975C176.114 82.9611 176.028 82.4923 176.041 82.0211V82.0211ZM176.658 82.0211C176.658 82.4372 176.74 82.8494 176.901 83.2333C177.046 83.5848 177.255 83.9062 177.518 84.1811C177.778 84.457 178.094 84.6748 178.444 84.8203C178.804 84.981 179.195 85.0636 179.59 85.0627C179.984 85.0611 180.375 84.9785 180.736 84.8203C181.086 84.6748 181.402 84.457 181.662 84.1811C181.924 83.9062 182.134 83.5848 182.279 83.2333C182.439 82.8494 182.522 82.4372 182.521 82.0211C182.522 81.612 182.439 81.2071 182.279 80.8308C182.139 80.47 181.929 80.1404 181.662 79.861C181.402 79.5851 181.086 79.3673 180.736 79.2219C180.375 79.0636 179.984 78.981 179.59 78.9794C179.195 78.9785 178.804 79.0611 178.444 79.2219C178.094 79.3673 177.778 79.5851 177.518 79.861C177.25 80.1404 177.041 80.47 176.901 80.8308C176.74 81.2071 176.658 81.612 176.658 82.0211ZM178.223 79.9272H179.81C180.758 79.9272 181.243 80.3239 181.243 81.1174C181.259 81.2713 181.239 81.4268 181.186 81.5719C181.132 81.7171 181.046 81.8481 180.934 81.9549C180.713 82.1317 180.445 82.2391 180.163 82.2635L181.353 84.0929H180.758L179.634 82.3076H178.951V84.0929H178.312L178.223 79.9272ZM178.863 81.8006H179.921C180.037 81.8257 180.157 81.8257 180.273 81.8006C180.376 81.7664 180.462 81.6959 180.516 81.6023C180.55 81.4723 180.55 81.3355 180.516 81.2055C180.541 81.0968 180.541 80.9837 180.516 80.8749C180.459 80.7919 180.384 80.7238 180.295 80.6766C180.194 80.6545 180.088 80.6545 179.987 80.6766H178.84L178.863 81.8006Z" fill="white"></path>
  <path d="M82.0369 143.692V146.491C82.0369 149.863 80.3618 151.781 77.0997 151.781C73.8376 151.781 72.1846 149.863 72.1846 146.491V135.471C72.1846 132.098 73.8597 130.181 77.0997 130.181C80.3397 130.181 82.0369 132.098 82.0369 135.471V137.52H78.9071V135.316C78.9071 133.795 78.2458 133.112 77.1879 133.112C76.1299 133.112 75.4907 133.685 75.4907 135.316V146.667C75.4907 148.188 76.1519 148.717 77.1879 148.717C78.2238 148.717 78.9071 148.188 78.9071 146.667V143.692H82.0369Z" fill="#1A181D"></path>
  <path d="M83.7783 135.537C83.7783 134.204 84.3078 132.926 85.2502 131.983C86.1926 131.041 87.4709 130.511 88.8037 130.511C90.1365 130.511 91.4147 131.041 92.3571 131.983C93.2996 132.926 93.829 134.204 93.829 135.537V146.557C93.829 147.89 93.2996 149.168 92.3571 150.111C91.4147 151.053 90.1365 151.582 88.8037 151.582C87.4709 151.582 86.1926 151.053 85.2502 150.111C84.3078 149.168 83.7783 147.89 83.7783 146.557V135.537ZM87.0845 146.689C87.0845 148.21 87.7457 148.893 88.8037 148.893C89.8616 148.893 90.5229 148.32 90.5229 146.689V135.338C90.5229 133.817 89.8616 133.134 88.8037 133.134C87.7457 133.134 87.0845 133.707 87.0845 135.338V146.689Z" fill="#1A181D"></path>
  <path d="M99.2739 139.835H103.55V142.854H99.2739V151.538H95.9678V130.489H104.718V133.487H99.2739V139.835Z" fill="#1A181D"></path>
  <path d="M109.61 139.835H113.886V142.854H109.61V151.538H106.304V130.489H115.054V133.487H109.61V139.835Z" fill="#1A181D"></path>
  <path d="M119.969 139.35H124.509V142.369H119.969V148.541H125.677V151.538H116.641V130.489H125.677V133.487H119.969V139.35Z" fill="#1A181D"></path>
  <path d="M131.035 139.35H135.575V142.369H131.035V148.541H136.743V151.538H127.729V130.489H136.743V133.487H131.035V139.35Z" fill="#1A181D"></path>
  <path d="M153.031 143.692V146.491C153.031 149.863 151.356 151.781 148.116 151.781C144.876 151.781 143.289 149.863 143.289 146.491V135.471C143.289 132.098 144.964 130.181 148.226 130.181C151.488 130.181 153.141 132.098 153.141 135.471V137.52H149.901V135.316C149.901 133.795 149.24 133.112 148.182 133.112C147.124 133.112 146.463 133.685 146.463 135.316V146.667C146.463 148.188 147.124 148.717 148.182 148.717C149.24 148.717 149.901 148.188 149.901 146.667V143.692H153.031Z" fill="#1A181D"></path>
  <path d="M154.794 135.536C154.749 134.85 154.845 134.161 155.076 133.513C155.307 132.866 155.669 132.272 156.139 131.77C156.609 131.267 157.178 130.867 157.809 130.593C158.44 130.319 159.121 130.178 159.809 130.178C160.497 130.178 161.177 130.319 161.808 130.593C162.439 130.867 163.008 131.267 163.478 131.77C163.948 132.272 164.31 132.866 164.541 133.513C164.773 134.161 164.868 134.85 164.823 135.536V141.62C164.868 142.306 164.773 142.994 164.541 143.642C164.31 144.29 163.948 144.884 163.478 145.386C163.008 145.888 162.439 146.289 161.808 146.563C161.177 146.836 160.497 146.978 159.809 146.978C159.121 146.978 158.44 146.836 157.809 146.563C157.178 146.289 156.609 145.888 156.139 145.386C155.669 144.884 155.307 144.29 155.076 143.642C154.845 142.994 154.749 142.306 154.794 141.62V135.536ZM158.1 141.84C158.1 143.339 158.762 143.912 159.798 143.912C160.833 143.912 161.517 143.339 161.517 141.84V135.228C161.517 133.707 160.855 133.024 159.798 133.024C158.74 133.024 158.1 133.597 158.1 135.228V141.84Z" fill="#1A181D"></path>
  <path d="M169.848 148.342H166.652V151.538H169.848V148.342Z" fill="#1A181D"></path>
  <path d="M164.471 148.342H155.147V151.538H164.471V148.342Z" fill="#1A181D"></path>
</svg>
