<?xml version="1.0" encoding="UTF-8" standalone="no"?> <svg xmlns="http://www.w3.org/2000/svg" version="1.0" width="158.000000pt" height="138.000000pt" viewBox="0 0 158.000000 138.000000" preserveAspectRatio="xMidYMid meet"><g transform="translate(0.000000,138.000000) scale(0.100000,-0.100000)" fill="#000000" stroke="none"><path d="M606 1344 c-73 -18 -168 -63 -227 -108 l-46 -35 -49 50 c-26 27 -56 49 -66 49 -32 0 -19 -34 31 -84 l50 -49 -35 -41 c-20 -23 -51 -72 -70 -111 -62 -127 -65 -152 -62 -546 l3 -354 609 -3 c462 -2 612 1 623 10 23 19 13 688 -11 773 -23 79 -71 175 -112 224 -19 21 -34 43 -34 48 0 5 20 29 45 53 25 24 45 52 45 62 0 32 -34 19 -84 -31 l-48 -49 -46 35 c-139 106 -344 149 -516 107z m279 -49 c173 -44 305 -151 383 -310 53 -109 57 -141 57 -495 l0 -325 -572 -3 -573 -2 0 332 c0 259 3 345 15 388 53 198 217 362 415 414 73 19 201 20 275 1z"></path><path d="M525 1008 c-27 -15 -35 -28 -35 -59 0 -54 70 -79 110 -39 27 27 25 56 -5 85 -27 28 -40 30 -70 13z"></path><path d="M915 1008 c-27 -15 -35 -28 -35 -59 0 -54 70 -79 110 -39 27 27 25 56 -5 85 -27 28 -40 30 -70 13z"></path></g></svg> 