<?xml version="1.0" encoding="UTF-8"?>
<svg xmlns="http://www.w3.org/2000/svg" width="40" height="26" viewBox="0 0 40 26" fill="none">
  <path d="M20.4133 3.14166C19.32 7.63166 19.39 7.39166 18.3983 11.4983C18.3767 11.8767 18.0633 12.175 17.6817 12.175C17.64 12.175 17.5983 12.1717 17.5583 12.165H17.5633H16.4383C16.405 12.1717 16.365 12.175 16.3267 12.175C15.9883 12.175 15.71 11.9233 15.6667 11.5983V11.595C14.705 8.51833 13.4167 4.24499 12.55 1.38666C12.23 0.33166 12.44 0.35666 13.2767 0.378326C13.5667 0.38666 13.8467 0.378326 14.135 0.378326C14.155 0.37666 14.1783 0.374993 14.2033 0.374993C14.53 0.374993 14.8 0.616659 14.845 0.929993V0.933327C15.1267 1.94166 15.3133 2.71499 16.9217 9.06666C16.9517 9.19166 16.9917 9.30999 17.0317 9.42499H17.1167C17.155 9.26833 17.2017 9.12166 17.2417 8.96333C17.8506 6.39333 18.4572 3.8211 19.0617 1.24666C19.25 0.446659 19.585 0.371659 20.395 0.371659H20.9883C21.5217 0.379993 21.6917 0.488327 21.825 1.01999C22.2934 2.84833 23.6617 8.96999 23.91 9.64333C24.31 8.21333 23.77 10.26 26.1367 1.12999C26.3 0.498327 26.4567 0.373327 27.0983 0.373327H28.0833C28.505 0.38166 28.63 0.513326 28.5283 0.928326C28.34 1.67166 28.3017 1.70166 25.3034 11.3083C25.06 12.0817 24.975 12.1517 24.1633 12.1517H23.335C22.765 12.1517 22.6167 12.05 22.4767 11.495C22.14 10.23 20.6567 4.01999 20.4133 3.14499V3.14166ZM9.80668 11.8267C9.92001 12.0583 10.1533 12.215 10.4233 12.215C10.6133 12.215 10.7833 12.1383 10.9083 12.0133L11.4 11.685C11.9333 11.3333 11.97 11.1933 11.6817 10.63C11.3717 10.04 11.1883 9.34166 11.1883 8.59999C11.1883 8.57499 11.1883 8.54999 11.1883 8.52499V8.52833C11.1883 8.28499 11.235 4.17833 11.1183 3.31166C11.015 1.86166 10.01 0.671659 8.66668 0.293326L8.64335 0.288326C8.05501 0.124993 7.38001 0.0316593 6.68168 0.0316593C6.47168 0.0316593 6.26168 0.0399932 6.05668 0.0566599L6.08335 0.0549933C4.85668 0.103327 3.71668 0.428326 2.70835 0.96666L2.75001 0.94666C2.59835 1.02833 2.48501 1.16333 2.43168 1.32499L2.43001 1.32999C2.38668 1.52666 2.36168 1.75333 2.36168 1.98499C2.36168 2.08666 2.36668 2.18833 2.37501 2.28833L2.37335 2.27499C2.42001 2.73666 2.57668 2.82166 3.01335 2.67499C3.41335 2.54166 3.79501 2.37166 4.19335 2.25333C4.76835 2.03999 5.43168 1.91666 6.12501 1.91666C6.66335 1.91666 7.18335 1.99166 7.67668 2.12999L7.63668 2.11999C8.16501 2.27833 8.57668 2.67666 8.75001 3.18499L8.75335 3.19666C8.88168 3.62666 8.95668 4.11999 8.95668 4.63166C8.95668 4.78833 8.95001 4.94499 8.93668 5.09833L8.93835 5.07833C8.93835 5.50833 8.93001 5.50833 8.50835 5.42999C7.79168 5.25166 6.97002 5.14833 6.12335 5.14833C5.81168 5.14833 5.50168 5.16166 5.19668 5.18999L5.23668 5.18666C4.02668 5.27499 2.97001 5.86333 2.25835 6.74166L2.25168 6.74999C1.81835 7.34999 1.55835 8.10166 1.55835 8.91333C1.55835 9.24166 1.60001 9.55833 1.68001 9.86166L1.67501 9.83499C1.84835 10.9717 2.65501 11.8817 3.71668 12.205L3.73668 12.21C4.20335 12.3767 4.74168 12.4733 5.30335 12.4733C6.41501 12.4733 7.44001 12.095 8.25335 11.46L8.24335 11.4683C8.54001 11.25 8.80668 10.985 9.11001 10.725C9.35335 11.115 9.56335 11.4817 9.80501 11.8183L9.80668 11.8267ZM8.60668 7.01499H8.61502C8.80001 7.01499 8.95001 7.16499 8.95001 7.34999C8.95001 7.37333 8.94835 7.39499 8.94335 7.41833V7.41666C8.92668 7.71333 8.95168 8.00999 8.92002 8.30666C8.83668 9.17833 8.29168 9.90499 7.53668 10.2467L7.52168 10.2533C7.03168 10.51 6.45335 10.6617 5.83835 10.6617C5.71335 10.6617 5.59001 10.655 5.46835 10.6433L5.48335 10.645C4.60168 10.5933 3.90668 9.86666 3.90668 8.97666C3.90668 8.83999 3.92335 8.70666 3.95501 8.57833L3.95335 8.58999C3.99668 7.67666 4.72001 6.94499 5.62668 6.88833H5.63168C5.98168 6.83166 6.38501 6.79999 6.79501 6.79999C7.44168 6.79999 8.07168 6.87999 8.67168 7.02999L8.61835 7.01833L8.60668 7.01499ZM35.85 12.1C37.225 11.6383 38.1967 10.3617 38.1967 8.85833C38.1967 8.62333 38.1734 8.39333 38.1283 8.17166L38.1317 8.19333C37.9533 7.10499 37.1917 6.23166 36.1833 5.89499L36.1633 5.88833C34.6433 5.41166 33.3983 4.92999 32.1917 4.37999L32.4067 4.46833C32.0583 4.29333 31.8217 3.94333 31.8133 3.53666V3.53499C31.8033 3.47333 31.7983 3.40333 31.7983 3.33166C31.7983 2.63333 32.3284 2.05999 33.0084 1.98999H33.0133C33.365 1.90666 33.7683 1.85999 34.1833 1.85999C34.545 1.85999 34.9 1.89666 35.2417 1.96499L35.2083 1.95999C35.7783 2.06999 36.325 2.28833 36.88 2.45166C37.0984 2.52166 37.3417 2.61499 37.49 2.32666C37.5667 2.16499 37.6117 1.97499 37.6117 1.77666C37.6117 1.27999 37.335 0.848326 36.9267 0.628326L36.92 0.624993C36.0967 0.23166 35.13 0.00332642 34.11 0.00332642C33.2 0.00332642 32.3334 0.18666 31.5433 0.51666L31.5867 0.499993C30.3783 0.979993 29.54 2.13999 29.54 3.49499C29.54 4.79333 30.31 5.91333 31.4183 6.41999L31.4383 6.42833C32.04 6.71833 32.695 6.88999 33.3283 7.12333C33.9617 7.35666 34.5933 7.57666 35.2117 7.83333C35.6384 8.06999 35.9234 8.51833 35.9234 9.03333C35.9234 9.50999 35.68 9.92833 35.31 10.1733L35.305 10.1767C33.1417 11.3767 30.2383 9.98833 29.9 9.87999C29.6433 9.79499 29.4867 9.89666 29.4083 10.17C29.345 10.3183 29.3083 10.4917 29.3083 10.6733C29.3083 11.2883 29.7333 11.805 30.3067 11.9417L30.315 11.9433C31.2 12.2983 32.225 12.5033 33.2983 12.5033C34.2083 12.5033 35.085 12.355 35.9033 12.0817L35.845 12.0983L35.85 12.1ZM23.1267 24.8083C27.29 24.3617 31.07 23.055 34.3983 21.0683L34.2717 21.1383C34.8967 20.7717 35.4817 20.3383 36.075 19.9117C36.645 19.5117 36.325 18.475 35.1917 18.9583C31.285 20.6733 26.7483 21.77 21.9833 21.9933L21.8983 21.9967C21.3983 22.0217 20.8133 22.035 20.225 22.035C18.305 22.035 16.4184 21.8883 14.5767 21.605L14.7817 21.6317C9.58668 20.8833 4.90835 19.2017 0.733348 16.7533L0.915015 16.8517C0.768348 16.7533 0.600015 16.6733 0.420015 16.62L0.406681 16.6167C0.0233479 16.5317 -0.194985 16.9833 0.218348 17.3733C5.33335 22.1033 12.2 25.0033 19.745 25.0033H19.7683H19.7667C20.8917 24.94 22.0167 24.9333 23.125 24.8083H23.1267ZM36.7717 17.6083C37.9283 17.6717 38.2867 18.07 37.9983 19.185C37.7017 20.3417 37.2717 21.4667 36.9133 22.6067C36.8433 22.8333 36.585 23.0983 36.85 23.295C37.14 23.4983 37.3583 23.2167 37.5533 23.0383C38.3117 22.3167 38.9083 21.435 39.2934 20.4467L39.31 20.3983C39.74 19.4583 39.99 18.3583 39.99 17.2C39.99 17.1733 39.99 17.1483 39.99 17.1217V17.125C39.9733 16.6417 39.85 16.4367 39.38 16.305C39.0067 16.19 38.5683 16.1017 38.1183 16.0583L38.0917 16.0567C37.7867 16.0183 37.435 15.9967 37.0767 15.9967C35.6833 15.9967 34.3667 16.325 33.1983 16.9067L33.2483 16.8833C32.99 17.0233 32.7667 17.1767 32.5617 17.35L32.5683 17.345C32.4833 17.415 32.3183 17.7583 32.7567 17.8217C32.7967 17.825 32.845 17.8267 32.8917 17.8267C33.0067 17.8267 33.12 17.8167 33.2283 17.7967L33.2167 17.7983C34.0933 17.6733 35.1067 17.6017 36.135 17.6017C36.3583 17.6017 36.58 17.605 36.8017 17.6117H36.77L36.7717 17.6083Z" fill="#484751"></path>
</svg>
