<?xml version="1.0" encoding="UTF-8"?>
<svg xmlns="http://www.w3.org/2000/svg" width="228" height="60" viewBox="0 0 228 60" fill="none">
  <g clip-path="url(#clip0_1272_211)">
    <g clip-path="url(#clip1_1272_211)">
      <path d="M120.619 41.5845H59.6318V42.7481H120.619V41.5845Z" fill="white"></path>
      <path d="M23.8208 26.1965C23.8208 28.6431 21.8348 30.6283 19.3874 30.6283C16.9401 30.6283 14.9541 28.6431 14.9541 26.1965C14.9541 23.75 16.9401 21.7646 19.3874 21.7646C21.8348 21.7646 23.8208 23.75 23.8208 26.1965Z" fill="white"></path>
      <path d="M38.1781 26.2165C38.1781 28.663 36.1922 30.6484 33.7448 30.6484C31.2975 30.6484 29.3115 28.663 29.3115 26.2165C29.3115 23.77 31.2975 21.7847 33.7448 21.7847C36.1922 21.7847 38.1781 23.77 38.1781 26.2165Z" fill="white"></path>
      <g opacity="0.58">
        <path opacity="0.58" d="M18.5182 26.3145C18.5102 26.4205 18.5049 26.5265 18.5049 26.6351V26.3145H18.5182Z" fill="white"></path>
      </g>
      <path d="M5.84286 21.7646H9.63715V55.9949H5.84286C3.04286 55.9949 0.770508 53.7233 0.770508 50.9242V26.8353C0.770508 24.0363 3.04286 21.7646 5.84286 21.7646Z" fill="white"></path>
      <path d="M38.6155 4.65088H14.0943C8.29008 4.65088 3.33973 8.37236 1.50488 13.557H13.8238C13.914 13.5517 14.0041 13.5491 14.0969 13.5491H38.6155C41.0708 13.5491 43.0647 15.5449 43.0647 17.9968V34.3936C43.0647 36.8454 41.0681 38.8413 38.6155 38.8413H18.5038V47.7368H38.6155C45.9761 47.7368 51.9658 41.7491 51.9658 34.3909V17.9968C51.9658 10.6386 45.9787 4.65088 38.6155 4.65088Z" fill="white"></path>
      <path d="M67.0355 26.6051C68.3836 26.6051 69.991 26.4235 71.3391 25.1009C72.6872 23.7782 72.8681 22.1703 72.8681 20.7958C72.8681 19.3435 72.6089 17.8912 71.2614 16.5945C69.939 15.3237 68.3836 15.0384 66.8803 15.0384H59.7256V32.3365H64.2102V26.6051H67.0355ZM64.2102 18.6692H65.7396C66.3098 18.6692 67.1395 18.747 67.6579 19.2916C68.1244 19.7584 68.1764 20.3809 68.1764 20.8477C68.1764 21.2626 68.1507 21.9629 67.606 22.4297C67.0619 22.9224 66.1802 22.9743 65.7137 22.9743H64.2102V18.6692ZM93.5969 23.7004C93.5969 21.3923 92.7153 18.9545 90.875 17.2169C89.1124 15.5312 86.6235 14.6494 84.0576 14.6494C81.491 14.6494 79.0027 15.5312 77.2394 17.2169C75.3992 18.9545 74.5175 21.3923 74.5175 23.7004C74.5175 25.9826 75.3992 28.3945 77.2394 30.1581C79.0027 31.8438 81.491 32.7255 84.0576 32.7255C86.6235 32.7255 89.1124 31.8438 90.875 30.1581C92.7153 28.3945 93.5969 25.9826 93.5969 23.7004ZM84.0576 19.0064C85.2497 19.0064 86.5715 19.4732 87.5308 20.3809C88.3348 21.1589 88.9309 22.3519 88.9309 23.7004C88.9309 25.0231 88.3348 26.2161 87.5308 27.02C86.7274 27.824 85.5866 28.3686 84.0576 28.3686C82.5535 28.3686 81.387 27.798 80.558 26.9941C79.91 26.3717 79.1836 25.3084 79.1836 23.7782C79.1836 22.5593 79.6244 21.2886 80.558 20.3809C81.491 19.4472 82.8127 19.0064 84.0576 19.0064ZM94.6963 15.0384L99.8545 32.3365H104.417L107.735 22.3259L110.872 32.3365H115.46L120.981 15.0384H116.29L113.023 26.2161L109.627 15.0384H106.05L102.395 26.2161L99.388 15.0384H94.6963ZM132.664 15.0384H122.839V32.3365H132.664V28.5242H127.324V25.5418H132.379V21.7294H127.324V18.8508H132.664V15.0384ZM135.574 15.0384V32.3365H140.059V25.6974L144.362 32.3365H149.935L144.518 25.2565C145.321 25.1009 146.228 24.7119 146.902 24.0635C147.758 23.2336 148.276 21.9369 148.276 20.4587C148.276 19.0842 147.784 17.58 146.799 16.5685C145.528 15.2459 143.869 15.0384 142.573 15.0384H135.574ZM140.059 18.5136H140.914C141.899 18.5136 142.651 18.7729 143.066 19.1879C143.454 19.551 143.662 20.1215 143.662 20.6402C143.662 21.1848 143.429 21.7554 143.092 22.0925C142.547 22.6112 141.588 22.7927 140.914 22.7927H140.059V18.5136ZM159.085 32.3365C161.21 32.3365 162.844 31.6622 163.777 30.7027C164.425 30.0543 165.047 28.9391 165.047 27.3053C165.047 25.9308 164.58 24.8156 163.88 24.1413C163.336 23.6226 162.428 23.2077 161.521 23.104C162.169 22.8187 162.558 22.4297 162.921 21.7554C163.284 21.0292 163.413 20.3809 163.413 19.6288C163.413 18.0987 162.947 17.0354 162.351 16.387C161.288 15.22 159.811 15.0384 158.566 15.0384H151.878V32.3365H159.085ZM156.363 18.4877H157.192C158.074 18.4877 158.618 18.7211 158.903 19.0064C159.162 19.2916 159.318 19.7325 159.318 20.1734C159.318 20.5624 159.188 21.0292 158.903 21.3145C158.437 21.8072 157.659 21.8591 157.192 21.8591H156.363V18.4877ZM156.363 25.2046H157.296C158.41 25.2046 159.525 25.2306 160.07 25.7752C160.329 26.0345 160.511 26.4754 160.511 27.02C160.511 27.5128 160.355 27.9018 160.147 28.1352C159.655 28.7057 158.618 28.8354 157.374 28.8354H156.363V25.2046ZM186.255 23.7004C186.255 21.3923 185.374 18.9545 183.534 17.2169C181.771 15.5312 179.283 14.6494 176.716 14.6494C174.149 14.6494 171.661 15.5312 169.899 17.2169C168.058 18.9545 167.177 21.3923 167.177 23.7004C167.177 25.9826 168.058 28.3945 169.899 30.1581C171.661 31.8438 174.149 32.7255 176.716 32.7255C179.283 32.7255 181.771 31.8438 183.534 30.1581C185.374 28.3945 186.255 25.9826 186.255 23.7004ZM176.716 19.0064C177.908 19.0064 179.231 19.4732 180.19 20.3809C180.993 21.1589 181.589 22.3519 181.589 23.7004C181.589 25.0231 180.993 26.2161 180.19 27.02C179.386 27.824 178.246 28.3686 176.716 28.3686C175.213 28.3686 174.046 27.798 173.217 26.9941C172.568 26.3717 171.843 25.3084 171.843 23.7782C171.843 22.5593 172.284 21.2886 173.217 20.3809C174.149 19.4472 175.472 19.0064 176.716 19.0064ZM192.522 32.3365L193.999 22.3778L197.991 32.3365H199.78L203.953 22.3778L205.224 32.3365H209.708L207.116 15.0384H202.631L198.925 24.271L195.425 15.0384H190.992L188.063 32.3365H192.522ZM219.819 32.3365C221.944 32.3365 223.577 31.6622 224.511 30.7027C225.159 30.0543 225.781 28.9391 225.781 27.3053C225.781 25.9308 225.314 24.8156 224.614 24.1413C224.07 23.6226 223.163 23.2077 222.256 23.104C222.904 22.8187 223.292 22.4297 223.656 21.7554C224.018 21.0292 224.148 20.3809 224.148 19.6288C224.148 18.0987 223.681 17.0354 223.085 16.387C222.022 15.22 220.545 15.0384 219.3 15.0384H212.612V32.3365H219.819ZM217.097 18.4877H217.926C218.808 18.4877 219.352 18.7211 219.638 19.0064C219.897 19.2916 220.052 19.7325 220.052 20.1734C220.052 20.5624 219.922 21.0292 219.638 21.3145C219.17 21.8072 218.393 21.8591 217.926 21.8591H217.097V18.4877ZM217.097 25.2046H218.03C219.145 25.2046 220.259 25.2306 220.804 25.7752C221.063 26.0345 221.244 26.4754 221.244 27.02C221.244 27.5128 221.089 27.9018 220.882 28.1352C220.389 28.7057 219.352 28.8354 218.108 28.8354H217.097V25.2046Z" fill="white"></path>
      <path d="M131.812 48.2961V36.594H138.339V38.2086H133.713V41.1261H138.339V42.7967H133.713V48.2961H131.812ZM144.648 48.2961V36.594H146.551V48.2961H144.648ZM153.491 48.2961V36.1304L160.922 43.2843C161.124 43.4868 161.329 43.7026 161.537 43.9318C161.745 44.1609 161.963 44.4194 162.192 44.7071V36.594H163.95V48.7517L156.368 41.4698C156.165 41.2726 155.968 41.0648 155.776 40.8464C155.59 40.6279 155.412 40.3987 155.241 40.1589V48.2961H153.491ZM173.319 43.6999H176.579L175.381 41.0302C175.311 40.8597 175.24 40.6652 175.165 40.4467C175.09 40.2229 175.016 39.9751 174.942 39.7034C174.877 39.9591 174.808 40.1989 174.734 40.4227C174.665 40.6412 174.592 40.8437 174.518 41.0302L173.319 43.6999ZM178.577 48.2961L177.25 45.2826H172.616L171.258 48.2961H169.261L174.925 36.1304L180.582 48.2961H178.577ZM185.893 48.2961V36.1304L193.324 43.2843C193.526 43.4868 193.731 43.7026 193.939 43.9318C194.147 44.1609 194.365 44.4194 194.594 44.7071V36.594H196.351V48.7517L188.769 41.4698C188.567 41.2726 188.37 41.0648 188.178 40.8464C187.992 40.6279 187.813 40.3987 187.643 40.1589V48.2961H185.893ZM212.64 39.4395C212.102 38.9813 211.532 38.6376 210.93 38.4084C210.334 38.1793 209.705 38.0647 209.045 38.0647C207.766 38.0647 206.726 38.475 205.921 39.2957C205.122 40.1163 204.723 41.1794 204.723 42.485C204.723 43.7479 205.112 44.7897 205.889 45.6103C206.672 46.431 207.657 46.8413 208.845 46.8413C209.538 46.8413 210.196 46.7187 210.819 46.4736C211.447 46.2284 212.049 45.8581 212.625 45.3625V47.5127C212.113 47.8804 211.556 48.1548 210.955 48.336C210.353 48.5172 209.7 48.6078 208.997 48.6078C208.102 48.6078 207.274 48.4612 206.512 48.1682C205.756 47.8751 205.09 47.4435 204.515 46.8732C203.945 46.3137 203.506 45.6557 203.196 44.899C202.893 44.1369 202.741 43.3269 202.741 42.469C202.741 41.611 202.893 40.8064 203.196 40.0551C203.506 39.2984 203.95 38.6349 204.531 38.0647C205.112 37.4892 205.778 37.0549 206.528 36.7618C207.28 36.4634 208.092 36.3142 208.965 36.3142C209.652 36.3142 210.307 36.4154 210.93 36.6179C211.554 36.8151 212.158 37.1162 212.744 37.5212L212.64 39.4395ZM219.206 48.2961V36.594H225.733V38.2086H221.107V41.1421H225.733V42.8127H221.107V46.5935H225.733V48.2961H219.206Z" fill="white"></path>
    </g>
  </g>
  <defs>
    <clipPath id="clip0_1272_211">
      <rect width="227.644" height="60" fill="white" transform="translate(0.136719)"></rect>
    </clipPath>
    <clipPath id="clip1_1272_211">
      <rect width="227.644" height="52" fill="white" transform="translate(0.136719 4)"></rect>
    </clipPath>
  </defs>
</svg>
