<?xml version="1.0" encoding="UTF-8"?>
<svg xmlns="http://www.w3.org/2000/svg" width="44" height="40" viewBox="0 0 44 40" fill="none">
  <path d="M43.5929 38H0.406982V2H43.5929V38ZM1.9435 36.4635H42.0564V3.54237H1.9435V36.4635Z" fill="#484751"></path>
  <path d="M39.8832 7.70203H1.17236V9.23854H39.8832V7.70203Z" fill="#484751"></path>
  <path d="M5.29114 4.87439H3.78967V6.41091H5.29114V4.87439Z" fill="#484751"></path>
  <path d="M8.29407 4.87439H6.7926V6.41091H8.29407V4.87439Z" fill="#484751"></path>
  <path d="M11.297 4.87439H9.79553V6.41091H11.297V4.87439Z" fill="#484751"></path>
  <path d="M21.6027 28.0974L17.4489 23.184L21.6027 18.2707L22.777 19.2639L19.4586 23.184L22.777 27.1042L21.6027 28.0974Z" fill="#484751"></path>
  <path d="M32.3467 28.0974L31.1724 27.1042L34.4849 23.184L31.1724 19.2639L32.3467 18.2707L36.5005 23.184L32.3467 28.0974Z" fill="#484751"></path>
  <path d="M28.2036 17.3125L24.288 28.563L25.7391 29.068L29.6547 17.8176L28.2036 17.3125Z" fill="#484751"></path>
  <path d="M13.2425 33.9513H4.3739V11.7566H13.2425V33.9513ZM5.91042 32.4148H11.7059V13.2989H5.91042V32.4148Z" fill="#484751"></path>
  <path d="M10.1694 15.1976H7.4469V16.7341H10.1694V15.1976Z" fill="#484751"></path>
  <path d="M10.1694 18.6387H7.4469V20.1752H10.1694V18.6387Z" fill="#484751"></path>
  <path d="M10.1694 22.0798H7.4469V23.6164H10.1694V22.0798Z" fill="#484751"></path>
  <path d="M10.1694 25.5268H7.4469V27.0633H10.1694V25.5268Z" fill="#484751"></path>
  <path d="M10.1694 28.9679H7.4469V30.5044H10.1694V28.9679Z" fill="#484751"></path>
</svg>
