<?xml version="1.0" encoding="UTF-8"?>
<svg xmlns="http://www.w3.org/2000/svg" width="41" height="41" viewBox="0 0 41 41" fill="none">
  <path d="M34.7158 40.89L32.8834 37.6356L30.2252 39.1343L30.2525 28.1128L39.6823 33.7903L37.024 35.3164L38.8618 38.5818L34.7103 40.89H34.7158ZM33.4304 35.6774L35.2682 38.9374L36.9037 38.0294L35.0768 34.7804L36.849 33.763L31.691 30.6562L31.6746 36.6674L33.4359 35.6774H33.4304Z" fill="#484751"></path>
  <path d="M19.9913 38.2427C9.69733 38.2427 1.31775 29.8686 1.31775 19.5691C1.31775 9.26961 9.69186 0.890015 19.9913 0.890015C30.2908 0.890015 38.6703 9.26961 38.6703 19.5691C38.6703 22.7251 37.8663 25.8428 36.3457 28.5941L35.9957 29.2231L34.7376 28.5285L35.0877 27.8994C36.4879 25.3615 37.2318 22.4844 37.2318 19.5746C37.2318 10.0682 29.4977 2.33949 19.9968 2.33949C10.4959 2.33949 2.76722 10.0737 2.76722 19.5746C2.76722 29.0754 10.4959 36.8042 19.9968 36.8042C22.7043 36.8042 25.2915 36.197 27.6981 34.9937L28.3435 34.671L28.989 35.9564L28.3435 36.279C25.74 37.5808 22.9285 38.2427 19.9968 38.2427H19.9913Z" fill="#484751"></path>
  <path d="M19.9913 38.2427C15.9383 38.2427 9.72467 29.8795 9.72467 19.5691C9.72467 9.25867 16.1242 0.895489 19.9913 0.895489C23.8584 0.895489 30.2579 9.62514 30.2579 19.5691C30.2579 24.191 29.0163 28.8293 26.7628 32.6308C24.7117 36.0931 22.1135 38.2427 19.9968 38.2427H19.9913ZM19.9913 2.33401C17.4315 2.33401 11.1632 9.7947 11.1632 19.5691C11.1632 29.3435 16.9666 36.8042 19.9913 36.8042C23.016 36.8042 28.8194 29.524 28.8194 19.5691C28.8194 9.6142 22.5511 2.33401 19.9913 2.33401Z" fill="#484751"></path>
  <path d="M20.7133 0.895489H19.2748V37.8489H20.7133V0.895489Z" fill="#484751"></path>
  <path d="M36.4387 12.1139H6.39911V13.5524H36.4387V12.1139Z" fill="#484751"></path>
  <path d="M33.5452 25.5803H3.54938V27.0188H33.5452V25.5803Z" fill="#484751"></path>
</svg>
