<?xml version="1.0" encoding="UTF-8"?>
<svg xmlns="http://www.w3.org/2000/svg" width="600" height="201" viewBox="0 0 600 201" fill="none">
  <rect width="600" height="200" transform="translate(0 0.116699)" fill="white"></rect>
  <path d="M317.554 131.021H156.811V134.087H317.554V131.021Z" fill="#000022"></path>
  <path d="M62.4226 90.4794C62.4226 96.9252 57.188 102.156 50.7376 102.156C44.2871 102.156 39.0527 96.9252 39.0527 90.4794C39.0527 84.0338 44.2871 78.8032 50.7376 78.8032C57.188 78.8032 62.4226 84.0338 62.4226 90.4794Z" fill="#FF9900"></path>
  <path d="M100.266 90.5312C100.266 96.9768 95.0317 102.207 88.5812 102.207C82.1309 102.207 76.8965 96.9768 76.8965 90.5312C76.8965 84.0854 82.1309 78.855 88.5812 78.855C95.0317 78.855 100.266 84.0854 100.266 90.5312Z" fill="#FF9900"></path>
  <g opacity="0.58">
    <path opacity="0.58" d="M48.4462 90.79C48.4252 91.0694 48.4111 91.3486 48.4111 91.6349V90.79H48.4462Z" fill="#FF9900"></path>
  </g>
  <path d="M15.041 78.8032H25.0416V168.987H15.041C7.66108 168.987 1.67188 163.002 1.67188 155.627V92.1625C1.67188 84.788 7.66108 78.8032 15.041 78.8032Z" fill="#FF9900"></path>
  <path d="M101.419 33.7144H36.7892C21.4911 33.7144 8.44351 43.519 3.60742 57.1785H36.0763C36.3139 57.1646 36.5514 57.1576 36.7961 57.1576H101.419C107.891 57.1576 113.146 62.416 113.146 68.8757V112.075C113.146 118.535 107.884 123.793 101.419 123.793H48.4112V147.229H101.419C120.82 147.229 136.607 131.454 136.607 112.068V68.8757C136.607 49.4898 120.827 33.7144 101.419 33.7144Z" fill="#FF9900"></path>
  <path d="M176.325 91.5557C179.879 91.5557 184.115 91.0774 187.668 87.5927C191.221 84.1081 191.698 79.8718 191.698 76.2505C191.698 72.4242 191.015 68.598 187.463 65.1816C183.978 61.8336 179.879 61.082 175.916 61.082H157.059V106.656H168.879V91.5557H176.325ZM168.879 70.6477H172.91C174.413 70.6477 176.599 70.8527 177.966 72.2876C179.195 73.5175 179.332 75.1573 179.332 76.3872C179.332 77.4804 179.265 79.3252 177.829 80.5551C176.395 81.8533 174.071 81.99 172.841 81.99H168.879V70.6477ZM246.333 83.9031C246.333 77.822 244.009 71.3993 239.159 66.8215C234.513 62.3802 227.953 60.0571 221.19 60.0571C214.425 60.0571 207.867 62.3802 203.22 66.8215C198.369 71.3993 196.046 77.822 196.046 83.9031C196.046 89.9158 198.369 96.2702 203.22 100.916C207.867 105.358 214.425 107.681 221.19 107.681C227.953 107.681 234.513 105.358 239.159 100.916C244.009 96.2702 246.333 89.9158 246.333 83.9031ZM221.19 71.536C224.332 71.536 227.816 72.7659 230.344 75.1573C232.464 77.2071 234.035 80.3501 234.035 83.9031C234.035 87.3878 232.464 90.5308 230.344 92.6489C228.227 94.767 225.22 96.2019 221.19 96.2019C217.226 96.2019 214.151 94.6987 211.966 92.5806C210.258 90.9407 208.344 88.1394 208.344 84.1081C208.344 80.8967 209.506 77.5487 211.966 75.1573C214.425 72.6975 217.909 71.536 221.19 71.536ZM249.231 61.082L262.826 106.656H274.852L283.597 80.2818L291.863 106.656H303.957L318.51 61.082H306.144L297.534 90.5308L288.584 61.082H279.156L269.521 90.5308L261.596 61.082H249.231ZM349.302 61.082H323.407V106.656H349.302V96.6118H335.227V88.7543H348.55V78.7103H335.227V71.126H349.302V61.082ZM356.972 61.082V106.656H368.792V89.1643L380.133 106.656H394.822L380.544 88.0027C382.661 87.5927 385.053 86.5678 386.828 84.8597C389.084 82.6732 390.451 79.2569 390.451 75.3623C390.451 71.741 389.152 67.778 386.556 65.1133C383.207 61.6286 378.836 61.082 375.42 61.082H356.972ZM368.792 70.2378H371.046C373.642 70.2378 375.624 70.9211 376.717 72.0143C377.742 72.9709 378.288 74.474 378.288 75.8406C378.288 77.2754 377.674 78.7786 376.786 79.6669C375.35 81.0334 372.822 81.5117 371.046 81.5117H368.792V70.2378ZM418.939 106.656C424.54 106.656 428.846 104.879 431.305 102.351C433.013 100.643 434.653 97.7051 434.653 93.4005C434.653 89.7792 433.422 86.8411 431.579 85.0647C430.143 83.6981 427.751 82.6049 425.36 82.3316C427.068 81.58 428.093 80.5551 429.05 78.7786C430.006 76.8655 430.347 75.1573 430.347 73.1758C430.347 69.1446 429.118 66.3432 427.547 64.635C424.746 61.5603 420.851 61.082 417.572 61.082H399.943V106.656H418.939ZM411.765 70.1695H413.95C416.273 70.1695 417.707 70.7844 418.46 71.536C419.143 72.2876 419.553 73.4491 419.553 74.6107C419.553 75.6356 419.211 76.8655 418.46 77.6171C417.231 78.9153 415.181 79.0519 413.95 79.0519H411.765V70.1695ZM411.765 87.8661H414.224C417.161 87.8661 420.099 87.9344 421.535 89.3692C422.218 90.0525 422.696 91.2141 422.696 92.6489C422.696 93.9471 422.285 94.972 421.739 95.5869C420.44 97.0901 417.707 97.4318 414.428 97.4318H411.765V87.8661ZM490.552 83.9031C490.552 77.822 488.23 71.3993 483.378 66.8215C478.732 62.3802 472.174 60.0571 465.409 60.0571C458.644 60.0571 452.086 62.3802 447.44 66.8215C442.588 71.3993 440.266 77.822 440.266 83.9031C440.266 89.9158 442.588 96.2702 447.44 100.916C452.086 105.358 458.644 107.681 465.409 107.681C472.174 107.681 478.732 105.358 483.378 100.916C488.23 96.2702 490.552 89.9158 490.552 83.9031ZM465.409 71.536C468.551 71.536 472.037 72.7659 474.565 75.1573C476.683 77.2071 478.254 80.3501 478.254 83.9031C478.254 87.3878 476.683 90.5308 474.565 92.6489C472.446 94.767 469.441 96.2019 465.409 96.2019C461.447 96.2019 458.372 94.6987 456.185 92.5806C454.477 90.9407 452.565 88.1394 452.565 84.1081C452.565 80.8967 453.727 77.5487 456.185 75.1573C458.644 72.6975 462.13 71.536 465.409 71.536ZM507.068 106.656L510.962 80.4184L521.483 106.656H526.198L537.198 80.4184L540.546 106.656H552.366L545.533 61.082H533.714L523.944 85.4063L514.72 61.082H503.036L495.316 106.656H507.068ZM579.014 106.656C584.617 106.656 588.921 104.879 591.381 102.351C593.09 100.643 594.728 97.7051 594.728 93.4005C594.728 89.7792 593.499 86.8411 591.654 85.0647C590.22 83.6981 587.828 82.6049 585.437 82.3316C587.145 81.58 588.17 80.5551 589.127 78.7786C590.083 76.8655 590.424 75.1573 590.424 73.1758C590.424 69.1446 589.195 66.3432 587.624 64.635C584.821 61.5603 580.928 61.082 577.647 61.082H560.02V106.656H579.014ZM571.84 70.1695H574.027C576.35 70.1695 577.784 70.7844 578.537 71.536C579.22 72.2876 579.629 73.4491 579.629 74.6107C579.629 75.6356 579.288 76.8655 578.537 77.6171C577.306 78.9153 575.256 79.0519 574.027 79.0519H571.84V70.1695ZM571.84 87.8661H574.301C577.238 87.8661 580.176 87.9344 581.611 89.3692C582.295 90.0525 582.772 91.2141 582.772 92.6489C582.772 93.9471 582.362 94.972 581.816 95.5869C580.517 97.0901 577.784 97.4318 574.505 97.4318H571.84V87.8661Z" fill="#FF9900"></path>
  <path d="M347.055 148.703V117.872H364.259V122.126H352.066V129.813H364.259V134.214H352.066V148.703H347.055ZM380.889 148.703V117.872H385.902V148.703H380.889ZM404.195 148.703V116.651L423.78 135.499C424.313 136.032 424.854 136.601 425.402 137.205C425.95 137.808 426.523 138.489 427.129 139.247V117.872H431.76V149.903L411.777 130.718C411.243 130.199 410.724 129.651 410.218 129.076C409.727 128.5 409.257 127.896 408.808 127.265V148.703H404.195ZM456.456 136.594H465.048L461.891 129.56C461.707 129.111 461.518 128.598 461.322 128.023C461.124 127.433 460.928 126.78 460.732 126.064C460.562 126.738 460.38 127.37 460.184 127.96C460.002 128.535 459.811 129.069 459.615 129.56L456.456 136.594ZM470.313 148.703L466.817 140.764H454.604L451.023 148.703H445.76L460.689 116.651L475.599 148.703H470.313ZM489.596 148.703V116.651L509.181 135.499C509.714 136.032 510.255 136.601 510.803 137.205C511.351 137.808 511.926 138.489 512.53 139.247V117.872H517.162V149.903L497.178 130.718C496.644 130.199 496.125 129.651 495.619 129.076C495.128 128.5 494.658 127.896 494.209 127.265V148.703H489.596ZM560.095 125.369C558.676 124.162 557.174 123.256 555.588 122.653C554.015 122.049 552.359 121.747 550.618 121.747C547.248 121.747 544.505 122.828 542.384 124.99C540.279 127.152 539.226 129.953 539.226 133.393C539.226 136.72 540.251 139.465 542.301 141.627C544.365 143.789 546.96 144.87 550.092 144.87C551.917 144.87 553.651 144.547 555.293 143.901C556.949 143.255 558.536 142.28 560.053 140.974V146.639C558.704 147.608 557.237 148.331 555.652 148.808C554.065 149.285 552.345 149.524 550.491 149.524C548.133 149.524 545.95 149.138 543.943 148.366C541.949 147.594 540.194 146.457 538.678 144.954C537.177 143.48 536.018 141.746 535.203 139.753C534.404 137.745 534.003 135.611 534.003 133.351C534.003 131.09 534.404 128.97 535.203 126.991C536.018 124.997 537.191 123.249 538.72 121.747C540.251 120.231 542.006 119.087 543.985 118.314C545.965 117.528 548.105 117.135 550.408 117.135C552.218 117.135 553.945 117.402 555.588 117.935C557.23 118.455 558.823 119.248 560.369 120.315L560.095 125.369ZM577.399 148.703V117.872H594.603V122.126H582.411V129.855H594.603V134.256H582.411V144.217H594.603V148.703H577.399Z" fill="#000022"></path>
</svg>
