<?xml version="1.0" encoding="UTF-8"?>
<svg xmlns="http://www.w3.org/2000/svg" width="600" height="201" viewBox="0 0 600 201" fill="none">
  <rect width="600" height="200" transform="translate(0 0.116699)" fill="white"></rect>
  <g clip-path="url(#clip0_764_284869)">
    <path d="M164.85 59.8218L180.66 79.6411C181.47 80.5706 181.95 81.7699 182.01 82.9993C182.01 84.1387 181.59 85.2481 180.81 86.0876C180 86.9571 178.83 87.4069 177.66 87.3769C176.97 87.3769 176.28 87.227 175.68 86.9571C175.2 86.7472 174.75 86.4774 174.36 86.1176L173.97 85.6978L158.16 65.8785L150.42 72.9547V82.6994C150.48 83.9588 150.03 85.1581 149.16 86.0876C147.18 87.8267 144.21 87.8267 142.23 86.0876C141.39 85.1581 140.94 83.9588 141 82.6994V44.3502C140.94 41.7416 142.98 39.5827 145.59 39.5228C148.2 39.4628 150.36 41.5017 150.42 44.1103C150.42 44.2002 150.42 44.2602 150.42 44.3502V61.1411L171.6 41.3218C172.56 40.2724 173.88 39.6727 175.29 39.6427C177.69 39.7027 179.61 41.6216 179.67 44.0203C179.67 44.65 179.52 45.2797 179.22 45.8494C179.01 46.3591 178.71 46.8388 178.38 47.2586L177.99 47.7383L164.85 59.8518V59.8218Z" fill="#2C6445"></path>
    <path d="M224.4 68.8772C224.49 74.1543 222.3 79.1916 218.4 82.7297C209.67 90.2556 196.74 90.2556 188.01 82.7297C184.11 79.1916 181.92 74.1543 182.01 68.8772V58.143C181.92 52.8658 184.11 47.8285 188.01 44.2904C196.74 36.7645 209.67 36.7645 218.4 44.2904C222.3 47.8285 224.49 52.8658 224.4 58.143V68.8772ZM211.71 76.583C213.87 74.6041 215.04 71.8156 214.98 68.8772V58.143C215.04 55.2345 213.87 52.4161 211.71 50.4371C206.76 46.3593 199.62 46.3593 194.7 50.4371C192.54 52.4161 191.37 55.2045 191.43 58.143V68.9071C191.34 71.8156 192.54 74.634 194.7 76.613C199.65 80.6908 206.79 80.6908 211.71 76.613" fill="#2C6445"></path>
    <path d="M250.26 39.9727C254.79 39.7628 259.23 41.292 262.68 44.2604C265.74 46.8989 267.48 50.7369 267.42 54.7547C267.42 56.4937 267.15 58.2028 266.52 59.8219C266.04 61.1712 265.29 62.4006 264.33 63.48C263.55 64.3195 262.68 65.0991 261.78 65.7887C261.12 66.3284 260.4 66.7782 259.62 67.108L258.69 67.4978V67.8276L268.11 79.6112C268.92 80.5407 269.4 81.7401 269.46 82.9694C269.46 84.1088 269.04 85.2182 268.26 86.0578C267.45 86.9273 266.28 87.3771 265.11 87.3471C264.42 87.3471 263.73 87.1971 263.13 86.8973C262.65 86.6874 262.2 86.4176 261.81 86.0578L261.42 85.638L248.58 69.5067H237.84V82.6096C237.9 85.2182 235.86 87.3771 233.25 87.437C230.64 87.497 228.48 85.4581 228.42 82.8495C228.42 82.7595 228.42 82.6996 228.42 82.6096V44.6801C228.36 42.1315 230.37 40.0326 232.89 39.9727C232.98 39.9727 233.04 39.9727 233.13 39.9727H250.29H250.26ZM255.72 50.3171C254.16 49.1477 252.21 48.578 250.26 48.698H237.81V60.8114H250.26C252.21 60.9313 254.13 60.3017 255.66 59.1023C258.09 56.9435 258.33 53.2255 256.17 50.7968C256.02 50.6169 255.87 50.467 255.69 50.3171" fill="#2C6445"></path>
    <path d="M283.23 48.7279V59.4921H301.05C303.27 59.4321 305.13 61.2012 305.19 63.42C305.25 65.6388 303.48 67.4978 301.26 67.5577C301.2 67.5577 301.11 67.5577 301.05 67.5577H283.23V78.3219H307.77C310.17 78.3819 312.09 80.3908 312.03 82.8195C311.97 85.1582 310.11 87.0172 307.77 87.0772H278.52C275.97 87.1372 273.87 85.1283 273.81 82.5796C273.81 82.5197 273.81 82.4297 273.81 82.3697V44.6801C273.75 42.1315 275.76 40.0326 278.28 39.9727C278.37 39.9727 278.43 39.9727 278.52 39.9727H307.11C309.51 39.9727 311.49 41.9216 311.49 44.3503C311.49 46.779 309.54 48.7279 307.11 48.7279H283.23Z" fill="#2C6445"></path>
    <path d="M342.75 40.0026C343.92 40.8721 344.85 42.0115 345.45 43.3308L360.93 79.6412C361.35 80.6007 361.56 81.6201 361.59 82.6696C361.59 85.2781 359.49 87.377 356.88 87.377C354.48 87.317 352.41 85.6679 351.84 83.3292L348.81 75.5934H327.96L324.93 83.3292C324.36 85.6679 322.29 87.317 319.89 87.377C317.28 87.377 315.18 85.2781 315.18 82.6696C315.18 82.2198 315.24 81.77 315.36 81.3203C315.45 80.9005 315.57 80.5107 315.72 80.1209L315.87 79.6412L331.35 43.3308C331.95 42.0115 332.88 40.8721 334.05 40.0026C336.69 38.1736 340.17 38.1736 342.78 40.0026M331.35 66.8681H345.48L338.61 49.7174H338.22L331.35 66.8681Z" fill="#2C6445"></path>
    <path d="M396.87 70.2264V44.3504C396.81 43.0911 397.26 41.8618 398.13 40.9622C400.11 39.2232 403.08 39.2232 405.06 40.9622C405.9 41.8917 406.35 43.1211 406.32 44.3504V82.6697C406.38 85.2183 404.37 87.3172 401.85 87.3772C401.76 87.3772 401.7 87.3772 401.61 87.3772C399.75 87.4371 397.98 86.5376 396.9 85.0084L375.03 56.7637H374.7V82.6397C374.76 83.899 374.31 85.0984 373.47 86.0279C371.49 87.7669 368.52 87.7669 366.54 86.0279C365.7 85.0984 365.25 83.899 365.31 82.6397V44.3504C365.25 41.8018 367.26 39.7029 369.81 39.643C369.87 39.643 369.96 39.643 370.02 39.643C371.88 39.583 373.65 40.4825 374.73 42.0117L396.6 70.2564H396.93L396.87 70.2264Z" fill="#2C6445"></path>
    <path d="M141.45 157.449C138.99 155.38 137.58 152.322 137.61 149.114C137.49 145.995 138.87 142.967 141.3 141.018C144.66 138.769 148.71 137.72 152.73 138.02H161.13C161.13 134.421 158.67 132.652 153.72 132.652C152.61 132.652 151.47 132.772 150.39 133.102C149.64 133.282 148.95 133.552 148.26 133.942L147.66 134.332C146.67 135.291 145.35 135.891 143.97 136.011C141.81 136.101 140.01 134.392 139.92 132.263C139.92 132.173 139.92 132.083 139.92 131.993C140.16 129.804 141.51 127.915 143.49 126.956C146.61 125.216 150.15 124.377 153.72 124.587C157.98 124.347 162.18 125.696 165.51 128.365C168.36 130.793 169.95 134.362 169.86 138.109V155.86C169.8 158.259 167.88 160.148 165.48 160.238C164.37 160.268 163.26 159.938 162.36 159.278C161.64 158.828 161.19 158.079 161.13 157.239H160.8C160.59 157.509 160.26 157.839 159.87 158.259C158.94 158.948 157.92 159.518 156.81 159.908C155.1 160.627 153.27 160.957 151.41 160.957C147.78 161.107 144.21 159.878 141.45 157.539M158.91 151.182C160.32 150.193 161.16 148.574 161.16 146.835V145.486H152.76C151.17 145.366 149.58 145.725 148.2 146.535C146.73 147.434 146.28 149.383 147.18 150.823C147.42 151.242 147.78 151.572 148.2 151.842C149.58 152.652 151.17 153.011 152.76 152.892C154.95 153.011 157.11 152.412 158.91 151.182Z" fill="#2C6445"></path>
    <path d="M176.43 127.045C177.21 126.296 178.23 125.876 179.31 125.906H180.66V121.199C180.72 118.8 182.73 116.881 185.16 116.941C187.5 117.001 189.36 118.86 189.42 121.199V125.906H196.83C197.91 125.846 198.96 126.236 199.77 126.955C201.39 128.545 201.42 131.123 199.83 132.742C199.05 133.552 197.97 133.972 196.86 133.972H189.45V148.094C189.36 149.443 189.93 150.763 190.98 151.632C192.09 152.442 193.44 152.861 194.82 152.801C195.21 152.801 195.6 152.741 195.99 152.622C196.29 152.532 196.56 152.442 196.83 152.322L197.16 152.112C197.85 151.662 198.69 151.422 199.5 151.452C201.66 151.362 203.46 153.041 203.55 155.2C203.55 155.29 203.55 155.38 203.55 155.47C203.49 157.089 202.56 158.558 201.12 159.308C198.87 160.477 196.32 161.017 193.77 160.867C190.26 160.987 186.87 159.668 184.35 157.239C181.89 154.84 180.54 151.512 180.66 148.094V133.972H179.31C177.06 133.942 175.23 132.083 175.29 129.834C175.29 128.784 175.71 127.795 176.43 127.045Z" fill="#2C6445"></path>
    <path d="M264.72 113.793C265.62 114.692 266.1 115.892 266.07 117.151C266.07 117.781 265.92 118.38 265.68 118.95C265.47 119.46 265.2 119.939 264.87 120.359L264.39 120.839L248.91 142.367V155.47C248.82 158.139 246.6 160.268 243.9 160.178C242.73 160.148 241.59 159.668 240.72 158.858C239.88 157.929 239.43 156.729 239.49 155.47V142.367L224.01 120.839C222.96 119.879 222.36 118.56 222.33 117.151C222.27 114.602 224.28 112.503 226.83 112.443C226.89 112.443 226.98 112.443 227.04 112.443C227.76 112.443 228.48 112.653 229.14 113.013C229.71 113.313 230.22 113.703 230.61 114.182L231.09 114.782L243.99 132.593H244.38L257.28 114.782C258.15 113.373 259.65 112.473 261.33 112.413C262.59 112.383 263.82 112.863 264.69 113.763" fill="#2C6445"></path>
    <path d="M309.78 141.707C309.87 146.985 307.68 152.022 303.78 155.56C295.05 163.086 282.12 163.086 273.39 155.56C269.49 152.022 267.3 146.985 267.39 141.707V130.943C267.3 125.666 269.49 120.629 273.39 117.091C282.12 109.565 295.05 109.565 303.78 117.091C307.68 120.629 309.87 125.666 309.78 130.943V141.707ZM297.09 149.413C299.25 147.434 300.42 144.646 300.36 141.707V130.943C300.42 128.035 299.25 125.216 297.09 123.237C292.14 119.16 285 119.16 280.08 123.237C277.92 125.216 276.75 128.005 276.81 130.943V141.707C276.72 144.616 277.92 147.434 280.08 149.413C285.03 153.491 292.17 153.491 297.09 149.413Z" fill="#2C6445"></path>
    <path d="M322.89 113.792C323.79 114.692 324.27 115.891 324.24 117.151V142.697C324.15 145.365 325.2 147.944 327.12 149.743C331.74 153.341 338.25 153.341 342.87 149.713C344.82 147.884 345.87 145.305 345.75 142.607V117.121C345.69 114.512 347.73 112.353 350.34 112.293C352.95 112.233 355.11 114.272 355.17 116.881C355.17 116.971 355.17 117.031 355.17 117.121V142.607C355.29 147.644 353.25 152.472 349.56 155.89C341.13 162.936 328.86 162.936 320.43 155.89C316.74 152.502 314.7 147.674 314.82 142.697V117.151C314.82 114.512 317.01 112.413 319.62 112.443C320.85 112.443 322.02 112.923 322.89 113.792Z" fill="#2C6445"></path>
    <path d="M382.41 112.803C386.94 112.593 391.38 114.152 394.83 117.091C397.89 119.729 399.63 123.567 399.57 127.585C399.57 129.324 399.3 131.033 398.67 132.652C398.19 134.002 397.44 135.231 396.48 136.31C395.7 137.15 394.83 137.93 393.93 138.619C393.27 139.159 392.55 139.579 391.77 139.938L390.84 140.328V140.658L400.26 152.412C401.07 153.341 401.55 154.541 401.61 155.77C401.61 156.909 401.19 158.019 400.41 158.858C399.6 159.728 398.43 160.178 397.26 160.148C396.57 160.148 395.88 159.998 395.28 159.698C394.8 159.488 394.35 159.218 393.96 158.858L393.57 158.468L380.73 142.337H370.02V155.44C370.08 158.049 368.04 160.208 365.43 160.267C362.82 160.327 360.66 158.289 360.6 155.68C360.6 155.59 360.6 155.53 360.6 155.44V117.451C360.54 114.902 362.55 112.803 365.07 112.743C365.16 112.743 365.22 112.743 365.31 112.743H382.47L382.41 112.803ZM387.87 123.148C386.31 121.978 384.36 121.408 382.41 121.528H369.96V133.642H382.41C384.36 133.762 386.28 133.132 387.81 131.933C390.24 129.774 390.48 126.056 388.32 123.627C388.17 123.447 388.02 123.297 387.84 123.148" fill="#2C6445"></path>
    <path d="M439.65 112.803C445.35 112.593 450.9 114.602 455.1 118.44C459.03 121.978 461.22 127.075 461.13 132.352V140.298C461.22 145.575 459.03 150.673 455.1 154.211C450.9 158.049 445.35 160.087 439.65 159.848H426.119C423.569 159.908 421.47 157.899 421.41 155.38C421.41 155.29 421.41 155.23 421.41 155.14V117.51C421.35 114.962 423.36 112.863 425.91 112.803C425.97 112.803 426.059 112.803 426.119 112.803H439.65ZM439.65 151.122C442.83 151.272 445.95 150.163 448.35 148.064C450.54 146.085 451.77 143.237 451.68 140.298V132.352C451.77 129.414 450.54 126.566 448.35 124.587C445.95 122.488 442.83 121.378 439.65 121.528H430.83V151.092H439.65V151.122Z" fill="#2C6445"></path>
    <path d="M508.2 141.707C508.29 146.955 506.1 152.022 502.23 155.56C493.5 163.086 480.57 163.086 471.81 155.56C467.91 152.022 465.72 146.985 465.81 141.707V130.943C465.72 125.666 467.91 120.629 471.81 117.091C480.54 109.565 493.47 109.565 502.23 117.091C506.13 120.629 508.29 125.666 508.2 130.943V141.707ZM495.51 149.413C497.67 147.434 498.84 144.646 498.78 141.707V130.943C498.84 128.035 497.67 125.216 495.51 123.237C490.56 119.16 483.42 119.16 478.5 123.237C476.34 125.216 475.17 128.005 475.23 130.943V141.707C475.14 144.616 476.34 147.434 478.5 149.413C483.45 153.491 490.59 153.491 495.51 149.413Z" fill="#2C6445"></path>
    <path d="M554.58 141.707C554.67 146.955 552.48 152.022 548.61 155.56C539.88 163.086 526.95 163.086 518.19 155.56C514.29 152.022 512.1 146.985 512.19 141.707V130.943C512.1 125.666 514.29 120.629 518.19 117.091C526.92 109.565 539.85 109.565 548.61 117.091C552.51 120.629 554.67 125.666 554.58 130.943V141.707ZM541.89 149.413C544.05 147.434 545.22 144.646 545.16 141.707V130.943C545.22 128.035 544.05 125.216 541.89 123.237C536.94 119.16 529.8 119.16 524.88 123.237C522.72 125.216 521.55 128.005 521.61 130.943V141.707C521.52 144.616 522.72 147.434 524.88 149.413C529.83 153.491 536.97 153.491 541.89 149.413Z" fill="#2C6445"></path>
    <path d="M580.83 112.803C585.36 112.593 589.8 114.152 593.25 117.091C596.31 119.729 598.05 123.567 597.99 127.585C597.99 129.324 597.72 131.033 597.09 132.652C596.61 134.002 595.86 135.231 594.9 136.31C594.12 137.15 593.25 137.93 592.35 138.619C591.69 139.159 590.97 139.579 590.19 139.938L589.26 140.328V140.658L598.68 152.412C599.49 153.341 599.97 154.541 600.03 155.77C600.03 156.909 599.61 158.019 598.83 158.858C598.02 159.728 596.85 160.178 595.68 160.148C594.99 160.148 594.3 159.998 593.7 159.698C593.22 159.488 592.77 159.218 592.38 158.858L591.99 158.468L579.15 142.337H568.44V155.44C568.5 158.049 566.46 160.208 563.85 160.267C561.24 160.327 559.08 158.289 559.02 155.68C559.02 155.59 559.02 155.53 559.02 155.44V117.451C558.96 114.902 560.97 112.803 563.52 112.743C563.58 112.743 563.67 112.743 563.73 112.743H580.86L580.83 112.803ZM586.29 123.148C584.73 121.978 582.78 121.408 580.83 121.528H568.38V133.642H580.83C582.78 133.762 584.7 133.132 586.23 131.933C588.66 129.774 588.9 126.086 586.74 123.627C586.59 123.447 586.44 123.297 586.26 123.148" fill="#2C6445"></path>
    <path d="M20.49 132.473V131.693C20.25 131.753 20.04 131.813 19.89 131.843C18.27 132.233 16.8 133.072 15.66 134.242C14.85 135.261 14.22 136.431 13.83 137.69C11.46 144.046 9.09 150.403 6.72 156.76C6.54 157.269 6.33 157.779 6.15 158.319C5.01 160.567 4.68 163.176 5.22 165.665C6.48 169.233 10.89 170.702 14.79 171.452C28.68 173.58 42.72 174.39 56.76 173.85C70.8 174.39 84.84 173.58 98.73 171.452C102.63 170.732 107.07 169.233 108.3 165.665C108.84 163.176 108.51 160.597 107.37 158.319L106.8 156.76L99.72 137.69C99.33 136.431 98.7 135.291 97.89 134.242C96.72 133.072 95.25 132.233 93.66 131.843L93 131.663V132.473C93 132.473 56.85 142.187 20.49 132.473Z" fill="#FFCD44"></path>
    <path d="M80.6699 149.174C75.7499 148.814 73.4699 153.101 73.1099 157.479C72.6899 162.906 72.7799 168.333 73.4399 173.73C79.4699 173.64 85.4699 173.251 91.4399 172.531C91.2299 167.494 90.4799 162.486 89.2499 157.599C88.0199 153.701 85.0499 149.473 80.6699 149.144" fill="#2C6445"></path>
    <path d="M81.3598 163.176C81.3598 164.735 80.0998 165.965 78.5698 165.965C77.0398 165.965 75.7798 164.705 75.7798 163.176C75.7798 161.617 77.0398 160.388 78.5698 160.388C80.1298 160.388 81.3598 161.647 81.3598 163.176Z" fill="white"></path>
    <path d="M55.7398 26.0001C55.7398 26.0001 94.4098 23.9612 97.7398 63.6598C98.6098 73.8243 96.9898 84.0787 93.0298 93.4936C92.7598 93.9734 92.6098 94.4831 92.6698 95.0228V96.6419C92.6698 96.6419 102.06 96.6419 107.34 85.5179L115.32 82.4296C115.32 82.4296 121.44 97.6914 92.8198 107.736L93.0598 132.443C93.0598 132.443 56.9098 142.157 20.5498 132.443L21.1798 105.787C20.3098 106.687 19.3198 107.496 18.2698 108.186C16.5898 109.235 14.1298 110.914 16.8598 114.362L18.3298 116.611C18.4198 116.761 18.4498 116.971 18.4198 117.151C17.8498 119.849 15.5398 121.798 12.7798 121.888C12.5698 121.888 12.1198 121.319 11.9698 121.199C11.2798 120.539 10.6498 119.849 10.0798 119.1C7.28977 115.562 5.15977 110.015 7.28977 105.667C8.51977 103.508 10.1098 101.589 12.0298 100.03C13.9498 98.291 15.8998 96.582 17.8498 94.9029L19.6198 93.3737C20.3398 92.864 20.9998 92.2943 21.5998 91.6646C20.3098 87.7967 19.2598 83.8388 18.4798 79.851C18.4798 79.851 18.4198 78.3818 15.9298 77.2724C13.4398 76.163 -0.18023 73.8542 -0.000229685 62.7003C-0.000229685 62.7003 -0.27023 57.633 4.58977 57.8429C9.44977 58.0528 16.8598 58.4726 18.4498 56.3137C18.4498 56.3137 18.8398 56.2538 19.7098 53.1354C20.5798 50.0171 25.2598 27.2894 55.7398 26.0001Z" fill="#7E5938"></path>
    <path d="M64.8897 72.835C65.5197 72.2054 65.5197 71.1859 64.8897 70.5563C64.8897 70.5563 64.8297 70.4963 64.7997 70.4963C63.0897 69.3269 61.0197 68.8472 58.9797 69.177C58.0497 69.207 57.1497 69.3869 56.2797 69.7167C55.6197 69.9866 55.0797 70.5263 54.8097 71.1859C54.6297 71.8756 54.8997 72.5952 55.4697 72.985C56.3697 73.5546 57.4197 73.8545 58.4997 73.8845C59.6397 74.0044 60.8097 74.0044 61.9497 73.8845C62.9997 73.8845 64.0197 73.4947 64.8597 72.805" fill="#FFCD44"></path>
    <path d="M4.16965 57.933H4.07965C2.72965 57.4232 1.22965 57.903 0.359655 59.0424C-0.330345 60.2417 0.119655 61.7709 1.28965 62.4305C1.49965 62.5505 1.70965 62.6404 1.94965 62.7004C3.29965 62.9103 4.61965 62.0707 5.00965 60.7514C5.45965 59.732 5.09965 58.5326 4.13965 57.933" fill="#FFCD44"></path>
    <path d="M28.4099 54.155C27.9299 55.5042 26.4599 56.2239 25.1099 55.7741C23.7599 55.2944 23.0399 53.8252 23.4899 52.4759C23.9099 51.2465 25.1999 50.497 26.4899 50.7668C27.9599 51.1866 28.8299 52.6858 28.4399 54.155" fill="#281D09"></path>
    <path d="M52.4997 58.7124C52.0197 60.0617 50.5497 60.7813 49.1997 60.3315C47.8497 59.8818 47.1297 58.3826 47.5797 57.0333C47.9997 55.804 49.2897 55.0843 50.5797 55.3242C52.0497 55.744 52.9197 57.2432 52.4997 58.7124Z" fill="#281D09"></path>
    <path d="M18.5698 74.3338C22.3498 73.1045 26.0398 71.6653 29.6998 70.1361C29.9098 70.0461 30.1198 70.0162 30.3298 70.0761C30.5398 70.1961 30.6598 70.4059 30.7198 70.6158C31.2298 73.1045 30.1798 75.6531 28.0798 77.0324C26.6098 78.1418 24.7798 78.6215 22.9498 78.3816C20.9098 77.8119 19.2898 76.3128 18.5698 74.3338Z" fill="white"></path>
    <path d="M12.6899 121.918C13.7399 124.227 15.2399 126.266 17.0999 128.005C17.7299 128.574 18.6599 129.054 19.1399 128.634C19.6199 128.215 19.2299 127.345 18.8699 126.655C19.6499 127.495 20.9999 127.705 21.5399 127.045C22.0799 126.386 21.6299 125.036 20.6699 124.407C21.1499 124.647 21.6599 124.826 22.1999 124.916C22.6499 125.036 23.1299 124.796 23.3399 124.377C23.5799 123.657 22.7699 122.698 22.0199 122.038C22.5899 122.338 23.2499 122.518 23.9099 122.518C24.4499 122.518 24.9299 122.218 25.1099 121.708C25.3199 120.959 24.5999 120.479 24.0299 120.179C23.5799 119.939 23.0999 119.789 22.6499 119.549C21.1499 118.83 19.7099 117.96 18.3299 116.971C18.3299 117.031 18.3299 117.121 18.3299 117.181C17.7599 119.879 15.4499 121.828 12.6899 121.918Z" fill="#FFCD44"></path>
    <path d="M53.9395 40.3326C47.5495 39.9728 41.7895 44.2305 40.2295 50.4371C38.9095 50.1373 36.2095 49.8674 36.2095 49.8674C36.6295 42.5214 30.9895 36.2548 23.6695 35.835C16.3195 35.4152 10.0495 41.0522 9.62955 48.3682C9.20955 55.6843 14.8195 61.9509 22.1395 62.4006C22.3795 62.4006 22.6495 62.4006 22.9195 62.4006C29.2495 62.4006 34.7095 57.9031 35.9695 51.6964C36.2695 51.6964 39.2395 52.1162 39.9296 52.2661C39.9296 52.476 39.8695 52.6559 39.8695 52.8658C39.4495 60.2118 45.0895 66.4784 52.4095 66.9282C52.6495 66.9282 52.9195 66.9282 53.1595 66.9282C60.5095 66.9282 66.4495 60.9014 66.4495 53.5554C66.4495 46.5392 60.9295 40.7224 53.9095 40.3026M34.2295 49.7175C33.8695 55.9541 28.5295 60.7515 22.2595 60.3917C16.0195 60.0319 11.2195 54.6948 11.5795 48.4282C11.9095 42.4314 16.8895 37.724 22.8895 37.724C23.0995 37.724 23.3095 37.724 23.5495 37.724C29.7895 38.1138 34.5595 43.4509 34.2295 49.6875M64.4695 54.2151C64.1095 60.4517 58.7395 65.2191 52.4995 64.8593C46.2595 64.4995 41.4895 59.1324 41.8495 52.8958C42.2095 46.6591 47.5495 41.8917 53.7896 42.2515C59.9995 42.5514 64.7995 47.8285 64.4695 54.0352C64.4695 54.0951 64.4695 54.1551 64.4695 54.2151Z" fill="#281D09"></path>
    <path d="M53.9395 40.3326C47.5495 39.9728 41.7895 44.2305 40.2295 50.4371C38.9095 50.1373 36.2095 49.8674 36.2095 49.8674C36.6295 42.5214 30.9895 36.2548 23.6695 35.835C16.3195 35.4152 10.0495 41.0522 9.62955 48.3682C9.20955 55.6843 14.8195 61.9509 22.1395 62.4006C22.3795 62.4006 22.6495 62.4006 22.9195 62.4006C29.2495 62.4006 34.7095 57.9031 35.9695 51.6964C36.2695 51.6964 39.2396 52.1162 39.9296 52.2661C39.9296 52.476 39.8695 52.6559 39.8695 52.8658C39.4495 60.2118 45.0895 66.4784 52.4095 66.9282C52.6495 66.9282 52.9195 66.9282 53.1595 66.9282C60.5095 66.9282 66.4495 60.9014 66.4495 53.5554C66.4495 46.5392 60.9295 40.7224 53.9095 40.3026L53.9395 40.3326ZM34.2595 49.7475C33.8995 55.9841 28.5595 60.7815 22.2895 60.4217C16.0495 60.0619 11.2495 54.7248 11.6095 48.4582C11.9395 42.4614 16.9195 37.754 22.9195 37.754C23.1295 37.754 23.3395 37.754 23.5795 37.754C29.8195 38.1437 34.5895 43.4809 34.2595 49.7175V49.7475ZM64.4995 54.275C64.1395 60.5117 58.7695 65.2791 52.5295 64.9193C46.2895 64.5595 41.5195 59.1924 41.8795 52.9557C42.2395 46.7191 47.5796 41.9517 53.8196 42.3115C60.0296 42.6113 64.8295 47.8885 64.4995 54.0951C64.4995 54.1551 64.4995 54.2151 64.4995 54.245V54.275Z" stroke="#281D09" stroke-width="0.38" stroke-miterlimit="10"></path>
    <path d="M71.9695 109.415C67.8895 102.489 60.1795 98.5308 52.1695 99.2804C49.3195 99.6402 46.5595 100.63 44.1595 102.219C35.9395 107.556 30.9295 118.5 29.8195 129.324C29.6695 130.733 29.5795 132.862 29.5195 134.481C45.9895 137.3 62.7895 137.51 79.2895 135.081C79.0195 132.802 78.6895 129.984 78.3295 127.945C77.4295 121.408 75.2995 115.112 71.9995 109.385" fill="#2C6445"></path>
    <path d="M120.78 69.1168L99.1199 99.7302C97.9199 101.439 95.5499 101.829 93.8399 100.63L80.3699 91.1249C78.6599 89.9255 78.2699 87.5568 79.4699 85.8477L101.13 55.2343C102.33 53.5252 104.7 53.1354 106.41 54.3347L119.88 63.8396C121.59 65.039 121.98 67.4077 120.78 69.1168Z" fill="#2C6445"></path>
    <path d="M115.44 70.406L101.73 89.7756C100.35 91.6945 97.6799 92.1743 95.7599 90.795L89.0999 86.0876C87.1799 84.7083 86.6999 82.0397 88.0799 80.1208L101.79 60.7512C103.17 58.8323 105.84 58.3525 107.76 59.7318L114.42 64.4393C116.34 65.8185 116.82 68.4871 115.44 70.406Z" fill="white"></path>
    <path d="M87.2696 93.1339C87.5396 94.3332 88.7396 95.0828 89.9096 94.783C91.0796 94.4832 91.8596 93.3138 91.5596 92.1444C91.2896 90.9451 90.0896 90.1955 88.9196 90.4953C87.7196 90.7652 86.9696 91.9645 87.2396 93.1339" fill="white"></path>
    <path d="M109.62 90.9148C108.66 90.9148 107.88 90.1952 107.85 89.2357C107.85 89.2357 107.85 89.2057 107.85 89.1757C107.7 88.1263 107.07 87.2268 106.11 86.7171C105.69 86.4472 105.21 86.3273 104.76 86.0874C104.22 85.7876 103.5 85.3078 103.77 84.5582C103.98 84.0485 104.49 83.7487 105.03 83.7787C105.69 83.7787 106.32 83.9286 106.89 84.2584C106.17 83.5988 105.39 82.6393 105.69 81.9197C105.93 81.4999 106.41 81.29 106.86 81.38C107.37 81.4699 107.88 81.6498 108.36 81.8897C107.46 81.32 107.13 80.1806 107.64 79.2211C108.45 78.5915 109.65 78.7714 110.25 79.5809C109.92 78.8913 109.62 77.9918 110.1 77.602C110.58 77.2122 111.51 77.662 112.11 78.2317C113.16 79.2211 114.06 80.3305 114.81 81.5299C115.29 82.2495 115.62 83.0291 115.77 83.8686C116.01 86.1774 114.9 88.3962 112.89 89.5955C111.99 90.1952 111 90.6449 109.95 90.8548C109.8 90.8548 109.68 90.8548 109.53 90.8548" fill="#FFCD44"></path>
    <path d="M46.8898 144.046H26.2798V161.017H46.8898V144.046Z" fill="white"></path>
    <path d="M48.0298 151.482V144.346C48.0298 143.686 47.4898 143.117 46.7998 143.117H26.7598C26.0998 143.117 25.5298 143.656 25.5298 144.346V160.987C25.5298 161.647 26.0698 162.216 26.7598 162.216H46.7998C47.4598 162.216 48.0298 161.677 48.0298 161.017V151.482ZM38.5498 145.545H45.0898C45.3898 145.545 45.5998 145.785 45.6298 146.055V151.452H38.0398V146.055C38.0398 145.755 38.2798 145.545 38.5798 145.545M28.0198 146.085C28.0198 145.785 28.2598 145.545 28.5298 145.545H35.0998C35.3998 145.545 35.6098 145.785 35.6098 146.085V151.482H27.9898V146.085H28.0198ZM35.0998 159.818H28.5298C28.2298 159.818 28.0198 159.578 28.0198 159.278V153.881H35.6398V159.278C35.6398 159.578 35.3998 159.788 35.1298 159.818M45.6598 159.278C45.6598 159.578 45.4198 159.818 45.1498 159.818H38.6098C38.3098 159.818 38.0698 159.578 38.0698 159.278V153.881H45.6598V159.278Z" fill="#2C6445"></path>
  </g>
  <defs>
    <clipPath id="clip0_764_284869">
      <rect width="600" height="148" fill="white" transform="translate(0 26)"></rect>
    </clipPath>
  </defs>
</svg>
