<?xml version="1.0" encoding="UTF-8"?>
<svg xmlns="http://www.w3.org/2000/svg" width="600" height="201" viewBox="0 0 600 201" fill="none">
  <g clip-path="url(#clip0_764_284843)">
    <rect width="600" height="200" transform="translate(0 0.116699)" fill="#003DA5"></rect>
    <rect width="436.139" height="252.834" transform="translate(81.9307 -26.3003)" fill="#003DA5"></rect>
    <g clip-path="url(#clip1_764_284843)">
      <path d="M263.278 72.4037C265.736 66.6096 267.116 60.226 267.116 53.5404C267.116 26.8988 245.507 5.30371 218.88 5.30371C192.253 5.30371 170.643 26.8988 170.643 53.5404C170.643 60.2403 172.009 66.6096 174.482 72.4037H203.194C197.788 67.9036 194.352 61.1174 194.352 53.5404C194.352 39.9824 205.336 28.9979 218.894 28.9979C232.452 28.9979 243.437 39.9824 243.437 53.5404C243.437 61.1317 240 67.9036 234.594 72.4037H263.306H263.278Z" fill="#99B5D0"></path>
      <path d="M172.512 133.394C171.304 137.621 170.643 142.078 170.643 146.693C170.643 173.334 192.238 194.929 218.88 194.929C245.521 194.929 267.116 173.334 267.116 146.693C267.116 142.078 266.455 137.621 265.247 133.394H239.497C241.97 137.232 243.422 141.79 243.422 146.693C243.422 160.251 232.438 171.235 218.88 171.235C205.322 171.235 194.337 160.251 194.337 146.693C194.337 141.79 195.775 137.218 198.262 133.394H172.512Z" fill="#99B5D0"></path>
      <path d="M157.876 114.99C155.058 116.902 150.586 119.634 141.945 119.634C129.293 119.634 124.29 106.708 124.29 92.3162C124.29 80.9292 126.475 66.6379 139.86 66.6379C149.695 66.6379 154.698 75.5663 155.058 80.2103H157.703L157.157 64.9988C152.973 63.633 147.049 62.2671 138.955 62.2671C118.639 62.2815 113.535 75.7532 113.535 92.3305C113.535 112.819 120.638 124.738 140.392 124.738C149.767 124.738 154.77 122.638 157.876 121.273V114.99Z" fill="white"></path>
      <path d="M189.32 109.167C189.32 115.809 185.855 119.548 180.664 119.548C176.84 119.548 174.928 116.629 174.928 113.078C174.928 104.523 185.855 103.977 189.305 103.876V109.153L189.32 109.167ZM206.156 120.827C204.977 121.187 203.784 121.647 202.605 121.647C199.6 121.647 198.507 119.648 198.507 114.084V95.9683C198.507 85.5877 194.869 81.0444 183.396 81.0444C175.934 81.0444 166.733 83.8624 166.733 90.4186C166.733 93.6104 169.378 95.0625 171.923 95.0625C180.204 95.0625 174.022 84.1356 183.037 84.1356C189.32 84.1356 189.32 91.0512 189.32 95.9683V100.526C183.669 100.799 165.007 101.619 165.007 114.372C165.007 120.295 170.658 124.752 176.926 124.752C183.669 124.752 187.58 120.568 189.406 118.555C190.039 121.56 191.131 124.752 196.595 124.752C200.419 124.752 203.065 124.12 206.156 123.113V120.841V120.827Z" fill="white"></path>
      <path d="M239.108 93.3236L238.562 82.5835C235.643 81.8503 232.552 81.0308 228.181 81.0308C219.526 81.0308 212.337 84.582 212.337 92.7772C212.337 97.7806 214.422 100.239 218.894 103.345C224.357 107.083 233.271 108.808 233.271 114.732C233.271 119.376 228.987 121.647 224.99 121.647C218.247 121.647 214.695 116.098 214.695 110.907H212.05L212.596 123.099C214.695 123.646 219.785 124.739 225.248 124.739C235.715 124.739 241.639 119.821 241.639 112.359C241.639 107.902 239.554 104.711 236.808 102.626C231.158 98.2551 220.691 95.9834 220.691 90.0599C220.691 86.7818 223.509 84.1363 227.419 84.1363C234.162 84.1363 236.075 90.1461 236.434 93.3379H239.08L239.108 93.3236Z" fill="white"></path>
      <path d="M257.454 94.5162C257.454 90.9649 259.28 84.1356 266.196 84.1356C272.479 84.1356 274.017 88.7796 274.017 94.5162H257.454ZM282.399 119.102C280.674 119.734 277.755 120.655 274.017 120.655C261.092 120.655 257.454 107.815 257.454 98.2544H283.219C283.219 90.6055 280.846 81.0444 266.555 81.0444C254.349 81.0444 247.534 87.6869 247.534 101.432C247.534 116.543 255.815 124.738 269.833 124.738C275.929 124.738 280.66 123.012 282.399 122.366V119.087V119.102Z" fill="white"></path>
      <path d="M294.822 123.833H320.313V121.561C313.944 121.561 312.578 120.195 312.578 113.093V67.3867H316.043C325.604 67.3867 327.689 70.5785 328.609 77.3072H331.254L330.794 63.1885H284.456L283.909 77.3072H286.555C287.561 70.6648 289.473 67.3867 299.02 67.3867H302.571V113.093C302.571 120.195 301.205 121.561 294.836 121.561V123.833H294.822Z" fill="white"></path>
      <path d="M334.848 123.832H357.694V121.833C352.418 121.833 350.865 120.194 350.865 113.911V103.718C350.865 94.3434 354.962 88.7937 357.78 88.7937C360.785 88.7937 360.153 90.8928 363.431 90.8928C366.076 90.8928 368.348 88.9806 368.348 85.7888C368.348 82.7839 365.53 81.0586 363.431 81.0586C355.969 81.0586 352.59 87.5285 351.052 91.6261H350.865V81.0586L334.848 83.244V85.2425C338.399 85.2425 341.677 86.062 341.677 92.5319V113.926C341.677 120.209 340.125 121.848 334.848 121.848V123.846V123.832Z" fill="white"></path>
      <path d="M405.802 124.739L421.819 122.553V120.555C418.354 120.555 414.989 119.735 414.989 113.265V81.0308L398.973 83.2162V85.2146C402.524 85.2146 405.802 86.0342 405.802 92.5041V104.064C405.802 109.714 400.525 119.174 395.781 119.174C390.504 119.174 388.865 116.256 388.865 105.243V81.0308L372.849 83.2162V85.2146C376.4 85.2146 379.678 86.0342 379.678 92.5041V112.618C379.678 119.534 381.59 124.724 391.784 124.724C399.792 124.724 403.703 117.622 405.615 113.984H405.802V124.724V124.739Z" fill="white"></path>
      <path d="M453.795 93.3236L453.248 82.5835C450.33 81.8503 447.238 81.0308 442.868 81.0308C434.212 81.0308 427.024 84.582 427.024 92.7772C427.024 97.7806 429.123 100.239 433.58 103.345C439.043 107.083 447.972 108.808 447.972 114.732C447.972 119.376 443.687 121.647 439.69 121.647C432.947 121.647 429.396 116.098 429.396 110.907H426.75L427.297 123.099C429.396 123.646 434.486 124.739 439.949 124.739C450.416 124.739 456.339 119.821 456.339 112.359C456.339 107.902 454.24 104.711 451.509 102.626C445.858 98.2551 435.391 95.9834 435.391 90.0599C435.391 86.7818 438.209 84.1363 442.134 84.1363C448.878 84.1363 450.775 90.1461 451.149 93.3379H453.795V93.3236Z" fill="white"></path>
      <path d="M486.805 120.095C485.712 120.454 484.619 120.641 483.44 120.641C478.71 120.641 476.065 118.916 476.065 112.805V85.6747H487.897V81.9365H476.065V66.8257H473.419C472.959 73.7413 470.227 83.1298 459.487 83.1298V85.6747H466.863V112.805C466.863 123.459 473.592 124.738 481.614 124.738C483.34 124.738 485.166 124.379 486.805 123.732V120.095Z" fill="white"></path>
    </g>
  </g>
  <defs>
    <clipPath id="clip0_764_284843">
      <rect width="600" height="200" fill="white" transform="translate(0 0.116699)"></rect>
    </clipPath>
    <clipPath id="clip1_764_284843">
      <rect width="374.363" height="189.626" fill="white" transform="translate(113.535 5.30371)"></rect>
    </clipPath>
  </defs>
</svg>
