<?xml version="1.0" encoding="UTF-8"?>
<svg xmlns="http://www.w3.org/2000/svg" width="206" height="200" viewBox="0 0 206 200" fill="none">
  <path d="M101.843 0.377633C100.762 0.909976 44.5204 27.8676 25.1888 37.1217C22.882 38.2235 20.8798 39.2077 20.743 39.3129C20.4259 39.542 20.171 39.9196 20.0528 40.3219C20.0031 40.4952 19.7419 41.6404 19.4683 42.866C18.7719 45.9858 17.8455 50.0279 12.8152 71.9282C10.3902 82.5008 7.18171 96.4655 5.68941 102.971C4.1971 109.471 2.30685 117.71 1.48609 121.269C0.671536 124.834 0 127.88 0 128.035C0 128.189 0.0497434 128.437 0.105705 128.579C0.167884 128.734 1.72237 130.727 3.88621 133.42C5.90703 135.946 10.1725 141.263 13.3685 145.249C16.5646 149.229 25.68 160.613 33.6328 170.535C41.5855 180.458 50.0481 191.018 52.442 193.996C55.2774 197.524 56.807 199.474 56.8194 199.585L56.8443 199.752H102.695C127.915 199.752 148.546 199.728 148.546 199.703C148.546 199.672 148.646 199.604 148.764 199.548C148.907 199.48 149.218 199.146 149.709 198.533C150.107 198.032 153.533 193.76 157.314 189.044C161.1 184.327 167.66 176.137 171.901 170.845C176.141 165.553 181.999 158.236 184.921 154.596C191.208 146.76 198.141 138.094 200.995 134.509C202.12 133.098 203.395 131.52 203.83 131.006C205.428 129.106 205.733 128.542 205.471 127.929C205.422 127.806 205.378 127.614 205.378 127.502C205.378 127.236 205.328 127.026 203.979 121.17C202.928 116.633 201.529 110.498 195.243 83.0393C194.142 78.2359 192.128 69.4337 190.76 63.4788C189.392 57.5178 187.632 49.8298 186.849 46.3943C185.804 41.8261 185.381 40.0558 185.263 39.8205C185.164 39.6348 185.002 39.4367 184.871 39.3439C184.747 39.2634 178.666 36.3294 171.366 32.832C164.066 29.3408 147.135 21.2257 133.748 14.8066C120.36 8.38754 108.416 2.66795 107.21 2.09846C106.003 1.52898 104.548 0.823316 103.982 0.526194C103.41 0.235262 102.869 4.11542e-05 102.782 4.11542e-05C102.689 4.11542e-05 102.266 0.173362 101.843 0.377633ZM113.353 8.69085C130.16 16.7565 159.838 30.9812 176.838 39.1149C180.233 40.7428 181.974 41.6095 182.117 41.7394C182.229 41.8509 182.378 42.0489 182.44 42.1851C182.502 42.3213 182.751 43.3117 182.994 44.3826C184.853 52.572 191.997 83.7883 196.493 103.343C198.24 110.932 200.068 118.898 200.559 121.046C201.051 123.188 201.554 125.379 201.685 125.905C201.952 127.02 201.977 127.44 201.784 127.83C201.71 127.979 200.665 129.328 199.459 130.826C193.912 137.722 161.43 178.261 151.767 190.344C149.224 193.531 147.284 195.902 147.129 196.02C146.986 196.131 146.762 196.249 146.631 196.286C146.314 196.373 59.2569 196.373 58.9335 196.286C58.3553 196.125 58.3055 196.069 53.1073 189.57C43.3265 177.338 23.8085 152.968 9.97356 135.71C6.61588 131.526 3.81159 127.998 3.73698 127.886C3.4696 127.447 3.4696 127.471 4.57018 122.687C5.13601 120.217 7.59831 109.477 10.042 98.8239C12.4856 88.1647 15.7562 73.9029 17.3107 67.131C18.8652 60.3529 20.7865 51.9839 21.5762 48.5299C23.1058 41.8323 23.0623 41.9809 23.5162 41.6404C23.6281 41.5537 26.6065 40.1053 30.1321 38.4216C40.9575 33.2405 95.097 7.28571 98.3987 5.69487C102.621 3.65835 102.366 3.76358 102.813 3.79453C103.162 3.8131 103.852 4.13498 113.353 8.69085Z" fill="black"></path>
  <path d="M100.369 91.5938C100.289 91.6062 100.202 91.6929 100.164 91.7795C100.127 91.8724 100.114 94.9179 100.121 99.8513C100.139 107.261 100.146 107.768 100.245 107.874C100.345 107.966 100.494 107.979 101.706 107.96C102.801 107.948 103.08 107.929 103.155 107.855C103.236 107.775 103.248 107.255 103.255 103.962C103.261 101.869 103.279 100.043 103.304 99.907C103.441 99.0342 105.076 98.4091 106.003 98.8795C106.426 99.09 106.737 99.4737 106.886 99.9566C107.004 100.334 107.01 100.545 107.01 103.986C107.01 105.979 107.029 107.676 107.047 107.75C107.066 107.824 107.147 107.905 107.215 107.929C107.29 107.954 107.949 107.973 108.677 107.973C109.926 107.973 110.02 107.966 110.1 107.855C110.237 107.669 110.181 99.7399 110.038 99.1642C109.783 98.1305 109.535 97.6601 108.95 97.1091C108.291 96.484 107.52 96.224 106.357 96.2302C105.729 96.2364 105.536 96.2611 105.114 96.3973C104.529 96.5954 104.106 96.8244 103.702 97.1772C103.547 97.3134 103.385 97.431 103.348 97.431C103.304 97.431 103.279 96.5273 103.267 94.6146C103.248 92.0147 103.242 91.7919 103.136 91.6929C103.037 91.5938 102.888 91.5814 101.768 91.5753C101.078 91.5691 100.45 91.5753 100.369 91.5938Z" fill="black"></path>
  <path d="M113.925 91.9778C113.272 92.2006 112.899 92.7453 112.905 93.4696C112.905 94.1629 113.173 94.5962 113.757 94.8685C114.012 94.9923 114.168 95.0171 114.628 95.0171C115.088 95.0171 115.243 94.9923 115.498 94.8685C116.095 94.59 116.338 94.1814 116.338 93.4572C116.338 92.9063 116.207 92.603 115.853 92.2811C115.399 91.8726 114.59 91.7488 113.925 91.9778Z" fill="black"></path>
  <path d="M23.0187 92.3243C21.6011 92.5781 20.3077 93.2776 19.5802 94.169C18.175 95.9084 18.5418 98.3844 20.4134 99.8081C21.2839 100.464 22.0798 100.836 24.0323 101.51C26.3142 102.303 26.8925 102.736 26.9671 103.714C27.0417 104.587 26.6314 105.162 25.7298 105.478C24.6292 105.862 22.8509 105.571 22.1793 104.896C21.8684 104.587 21.6446 104.135 21.5824 103.671C21.5016 103.058 21.514 103.064 19.86 103.064C18.5543 103.064 18.461 103.07 18.3429 103.188C18.1998 103.33 18.2185 103.572 18.4113 104.364C18.7843 105.85 19.7419 106.865 21.4953 107.614C23.3172 108.4 25.1888 108.468 27.1412 107.824C27.9869 107.546 28.5527 107.242 29.0128 106.815C29.5351 106.345 29.8647 105.85 30.0761 105.206C30.2129 104.779 30.244 104.593 30.244 103.962C30.2502 103.083 30.1507 102.656 29.7776 101.894C29.1496 100.625 27.763 99.7152 25.0893 98.8301C23.1804 98.1925 22.5524 97.8459 22.198 97.2268C22.0487 96.9669 22.0114 96.8307 22.0114 96.5398C22.0114 95.865 22.3472 95.4255 23.1307 95.0541C23.5162 94.8684 23.5659 94.8623 24.3432 94.8623C25.2696 94.8623 25.6676 94.9551 26.1526 95.277C26.507 95.5184 26.8179 95.9888 26.9236 96.4593C27.0728 97.0969 26.9547 97.0597 28.7081 97.0597H30.2378L30.2004 96.5459C30.1321 95.5617 29.7528 94.7013 29.0812 93.9895C27.9371 92.77 26.451 92.2253 24.3121 92.2377C23.8519 92.2377 23.2675 92.281 23.0187 92.3243Z" fill="black"></path>
  <path d="M145.133 92.535C145.002 92.6649 145.002 92.6835 145.002 100.204C145.002 106.314 145.014 107.769 145.083 107.855C145.157 107.954 145.288 107.967 146.65 107.961C147.558 107.954 148.167 107.923 148.204 107.886C148.241 107.849 148.273 106.128 148.285 102.965C148.297 99.1583 148.316 98.106 148.378 98.1307C148.416 98.1431 149.398 99.6968 150.548 101.585C153.203 105.918 154.385 107.812 154.503 107.911C154.571 107.967 154.963 107.985 156.057 107.973C157.301 107.961 157.537 107.948 157.618 107.861C157.705 107.775 157.718 107.026 157.718 100.18C157.718 92.7392 157.718 92.5907 157.599 92.504C157.5 92.4359 157.195 92.4173 156.113 92.4173C155.299 92.4173 154.708 92.4421 154.634 92.4792C154.515 92.5411 154.515 92.6649 154.515 97.3384C154.515 99.9692 154.497 102.167 154.478 102.222C154.422 102.377 154.341 102.34 154.18 102.086C153.968 101.758 150.412 95.9457 149.348 94.1877C148.789 93.2716 148.385 92.6649 148.266 92.5783C148.092 92.4545 147.999 92.4483 146.668 92.4297C145.313 92.4112 145.251 92.4173 145.133 92.535Z" fill="black"></path>
  <path d="M93.1879 93.6182C92.9267 93.7543 92.8956 93.9153 92.9392 95.0852C92.9765 96.1623 92.9765 96.1746 92.8335 96.317C92.6967 96.4532 92.6594 96.4532 92.106 96.4222C91.5401 96.3851 91.5153 96.3851 91.366 96.5337C91.223 96.676 91.2168 96.7132 91.2168 97.5426C91.2168 98.3288 91.2292 98.4216 91.3474 98.5702C91.4779 98.7373 91.4904 98.7373 92.1246 98.7187C92.591 98.7064 92.7899 98.7249 92.8459 98.7806C92.9081 98.8425 92.9329 99.6039 92.9578 102.34C92.9951 106.116 92.9889 106.048 93.362 106.778C93.5423 107.131 94.1206 107.676 94.4812 107.837C95.2895 108.19 96.2347 108.282 97.3725 108.115C98.1933 107.991 98.1809 108.01 98.1809 106.778C98.1809 105.955 98.1622 105.788 98.0814 105.72C98.0192 105.664 97.7332 105.621 97.3104 105.602C96.8192 105.577 96.6015 105.54 96.4772 105.454C96.1414 105.237 96.1165 105.094 96.0854 102.662C96.0481 100.254 96.0917 99.053 96.2222 98.8735C96.2906 98.7806 96.4274 98.7559 97.1052 98.7311C97.5404 98.7126 97.9384 98.6754 97.9819 98.6507C98.0876 98.5826 98.0876 96.5337 97.9819 96.4656C97.9384 96.4346 97.5653 96.4037 97.1549 96.3913C96.2036 96.3603 96.1601 96.3294 96.1041 95.6485C96.0854 95.3885 96.0917 94.9614 96.1165 94.7076C96.1787 94.1691 96.129 93.8781 95.9424 93.6924C95.8243 93.5686 95.7497 93.5624 94.5683 93.5563C93.7786 93.5563 93.2749 93.5748 93.1879 93.6182Z" fill="black"></path>
  <path d="M124.514 96.28C123.793 96.4471 123.115 96.7814 122.63 97.2085C122.506 97.3199 122.344 97.4437 122.27 97.4809C122.145 97.549 122.139 97.5304 122.096 97.1157C122.04 96.4781 122.021 96.4595 121.455 96.41C120.79 96.3481 119.273 96.4038 119.179 96.4967C119.068 96.6081 119.043 107.701 119.155 107.855C119.229 107.954 119.36 107.961 120.628 107.954C121.785 107.954 122.04 107.936 122.121 107.855C122.201 107.775 122.22 107.218 122.245 103.751L122.276 99.7341L122.469 99.4926C122.581 99.3565 122.836 99.1708 123.078 99.047C123.439 98.8613 123.569 98.8303 124.042 98.8055C124.981 98.7622 125.54 99.0098 125.814 99.5979C125.938 99.8702 125.945 99.9817 125.976 103.857C126.001 107.304 126.019 107.843 126.1 107.893C126.218 107.967 126.137 107.961 127.648 107.967C128.736 107.967 128.923 107.954 129.016 107.868C129.103 107.775 129.116 107.397 129.134 104.036C129.153 99.9507 129.128 99.4246 128.836 98.5332C128.444 97.3137 127.885 96.7381 126.753 96.41C126.063 96.2057 125.08 96.15 124.514 96.28Z" fill="black"></path>
  <path d="M135.147 96.2797C133.53 96.6511 132.423 97.7282 131.82 99.5047C131.491 100.477 131.416 100.953 131.416 102.166C131.416 103.417 131.522 104.067 131.913 105.144C132.398 106.499 133.418 107.552 134.656 107.985C135.358 108.226 136.384 108.27 137.062 108.084C137.559 107.948 138.25 107.626 138.548 107.391C138.641 107.317 138.753 107.273 138.809 107.292C139.021 107.372 138.859 108.48 138.567 108.982C138.386 109.285 138.007 109.638 137.684 109.805C137.087 110.108 135.719 110.145 135.054 109.879C134.662 109.718 133.972 109.279 133.754 109.044C133.667 108.957 133.567 108.883 133.524 108.883C133.449 108.883 132.796 109.724 132.448 110.269C132.094 110.832 132.193 111.024 133.145 111.606C134.761 112.597 136.894 112.807 138.79 112.17C139.437 111.953 139.76 111.792 140.264 111.439C141.234 110.752 141.831 109.632 142.018 108.14C142.055 107.818 142.08 105.54 142.08 102.135C142.08 97.5115 142.067 96.6325 141.993 96.5335C141.912 96.4221 141.819 96.4097 140.625 96.4097C139.574 96.4097 139.331 96.4282 139.257 96.5025C139.207 96.552 139.139 96.7687 139.114 96.9854L139.064 97.3753L138.71 97.103C138.2 96.7068 137.883 96.5335 137.385 96.3787C136.832 96.2054 135.694 96.1559 135.147 96.2797ZM137.883 98.8981C138.274 99.0404 138.728 99.4799 138.828 99.8142C138.884 99.9875 138.909 100.767 138.909 102.303C138.915 104.308 138.902 104.568 138.809 104.772C138.554 105.311 137.584 105.775 136.863 105.707C135.221 105.552 134.345 104.054 134.556 101.745C134.699 100.192 135.209 99.2757 136.148 98.8795C136.471 98.7433 136.583 98.7309 137.043 98.7557C137.335 98.7681 137.709 98.83 137.883 98.8981Z" fill="black"></path>
  <path d="M164.731 96.2798C162.623 96.6821 161.218 98.0006 160.584 100.173C160.354 100.953 160.298 101.374 160.298 102.278C160.298 103.188 160.435 103.974 160.733 104.822C161.212 106.165 162.12 107.112 163.481 107.682C165.316 108.456 167.144 108.406 168.928 107.546C169.376 107.329 169.619 107.162 169.998 106.797C170.508 106.32 170.601 106.165 170.514 106.004C170.483 105.949 170.159 105.577 169.786 105.169L169.121 104.432L168.692 104.785C167.921 105.435 167.324 105.664 166.423 105.664C164.992 105.664 164.029 105.02 163.649 103.801C163.581 103.59 163.531 103.386 163.531 103.336C163.531 103.268 164.109 103.25 167.113 103.237C170.576 103.219 170.694 103.213 170.781 103.101C170.899 102.934 170.899 101.442 170.775 100.65C170.427 98.3534 169.196 96.8864 167.2 96.3726C166.534 96.2055 165.372 96.1622 164.731 96.2798ZM166.733 98.9353C167.374 99.2572 167.697 99.7957 167.747 100.6L167.778 101.083H165.683H163.587L163.624 100.848C163.705 100.353 163.736 100.235 163.873 99.9319C164.109 99.3995 164.588 98.9539 165.092 98.7991C165.21 98.762 165.558 98.7434 165.863 98.7558C166.317 98.7682 166.485 98.8053 166.733 98.9353Z" fill="black"></path>
  <path d="M114.391 96.4221L113.16 96.4406L113.104 96.6016C113.067 96.7006 113.042 98.8548 113.042 102.216C113.042 107.063 113.054 107.694 113.141 107.818C113.235 107.954 113.26 107.954 114.621 107.954C115.797 107.954 116.027 107.942 116.089 107.861C116.213 107.713 116.207 96.6511 116.083 96.5335C115.958 96.4159 115.765 96.4035 114.391 96.4221Z" fill="black"></path>
  <path d="M172.267 96.4346C172.155 96.5398 172.385 97.4993 173.952 103.584C174.313 104.983 174.649 106.37 174.699 106.679C174.829 107.484 174.96 107.744 175.314 107.899C175.575 108.01 175.706 108.022 176.564 108.004C177.745 107.979 177.733 107.991 178.019 106.995C178.311 105.986 179.835 100.997 179.859 100.966C179.872 100.953 179.915 101.021 179.953 101.12C180.121 101.535 181.613 106.531 181.681 106.908C181.818 107.639 182.123 107.985 182.651 108.029C182.906 108.047 184.293 107.967 184.523 107.923C184.591 107.905 184.685 107.824 184.722 107.738C184.79 107.589 185.891 103.374 186.998 99.0406C187.284 97.9016 187.532 96.8431 187.545 96.6946L187.563 96.416L186.289 96.4098C184.834 96.4036 184.66 96.4346 184.56 96.7627C184.523 96.8741 184.405 97.4126 184.299 97.9573C184.063 99.152 183.248 103.052 183.205 103.2C183.143 103.398 182.999 103.318 182.931 103.046C182.888 102.903 182.539 101.678 182.154 100.328C181.762 98.9787 181.414 97.6973 181.377 97.4807C181.265 96.8803 181.109 96.577 180.854 96.4717C180.593 96.3603 179.163 96.3417 178.933 96.447C178.722 96.5398 178.678 96.6389 178.392 97.654C178 99.0592 176.763 103.275 176.726 103.336C176.639 103.485 176.471 102.804 175.868 99.8577C175.364 97.3817 175.19 96.6327 175.097 96.5398C174.985 96.4284 174.873 96.416 173.635 96.4098C172.895 96.4036 172.28 96.416 172.267 96.4346Z" fill="black"></path>
  <path d="M35.8459 96.54C34.478 96.6452 33.3276 96.7752 33.1535 96.8495C33.0416 96.8928 32.9297 96.9981 32.8924 97.0971C32.8489 97.2023 32.8302 99.0655 32.8426 102.513C32.8613 107.205 32.8737 107.775 32.9608 107.862C33.0416 107.948 33.2593 107.961 34.422 107.961C35.6345 107.954 35.7899 107.942 35.8646 107.849C35.9205 107.769 35.9392 106.803 35.9392 103.529C35.9392 99.4555 35.9454 99.3007 36.0573 99.2017C36.2376 99.0346 37.5869 98.9912 38.358 99.1274C39.5767 99.3379 40.1363 99.8702 40.3788 101.04C40.4596 101.43 40.4783 102.024 40.4783 104.599C40.4783 107.484 40.4845 107.701 40.5902 107.831C40.6959 107.961 40.7394 107.967 41.9457 107.967C42.6359 107.967 43.2577 107.948 43.3261 107.93C43.4007 107.905 43.4815 107.818 43.5002 107.744C43.5188 107.67 43.5251 105.992 43.5126 104.018C43.4877 100.557 43.4815 100.415 43.3509 99.9383C42.8162 97.9947 41.554 96.9981 39.1725 96.6576C38.5321 96.5648 36.4677 96.4905 35.8459 96.54Z" fill="black"></path>
  <path d="M53.5612 96.5954C52.9456 96.7006 52.7342 96.7811 52.6845 96.9173C52.6161 97.0906 52.9705 98.9971 53.0886 99.1085C53.1135 99.1333 53.3436 99.0962 53.5985 99.0281C54.183 98.8733 55.5385 98.8114 56.0297 98.9104C56.8256 99.0776 57.5282 99.5728 58.007 100.297C58.4547 100.978 58.5418 101.3 58.5418 102.228C58.5418 102.903 58.5169 103.101 58.3987 103.466C58.0878 104.389 57.6091 105.026 56.9624 105.373C56.1665 105.806 54.9789 105.905 53.754 105.639C53.3809 105.552 53.0638 105.497 53.0513 105.503C53.0016 105.559 52.6658 107.453 52.6782 107.614C52.7031 107.849 52.8399 107.917 53.5985 108.053C54.4131 108.202 56.0235 108.202 56.8629 108.053C59.4496 107.589 60.9294 106.301 61.601 103.931C61.6942 103.602 61.7129 103.305 61.7129 102.352C61.7067 101.325 61.6942 101.108 61.5637 100.65C61.2776 99.5852 60.861 98.8485 60.1833 98.1924C59.462 97.4867 58.5604 96.9915 57.4661 96.7068C56.9189 96.5582 56.7323 96.5459 55.4639 96.5273C54.4628 96.5149 53.9218 96.5335 53.5612 96.5954Z" fill="black"></path>
  <path d="M70.6043 96.54C70.5359 96.5524 70.3245 96.5957 70.138 96.6328C69.2923 96.8062 68.5026 97.3137 67.6135 98.267L66.9979 98.9232L66.7057 97.8832C66.4942 97.128 66.3761 96.8124 66.2766 96.7319C66.1585 96.639 65.9968 96.6267 64.946 96.6267H63.7459L63.7086 96.7752C63.6837 96.8743 63.9511 97.7532 64.5418 99.4988C65.0206 100.916 65.4123 102.167 65.4123 102.278C65.4123 102.383 65.288 102.934 65.1325 103.498C64.7781 104.791 64.1128 107.855 64.175 107.917C64.1874 107.93 64.8465 107.954 65.63 107.961C66.6746 107.973 67.0974 107.961 67.1969 107.905C67.371 107.806 67.4145 107.657 67.6881 106.066C68.5213 101.213 69.0125 99.8455 70.1131 99.3131C70.4115 99.1708 70.5048 99.1522 70.8903 99.1769C71.4562 99.2203 71.7733 99.4245 72.022 99.9074C72.3329 100.52 72.3888 100.984 72.4199 103.176C72.4448 104.692 72.4324 105.194 72.3764 105.262C72.3142 105.336 72.0842 105.355 71.1328 105.355C69.5659 105.355 69.6716 105.256 69.6654 106.655C69.6592 107.54 69.6778 107.738 69.7587 107.837C69.8519 107.954 69.9701 107.954 72.5754 107.967C74.677 107.967 75.3175 107.954 75.3921 107.893C75.4729 107.824 75.4854 107.428 75.4854 104.921C75.4854 103.33 75.4543 101.74 75.4232 101.387C75.1558 98.7932 74.0179 97.128 72.1961 96.6576C71.7919 96.5586 70.8406 96.4843 70.6043 96.54Z" fill="black"></path>
  <path d="M81.2685 96.5458C80.2052 96.6077 78.9243 96.7625 78.8 96.8491C78.6321 96.9544 78.6321 96.9667 78.744 98.1614C78.8 98.7928 78.8497 99.0775 78.9181 99.1456C79.0052 99.2261 79.1233 99.2261 80.0747 99.1333C81.4115 98.9971 83.4572 99.028 84.0355 99.189C85.2418 99.5232 85.9195 100.142 86.2242 101.182C86.3112 101.498 86.3299 101.968 86.361 104.655C86.3921 107.459 86.4107 107.775 86.504 107.867C86.5973 107.96 86.7714 107.973 87.9341 107.966C89.1155 107.96 89.2648 107.948 89.3332 107.855C89.3953 107.768 89.414 107.063 89.414 104.611C89.414 100.724 89.3705 100.297 88.8419 99.2261C88.2512 98.0252 86.8833 97.0782 85.2791 96.7563C84.2096 96.5458 82.6738 96.4654 81.2685 96.5458Z" fill="black"></path>
  <path d="M46.9394 96.7563C46.8275 96.8677 46.8213 97.0535 46.8213 102.309C46.8213 107.502 46.8275 107.756 46.9332 107.849C47.0327 107.942 47.2317 107.954 48.3944 107.954C49.5323 107.954 49.7499 107.942 49.8308 107.855C49.8867 107.806 49.9303 107.713 49.9303 107.657C49.9365 107.601 49.9365 105.144 49.9365 102.197C49.9303 96.9173 49.9303 96.843 49.8059 96.7378C49.7002 96.6511 49.5012 96.6387 48.3696 96.6387C47.1633 96.6387 47.0451 96.6511 46.9394 96.7563Z" fill="black"></path>
  <path d="M78.9053 102.185L78.7686 102.29L78.7748 105.045C78.781 107.261 78.7996 107.812 78.868 107.88C78.9302 107.942 79.2536 107.96 80.3106 107.96C81.5355 107.96 81.6785 107.954 81.7469 107.855C81.8091 107.769 81.8278 107.143 81.8278 105.033C81.8278 102.402 81.8216 102.315 81.7034 102.198C81.5853 102.08 81.4982 102.074 80.3106 102.074C79.1914 102.074 79.0297 102.086 78.9053 102.185Z" fill="black"></path>
</svg>
