<?xml version="1.0" encoding="UTF-8"?>
<svg xmlns="http://www.w3.org/2000/svg" version="1.2" viewBox="0 0 150 30" width="150" height="30">
  <title>logo-svg</title>
  <style>
		.s0 { fill: #00A651 } 
		.s1 { fill: #00A651;stroke: #00A651;stroke-width: .7 } 
	</style>
  <path id="Layer" fill-rule="evenodd" class="s0" d="m36.3 25v-16.7h5.5q2.7 0 4.7 1.1 2 1.1 3.1 3 1.1 1.8 1.1 4.3 0 2.4-1.1 4.3-1.1 1.9-3.1 3-2 1-4.7 1zm3.5-3h2q1.7 0 2.9-0.6 1.2-0.7 1.8-1.9 0.7-1.2 0.7-2.8 0-1.7-0.7-2.9-0.6-1.1-1.8-1.8-1.2-0.6-2.9-0.6h-2z"></path>
  <path id="Layer" class="s0" d="m52.7 12.8h3.4v12.2h-3.4zm0-4.4h3.4v3.3h-3.4z"></path>
  <path id="Layer" class="s0" d="m64.6 25.3q-1.8 0-3.3-0.8-1.5-0.9-2.4-2.3-0.8-1.5-0.8-3.3 0-1.8 0.8-3.3 0.9-1.4 2.4-2.2 1.5-0.9 3.3-0.9 1.4 0 2.6 0.5 1.2 0.5 2 1.3 0.8 0.8 1.2 2l-2.9 1.2q-0.4-0.9-1.1-1.4-0.8-0.6-1.8-0.6-0.8 0-1.5 0.5-0.7 0.4-1.1 1.2-0.4 0.7-0.4 1.7 0 1 0.4 1.8 0.4 0.7 1.1 1.1 0.7 0.5 1.5 0.5 1.1 0 1.8-0.6 0.7-0.5 1.1-1.4l2.9 1.3q-0.3 1-1.2 1.9-0.8 0.8-2 1.3-1.2 0.5-2.6 0.5z"></path>
  <path id="Layer" class="s0" d="m78.3 25.2q-2.2 0-3.4-1.2-1.3-1.2-1.3-3.4v-4.9h-2v-2.9h0.1q0.9 0 1.4-0.5 0.5-0.4 0.5-1.4v-0.9h3.4v2.8h2.9v2.9h-2.9v4.7q0 0.6 0.3 1 0.2 0.4 0.7 0.6 0.4 0.2 1.1 0.2 0.2 0 0.4 0 0.2 0 0.4 0v2.8q-0.3 0.1-0.8 0.1-0.4 0.1-0.8 0.1z"></path>
  <path id="Layer" class="s0" d="m81.9 12.8h3.4v12.2h-3.4zm0-4.4h3.4v3.3h-3.4z"></path>
  <path id="Layer" fill-rule="evenodd" class="s0" d="m93.9 25.3q-1.8 0-3.4-0.8-1.4-0.9-2.3-2.3-0.9-1.5-0.9-3.3 0-1.9 0.9-3.3 0.9-1.4 2.3-2.2 1.6-0.9 3.4-0.9 1.8 0 3.3 0.9 1.5 0.8 2.4 2.2 0.9 1.4 0.9 3.3 0 1.8-0.9 3.3-0.9 1.4-2.4 2.3-1.5 0.8-3.3 0.8zm0-3q0.9 0 1.6-0.5 0.7-0.4 1.1-1.1 0.4-0.8 0.4-1.8 0-1-0.4-1.7-0.4-0.8-1.1-1.2-0.7-0.5-1.6-0.5-0.9 0-1.6 0.5-0.7 0.4-1.1 1.2-0.4 0.7-0.4 1.7 0 1 0.4 1.8 0.4 0.7 1.1 1.1 0.7 0.5 1.6 0.5z"></path>
  <path id="Layer" class="s0" d="m102.5 25v-12.2h3.1v2.4l-0.1-0.5q0.4-1.1 1.3-1.6 1-0.6 2.3-0.6 1.4 0 2.4 0.6 1.1 0.6 1.7 1.6 0.6 1.1 0.6 2.5v7.8h-3.4v-7.1q0-0.7-0.3-1.3-0.3-0.5-0.8-0.8-0.5-0.3-1.2-0.3-0.6 0-1.1 0.3-0.6 0.3-0.9 0.8-0.2 0.6-0.2 1.3v7.1z"></path>
  <path id="Layer" class="s0" d="m119.8 25.3q-1.3 0-2.3-0.4-1-0.5-1.5-1.2-0.5-0.8-0.5-1.9 0-1.1 0.5-1.9 0.5-0.8 1.4-1.3 1-0.5 2.5-0.8l3.8-0.6v2.5l-3.2 0.6q-0.7 0.1-1.1 0.4-0.4 0.3-0.4 0.9 0 0.6 0.4 0.9 0.5 0.3 1.1 0.3 0.8 0 1.5-0.3 0.6-0.4 0.9-1 0.4-0.6 0.4-1.4v-3.1q0-0.7-0.6-1.2-0.5-0.5-1.5-0.5-0.9 0-1.6 0.5-0.6 0.5-0.9 1.3l-2.8-1.3q0.4-1 1.2-1.7 0.8-0.8 1.9-1.2 1.1-0.4 2.4-0.4 1.6 0 2.8 0.6 1.2 0.5 1.8 1.6 0.7 0.9 0.7 2.3v8h-3.2v-1.9l0.8-0.2q-0.5 0.8-1.2 1.4-0.7 0.5-1.5 0.7-0.8 0.3-1.8 0.3z"></path>
  <path id="Layer" class="s0" d="m129.2 25v-12.2h3.1v2.9l-0.2-0.4q0.4-1.5 1.3-2.1 1-0.5 2.3-0.5h0.7v2.9h-1.1q-1.2 0-2 0.7-0.7 0.8-0.7 2.1v6.6z"></path>
  <path id="Layer" class="s0" d="m139.8 30q-0.5 0-1-0.1-0.5-0.1-0.9-0.3v-2.7q0.3 0.1 0.7 0.1 0.4 0.1 0.8 0.1 1 0 1.4-0.5 0.5-0.5 0.7-1.1l0.9-1.9-0.1 2.8-5.4-13.6h3.6l3.6 9.7h-1.3l3.6-9.7h3.6l-5.3 13.4q-0.5 1.2-1.2 2.1-0.7 0.8-1.7 1.3-0.9 0.4-2 0.4z"></path>
  <path id="Layer" fill-rule="evenodd" class="s1" d="m10.8 10.2v0.1q0 0-0.1 0-0.1 0.1-0.3 0.3c-0.9 0.9-3 3.1-3.9 5.7-0.5 1.3-0.6 3.1-0.3 4.2 0.5 1.3 1.3 2.2 2.3 2.7 0.9 0.5 2.1 0.7 3.4 0.7 1.3 0 2.2-0.2 3.1-0.5 0.9-0.4 1.7-0.9 2.6-1.7 1.4-1.1 2.6-2.5 3.4-3.6 0.4-0.6 0.7-1.1 0.9-1.5q0-0.1 0.1-0.2c-0.9-0.1-1.5-0.5-2-1-0.5-0.5-0.7-1.2-0.7-1.9 0-0.7 0.4-1.5 0.8-2.2 0.5-0.7 1.2-1.3 2-1.2 0.5 0.1 0.8 0.5 0.9 0.9 0.2 0.5 0.2 1.1 0.2 1.7 0 0.5 0 1.1 0 1.5q-0.1 0.3-0.1 0.5 0 0 0 0c0.4 0 0.7 0 1.3-0.1h0.3v0.2h-0.2c0.2 0 0.2 0.1 0.2 0.1q0 0 0 0 0 0.1 0 0.2c-0.1 0.2-0.1 0.4-0.3 0.6-0.3 0.4-0.8 0.8-1.8 0.8q0 0-0.1 0 0 0.2-0.2 0.6c-0.2 0.6-0.6 1.3-1 2.1-0.9 1.6-2.2 3.6-3.9 5-2.3 1.7-4.3 1.7-5.5 1.7-2.2 0-4-0.4-5.3-1.3-1.4-1-2.1-2.6-2.2-4.8-0.2-1.9 1-4 2.2-5.7 1.3-1.8 2.8-3.2 3.5-3.9q0 0 0 0 0 0 0 0 0.2-0.1 0.3-0.2 0.1-0.1 0.1-0.1l0.2 0.1-0.2-0.1zm11.7 4.1c0-0.3 0-0.6-0.1-1-0.1-0.4-0.2-0.8-0.3-1.1q-0.1-0.2-0.2-0.4-0.1-0.1-0.2-0.1c-0.3-0.1-0.6 0-0.8 0.3-0.3 0.4-0.5 0.9-0.5 1.4q0 0.7 0.7 1c0.3 0.1 0.6 0.2 0.8 0.2 0.2 0.1 0.4 0.1 0.7 0.1q0 0 0 0 0-0.2-0.1-0.4zm-0.8-9.3c0-0.5 0.4-0.8 0.8-0.8 0.5 0 0.9 0.3 0.9 0.8 0 0.5-0.4 0.9-0.9 0.9-0.4 0-0.8-0.4-0.8-0.9zm2.4 0c0-0.5 0.3-0.8 0.8-0.8 0.5 0 0.8 0.3 0.8 0.8 0 0.5-0.3 0.9-0.8 0.9-0.5 0-0.8-0.4-0.8-0.9zm-13.7 5.5zm0 0z"></path>
</svg>
