<svg width="1670" height="1925" viewBox="0 0 1670 1925" fill="none" xmlns="http://www.w3.org/2000/svg">
<path fill-rule="evenodd" clip-rule="evenodd" d="M0 40C0 17.9086 17.9086 0 40 0H1630C1652.09 0 1670 17.9086 1670 40V1884.94C1670 1907.03 1652.09 1924.94 1630 1924.94H40C17.9086 1924.94 0 1907.03 0 1884.94V40Z" fill="url(#paint0_radial_339_2140)"/>
<mask id="mask0_339_2140" style="mask-type:alpha" maskUnits="userSpaceOnUse" x="0" y="0" width="1670" height="1925">
<path fill-rule="evenodd" clip-rule="evenodd" d="M0 40C0 17.9086 17.9086 0 40 0H1630C1652.09 0 1670 17.9086 1670 40V1884.94C1670 1907.03 1652.09 1924.94 1630 1924.94H40C17.9086 1924.94 0 1907.03 0 1884.94V40Z" fill="white"/>
</mask>
<g mask="url(#mask0_339_2140)">
</g>
<rect x="53" y="108" width="590" height="589" rx="40"/>
<rect x="696" y="130" width="243" height="243" rx="40"/>
<rect x="1170" y="130" width="446" height="446" rx="40"/>
<rect x="770" y="420" width="428" height="427" rx="40"/>
<path d="M757.431 1090.25V1105.65H778.111V1115.42H757.431V1131.7H780.751V1141.73H745.111V1080.22H780.751V1090.25H757.431ZM818.963 1092.27C824.771 1092.27 829.464 1094.12 833.043 1097.82C836.622 1101.45 838.411 1106.56 838.411 1113.13V1141.73H826.091V1114.8C826.091 1110.93 825.123 1107.97 823.187 1105.91C821.251 1103.8 818.611 1102.74 815.267 1102.74C811.864 1102.74 809.166 1103.8 807.171 1105.91C805.235 1107.97 804.267 1110.93 804.267 1114.8V1141.73H791.947V1092.98H804.267V1099.05C805.91 1096.94 807.992 1095.29 810.515 1094.12C813.096 1092.89 815.912 1092.27 818.963 1092.27ZM869.223 1092.18C872.86 1092.18 876.057 1092.92 878.815 1094.38C881.572 1095.79 883.743 1097.64 885.327 1099.93V1092.98H897.735V1142.08C897.735 1146.6 896.825 1150.62 895.007 1154.14C893.188 1157.71 890.46 1160.53 886.823 1162.58C883.185 1164.7 878.785 1165.75 873.623 1165.75C866.7 1165.75 861.009 1164.14 856.551 1160.91C852.151 1157.69 849.657 1153.29 849.071 1147.71H861.303C861.948 1149.94 863.327 1151.7 865.439 1152.99C867.609 1154.34 870.22 1155.02 873.271 1155.02C876.849 1155.02 879.753 1153.93 881.983 1151.76C884.212 1149.65 885.327 1146.42 885.327 1142.08V1134.51C883.743 1136.8 881.543 1138.71 878.727 1140.23C875.969 1141.76 872.801 1142.52 869.223 1142.52C865.116 1142.52 861.361 1141.46 857.959 1139.35C854.556 1137.24 851.857 1134.28 849.863 1130.46C847.927 1126.59 846.959 1122.16 846.959 1117.18C846.959 1112.25 847.927 1107.88 849.863 1104.06C851.857 1100.25 854.527 1097.32 857.871 1095.26C861.273 1093.21 865.057 1092.18 869.223 1092.18ZM885.327 1117.35C885.327 1114.36 884.74 1111.81 883.567 1109.7C882.393 1107.53 880.809 1105.88 878.815 1104.77C876.82 1103.59 874.679 1103.01 872.391 1103.01C870.103 1103.01 867.991 1103.57 866.055 1104.68C864.119 1105.79 862.535 1107.44 861.303 1109.61C860.129 1111.72 859.543 1114.24 859.543 1117.18C859.543 1120.11 860.129 1122.69 861.303 1124.92C862.535 1127.09 864.119 1128.76 866.055 1129.94C868.049 1131.11 870.161 1131.7 872.391 1131.7C874.679 1131.7 876.82 1131.14 878.815 1130.02C880.809 1128.85 882.393 1127.21 883.567 1125.1C884.74 1122.93 885.327 1120.34 885.327 1117.35ZM922.087 1076.61V1141.73H909.767V1076.61H922.087ZM940.508 1087.17C938.337 1087.17 936.518 1086.49 935.052 1085.14C933.644 1083.74 932.94 1082.01 932.94 1079.95C932.94 1077.9 933.644 1076.2 935.052 1074.85C936.518 1073.44 938.337 1072.74 940.508 1072.74C942.678 1072.74 944.468 1073.44 945.876 1074.85C947.342 1076.2 948.076 1077.9 948.076 1079.95C948.076 1082.01 947.342 1083.74 945.876 1085.14C944.468 1086.49 942.678 1087.17 940.508 1087.17ZM946.58 1092.98V1141.73H934.26V1092.98H946.58ZM977.408 1142.52C973.418 1142.52 969.84 1141.82 966.672 1140.41C963.504 1138.94 960.981 1136.98 959.104 1134.51C957.285 1132.05 956.288 1129.32 956.112 1126.33H968.52C968.754 1128.21 969.664 1129.76 971.248 1130.99C972.89 1132.22 974.914 1132.84 977.32 1132.84C979.666 1132.84 981.485 1132.37 982.776 1131.43C984.125 1130.49 984.8 1129.29 984.8 1127.82C984.8 1126.24 983.978 1125.07 982.336 1124.3C980.752 1123.48 978.2 1122.6 974.68 1121.66C971.042 1120.78 968.05 1119.87 965.704 1118.94C963.416 1118 961.421 1116.56 959.72 1114.62C958.077 1112.69 957.256 1110.08 957.256 1106.79C957.256 1104.09 958.018 1101.63 959.544 1099.4C961.128 1097.17 963.357 1095.41 966.232 1094.12C969.165 1092.83 972.597 1092.18 976.528 1092.18C982.336 1092.18 986.97 1093.65 990.432 1096.58C993.893 1099.46 995.8 1103.36 996.152 1108.29H984.36C984.184 1106.35 983.362 1104.83 981.896 1103.71C980.488 1102.54 978.581 1101.95 976.176 1101.95C973.946 1101.95 972.216 1102.36 970.984 1103.18C969.81 1104.01 969.224 1105.15 969.224 1106.62C969.224 1108.26 970.045 1109.52 971.688 1110.4C973.33 1111.22 975.882 1112.07 979.344 1112.95C982.864 1113.83 985.768 1114.74 988.056 1115.68C990.344 1116.62 992.309 1118.09 993.952 1120.08C995.653 1122.02 996.533 1124.6 996.592 1127.82C996.592 1130.64 995.8 1133.16 994.216 1135.39C992.69 1137.62 990.461 1139.38 987.528 1140.67C984.653 1141.9 981.28 1142.52 977.408 1142.52ZM1034.16 1092.27C1037.86 1092.27 1041.14 1093.09 1044.02 1094.74C1046.89 1096.32 1049.12 1098.7 1050.7 1101.86C1052.35 1104.97 1053.17 1108.73 1053.17 1113.13V1141.73H1040.85V1114.8C1040.85 1110.93 1039.88 1107.97 1037.94 1105.91C1036.01 1103.8 1033.37 1102.74 1030.02 1102.74C1026.62 1102.74 1023.92 1103.8 1021.93 1105.91C1019.99 1107.97 1019.02 1110.93 1019.02 1114.8V1141.73H1006.7V1076.61H1019.02V1099.05C1020.61 1096.94 1022.72 1095.29 1025.36 1094.12C1028 1092.89 1030.93 1092.27 1034.16 1092.27Z" fill="white"/>
<path d="M493.365 1673.07V1654.15H513.253V1673.07H493.365ZM462.477 1673.07V1654.15H482.277V1673.07H462.477ZM493.365 1643.86V1628.63H482.277V1643.86H451.917V1688.21H462.477V1683.37H482.277V1710.82H493.365V1683.37H513.253V1687.77H524.253V1643.86H493.365ZM591.221 1652.74C587.437 1662.69 582.421 1670.96 576.085 1677.82C569.309 1670.7 564.117 1662.25 560.333 1652.74H591.221ZM616.213 1652.74V1642.54H581.277V1628.63H570.629V1642.54H536.133V1652.74H548.717C553.469 1665.59 559.541 1676.59 567.461 1685.66C558.573 1692.43 547.573 1697.45 534.549 1700.88C536.661 1703.43 539.917 1708.36 541.149 1711.09C554.525 1706.86 565.877 1701.14 575.469 1693.49C584.709 1701.32 596.149 1707.22 610.317 1710.82C611.901 1707.83 615.245 1702.9 617.797 1700.35C604.421 1697.36 593.333 1692.17 584.269 1685.22C592.365 1676.42 598.789 1665.77 603.541 1652.74H616.213Z" fill="white"/>
<path d="M275.15 1392.11C268.521 1392.11 263.153 1390.79 259.046 1388.15C254.94 1385.45 252.886 1381.58 252.886 1376.54C252.886 1373.78 253.59 1371.31 254.998 1369.14C256.465 1366.91 258.753 1365.1 261.862 1363.69V1341.6H316.334V1351.02H299.702V1360.61C304.865 1360.84 309.441 1361.72 313.43 1363.25C317.42 1364.77 320.529 1367.12 322.758 1370.29C325.046 1373.4 326.19 1377.47 326.19 1382.52C326.19 1386.51 325.34 1389.88 323.638 1392.64C321.996 1395.46 319.62 1397.89 316.51 1399.94C313.636 1401.94 309.822 1403.43 305.07 1404.43C300.318 1405.43 294.364 1405.93 287.206 1405.93H280.342C276.764 1405.93 274.212 1406.07 272.686 1406.37C271.22 1406.72 270.017 1407.22 269.078 1407.86C268.14 1408.57 267.406 1409.45 266.878 1410.5C266.35 1411.62 266.086 1413.11 266.086 1414.99C266.086 1416.22 266.174 1417.46 266.35 1418.69L253.502 1419.3C253.326 1418.07 253.18 1416.84 253.062 1415.61C253.004 1414.43 252.974 1413.14 252.974 1411.74C252.974 1409.1 253.502 1406.78 254.558 1404.78C255.614 1402.85 257.022 1401.26 258.782 1400.03C259.956 1399.21 261.276 1398.54 262.742 1398.01C264.209 1397.48 266.028 1397.1 268.198 1396.86C270.369 1396.63 273.068 1396.51 276.294 1396.51H284.214C289.318 1396.51 293.513 1396.31 296.798 1395.9C300.084 1395.54 302.724 1394.96 304.718 1394.14C306.772 1393.31 308.444 1392.23 309.734 1390.88C312.081 1388.53 313.254 1385.39 313.254 1381.46C313.254 1378.65 312.609 1376.42 311.318 1374.78C310.028 1373.13 308.356 1371.93 306.302 1371.17C304.249 1370.35 302.049 1369.82 299.702 1369.58V1369.94C299.702 1374.04 299.292 1377.3 298.47 1379.7C297.708 1382.05 296.593 1384.04 295.126 1385.69C293.014 1388.03 290.257 1389.71 286.854 1390.7C283.452 1391.64 279.55 1392.11 275.15 1392.11ZM273.654 1351.02V1360.87C276.001 1360.64 278.553 1360.52 281.31 1360.52H286.942V1351.02H273.654ZM265.822 1376.27C265.822 1378.44 266.732 1380.06 268.55 1381.11C270.428 1382.17 272.921 1382.7 276.03 1382.7C278.318 1382.7 280.254 1382.34 281.838 1381.64C283.481 1380.94 284.742 1379.67 285.622 1377.86C286.502 1375.98 286.942 1373.4 286.942 1370.11V1369.41H279.638C277.585 1369.41 275.62 1369.52 273.742 1369.76C271.924 1369.94 270.369 1370.35 269.078 1370.99C266.908 1372.11 265.822 1373.87 265.822 1376.27ZM384.368 1340.54C389.824 1340.54 394.253 1341.72 397.656 1344.06C401.059 1346.35 403.552 1349.52 405.136 1353.57C406.779 1357.62 407.6 1362.19 407.6 1367.3C407.6 1371.75 407.072 1375.48 406.016 1378.47C405.019 1381.46 403.405 1383.9 401.176 1385.78C399.592 1387.12 397.803 1388.18 395.808 1388.94C393.813 1389.71 391.408 1390.26 388.592 1390.62C385.835 1390.91 382.403 1391.06 378.296 1391.06H336.496V1341.6H349.608V1381.64H365.8V1359.82C365.8 1356.18 366.181 1353.22 366.944 1350.93C367.765 1348.64 368.939 1346.73 370.464 1345.21C373.691 1342.1 378.325 1340.54 384.368 1340.54ZM385.248 1349.96C384.485 1349.96 383.723 1350.08 382.96 1350.31C382.256 1350.55 381.611 1350.96 381.024 1351.54C380.261 1352.31 379.704 1353.36 379.352 1354.71C379.059 1356 378.912 1358.14 378.912 1361.14V1381.64H382.256C385.365 1381.64 387.8 1381.2 389.56 1380.32C391.379 1379.38 392.64 1377.86 393.344 1375.74C394.107 1373.63 394.488 1370.82 394.488 1367.3C394.488 1364.07 394.195 1361.16 393.608 1358.58C393.021 1355.94 392.053 1353.86 390.704 1352.34C389.355 1350.75 387.536 1349.96 385.248 1349.96ZM404.656 1316.17C409.291 1316.17 413.251 1316.84 416.536 1318.19C419.88 1319.48 422.549 1321.15 424.544 1323.21C425.893 1324.62 427.125 1326.38 428.24 1328.49C429.355 1330.54 430.235 1333.27 430.88 1336.67C431.584 1340.02 431.936 1344.39 431.936 1349.78V1391.06H418.824V1353.22C418.824 1348.7 418.677 1344.91 418.384 1341.86C418.091 1338.75 417.563 1336.17 416.8 1334.12C416.037 1332.01 414.952 1330.25 413.544 1328.84C412.429 1327.72 411.168 1326.87 409.76 1326.29C408.352 1325.7 406.739 1325.41 404.92 1325.41C402.397 1325.41 400.403 1325.88 398.936 1326.82C397.411 1327.75 396.325 1328.96 395.68 1330.42C395.035 1331.83 394.712 1333.33 394.712 1334.91C394.712 1336.55 394.976 1338.31 395.504 1340.19C395.973 1342.01 396.707 1343.86 397.704 1345.74H384.68C383.917 1344.33 383.331 1342.66 382.92 1340.72C382.451 1338.78 382.216 1336.91 382.216 1335.09C382.216 1331.74 382.861 1328.9 384.152 1326.55C385.443 1324.15 387.173 1322.18 389.344 1320.66C391.515 1319.13 393.949 1318.02 396.648 1317.31C399.288 1316.55 401.957 1316.17 404.656 1316.17ZM459.006 1394.84C460.18 1394.84 461.382 1394.87 462.614 1394.93C463.905 1395.04 465.078 1395.22 466.134 1395.46L465.518 1404.17C464.404 1403.99 462.82 1403.9 460.766 1403.9C459.3 1403.9 458.038 1404.11 456.982 1404.52C455.985 1404.99 455.486 1405.75 455.486 1406.81C455.486 1408.22 456.278 1409.12 457.862 1409.54C459.446 1409.95 461.148 1410.15 462.966 1410.15H465.342C469.038 1410.15 472.06 1409.54 474.406 1408.3C476.753 1407.07 478.66 1405.19 480.126 1402.67C478.718 1401.44 477.574 1399.88 476.694 1398.01C475.873 1396.13 475.404 1393.81 475.286 1391.06H445.894V1341.6H459.006V1381.64H475.198V1359.82C475.198 1356.18 475.58 1353.22 476.342 1350.93C477.164 1348.64 478.337 1346.73 479.862 1345.21C483.089 1342.1 487.724 1340.54 493.766 1340.54C499.222 1340.54 503.652 1341.72 507.054 1344.06C510.457 1346.35 512.95 1349.52 514.534 1353.57C516.177 1357.62 516.998 1362.19 516.998 1367.3C516.998 1371.75 516.47 1375.48 515.414 1378.47C514.417 1381.46 512.804 1383.9 510.574 1385.78C508.99 1387.12 507.201 1388.18 505.206 1388.94C503.212 1389.71 500.836 1390.26 498.078 1390.62C495.321 1390.91 491.948 1391.06 487.958 1391.06C487.958 1392.4 488.193 1393.58 488.662 1394.58C489.19 1395.57 490.012 1396.34 491.126 1396.86C491.948 1397.27 492.886 1397.54 493.942 1397.66C494.998 1397.83 496.436 1397.92 498.254 1397.92H507.582V1407.25H491.214C489.044 1411.41 485.934 1414.46 481.886 1416.4C477.838 1418.34 472.676 1419.3 466.398 1419.3H463.142C459.974 1419.3 457.012 1418.95 454.254 1418.25C451.556 1417.54 449.414 1416.63 447.83 1415.52C446.598 1414.7 445.484 1413.55 444.486 1412.09C443.548 1410.62 443.078 1408.8 443.078 1406.63C443.078 1402.99 444.457 1400.12 447.214 1398.01C449.972 1395.9 453.902 1394.84 459.006 1394.84ZM494.646 1349.96C493.884 1349.96 493.121 1350.08 492.358 1350.31C491.654 1350.55 491.009 1350.96 490.422 1351.54C489.66 1352.31 489.102 1353.36 488.75 1354.71C488.457 1356 488.31 1358.14 488.31 1361.14V1381.64H491.654C494.764 1381.64 497.198 1381.2 498.958 1380.32C500.777 1379.38 502.038 1377.86 502.742 1375.74C503.505 1373.63 503.886 1370.82 503.886 1367.3C503.886 1364.07 503.593 1361.16 503.006 1358.58C502.42 1355.94 501.452 1353.86 500.102 1352.34C498.753 1350.75 496.934 1349.96 494.646 1349.96ZM480.126 1332.8C478.014 1332.8 476.284 1332.12 474.934 1330.78C473.585 1329.37 472.91 1327.61 472.91 1325.5C472.91 1323.38 473.585 1321.65 474.934 1320.3C476.284 1318.9 478.014 1318.19 480.126 1318.19C482.18 1318.19 483.881 1318.9 485.23 1320.3C486.58 1321.65 487.254 1323.38 487.254 1325.5C487.254 1327.61 486.58 1329.37 485.23 1330.78C483.881 1332.12 482.18 1332.8 480.126 1332.8Z" fill="white"/>
<path d="M1248.35 1405.5C1251.81 1406.14 1254.66 1407.87 1256.89 1410.69C1259.12 1413.5 1260.23 1416.73 1260.23 1420.37C1260.23 1423.65 1259.41 1426.56 1257.77 1429.08C1256.18 1431.54 1253.86 1433.48 1250.81 1434.89C1247.76 1436.3 1244.16 1437 1239.99 1437H1213.5V1375.58H1238.85C1243.01 1375.58 1246.59 1376.25 1249.58 1377.6C1252.63 1378.95 1254.92 1380.83 1256.45 1383.23C1258.03 1385.64 1258.82 1388.37 1258.82 1391.42C1258.82 1394.99 1257.85 1397.99 1255.92 1400.39C1254.04 1402.8 1251.52 1404.5 1248.35 1405.5ZM1225.82 1400.92H1237.09C1240.02 1400.92 1242.28 1400.27 1243.86 1398.98C1245.45 1397.63 1246.24 1395.73 1246.24 1393.26C1246.24 1390.8 1245.45 1388.89 1243.86 1387.54C1242.28 1386.19 1240.02 1385.52 1237.09 1385.52H1225.82V1400.92ZM1238.23 1426.97C1241.22 1426.97 1243.54 1426.26 1245.18 1424.86C1246.88 1423.45 1247.73 1421.45 1247.73 1418.87C1247.73 1416.23 1246.85 1414.18 1245.09 1412.71C1243.33 1411.19 1240.96 1410.42 1237.97 1410.42H1225.82V1426.97H1238.23ZM1266.88 1412.45C1266.88 1407.52 1267.85 1403.15 1269.78 1399.34C1271.78 1395.52 1274.45 1392.59 1277.79 1390.54C1281.2 1388.48 1284.98 1387.46 1289.14 1387.46C1292.78 1387.46 1295.95 1388.19 1298.65 1389.66C1301.41 1391.12 1303.61 1392.97 1305.25 1395.2V1388.25H1317.66V1437H1305.25V1429.87C1303.66 1432.16 1301.46 1434.07 1298.65 1435.59C1295.89 1437.06 1292.69 1437.79 1289.06 1437.79C1284.95 1437.79 1281.2 1436.74 1277.79 1434.62C1274.45 1432.51 1271.78 1429.55 1269.78 1425.74C1267.85 1421.86 1266.88 1417.43 1266.88 1412.45ZM1305.25 1412.62C1305.25 1409.63 1304.66 1407.08 1303.49 1404.97C1302.32 1402.8 1300.73 1401.15 1298.74 1400.04C1296.74 1398.87 1294.6 1398.28 1292.31 1398.28C1290.02 1398.28 1287.91 1398.84 1285.98 1399.95C1284.04 1401.07 1282.46 1402.71 1281.22 1404.88C1280.05 1406.99 1279.46 1409.51 1279.46 1412.45C1279.46 1415.38 1280.05 1417.96 1281.22 1420.19C1282.46 1422.36 1284.04 1424.03 1285.98 1425.21C1287.97 1426.38 1290.08 1426.97 1292.31 1426.97C1294.6 1426.97 1296.74 1426.41 1298.74 1425.3C1300.73 1424.12 1302.32 1422.48 1303.49 1420.37C1304.66 1418.2 1305.25 1415.62 1305.25 1412.62ZM1357.15 1387.54C1360.84 1387.54 1364.13 1388.37 1367 1390.01C1369.88 1391.59 1372.11 1393.97 1373.69 1397.14C1375.33 1400.25 1376.15 1404 1376.15 1408.4V1437H1363.83V1410.07C1363.83 1406.2 1362.87 1403.24 1360.93 1401.18C1358.99 1399.07 1356.35 1398.02 1353.01 1398.02C1349.61 1398.02 1346.91 1399.07 1344.91 1401.18C1342.98 1403.24 1342.01 1406.2 1342.01 1410.07V1437H1329.69V1371.88H1342.01V1394.32C1343.59 1392.21 1345.71 1390.57 1348.35 1389.39C1350.99 1388.16 1353.92 1387.54 1357.15 1387.54ZM1384.7 1412.45C1384.7 1407.52 1385.67 1403.15 1387.6 1399.34C1389.6 1395.52 1392.27 1392.59 1395.61 1390.54C1399.02 1388.48 1402.8 1387.46 1406.96 1387.46C1410.6 1387.46 1413.77 1388.19 1416.47 1389.66C1419.23 1391.12 1421.43 1392.97 1423.07 1395.2V1388.25H1435.48V1437H1423.07V1429.87C1421.48 1432.16 1419.28 1434.07 1416.47 1435.59C1413.71 1437.06 1410.51 1437.79 1406.88 1437.79C1402.77 1437.79 1399.02 1436.74 1395.61 1434.62C1392.27 1432.51 1389.6 1429.55 1387.6 1425.74C1385.67 1421.86 1384.7 1417.43 1384.7 1412.45ZM1423.07 1412.62C1423.07 1409.63 1422.48 1407.08 1421.31 1404.97C1420.14 1402.8 1418.55 1401.15 1416.56 1400.04C1414.56 1398.87 1412.42 1398.28 1410.13 1398.28C1407.84 1398.28 1405.73 1398.84 1403.8 1399.95C1401.86 1401.07 1400.28 1402.71 1399.04 1404.88C1397.87 1406.99 1397.28 1409.51 1397.28 1412.45C1397.28 1415.38 1397.87 1417.96 1399.04 1420.19C1400.28 1422.36 1401.86 1424.03 1403.8 1425.21C1405.79 1426.38 1407.9 1426.97 1410.13 1426.97C1412.42 1426.97 1414.56 1426.41 1416.56 1425.3C1418.55 1424.12 1420.14 1422.48 1421.31 1420.37C1422.48 1418.2 1423.07 1415.62 1423.07 1412.62ZM1466.17 1437.79C1462.18 1437.79 1458.6 1437.09 1455.43 1435.68C1452.26 1434.21 1449.74 1432.25 1447.86 1429.78C1446.04 1427.32 1445.05 1424.59 1444.87 1421.6H1457.28C1457.51 1423.48 1458.42 1425.03 1460.01 1426.26C1461.65 1427.5 1463.67 1428.11 1466.08 1428.11C1468.42 1428.11 1470.24 1427.64 1471.53 1426.7C1472.88 1425.77 1473.56 1424.56 1473.56 1423.1C1473.56 1421.51 1472.74 1420.34 1471.09 1419.58C1469.51 1418.75 1466.96 1417.87 1463.44 1416.94C1459.8 1416.06 1456.81 1415.15 1454.46 1414.21C1452.17 1413.27 1450.18 1411.83 1448.48 1409.9C1446.83 1407.96 1446.01 1405.35 1446.01 1402.06C1446.01 1399.37 1446.78 1396.9 1448.3 1394.67C1449.89 1392.44 1452.11 1390.68 1454.99 1389.39C1457.92 1388.1 1461.35 1387.46 1465.29 1387.46C1471.09 1387.46 1475.73 1388.92 1479.19 1391.86C1482.65 1394.73 1484.56 1398.63 1484.91 1403.56H1473.12C1472.94 1401.62 1472.12 1400.1 1470.65 1398.98C1469.25 1397.81 1467.34 1397.22 1464.93 1397.22C1462.7 1397.22 1460.97 1397.63 1459.74 1398.46C1458.57 1399.28 1457.98 1400.42 1457.98 1401.89C1457.98 1403.53 1458.8 1404.79 1460.45 1405.67C1462.09 1406.49 1464.64 1407.34 1468.1 1408.22C1471.62 1409.1 1474.53 1410.01 1476.81 1410.95C1479.1 1411.89 1481.07 1413.36 1482.71 1415.35C1484.41 1417.29 1485.29 1419.87 1485.35 1423.1C1485.35 1425.91 1484.56 1428.43 1482.97 1430.66C1481.45 1432.89 1479.22 1434.65 1476.29 1435.94C1473.41 1437.18 1470.04 1437.79 1466.17 1437.79ZM1492.29 1412.45C1492.29 1407.52 1493.26 1403.15 1495.2 1399.34C1497.19 1395.52 1499.86 1392.59 1503.21 1390.54C1506.61 1388.48 1510.39 1387.46 1514.56 1387.46C1518.2 1387.46 1521.36 1388.19 1524.06 1389.66C1526.82 1391.12 1529.02 1392.97 1530.66 1395.2V1388.25H1543.07V1437H1530.66V1429.87C1529.08 1432.16 1526.88 1434.07 1524.06 1435.59C1521.31 1437.06 1518.11 1437.79 1514.47 1437.79C1510.36 1437.79 1506.61 1436.74 1503.21 1434.62C1499.86 1432.51 1497.19 1429.55 1495.2 1425.74C1493.26 1421.86 1492.29 1417.43 1492.29 1412.45ZM1530.66 1412.62C1530.66 1409.63 1530.08 1407.08 1528.9 1404.97C1527.73 1402.8 1526.15 1401.15 1524.15 1400.04C1522.16 1398.87 1520.01 1398.28 1517.73 1398.28C1515.44 1398.28 1513.33 1398.84 1511.39 1399.95C1509.45 1401.07 1507.87 1402.71 1506.64 1404.88C1505.47 1406.99 1504.88 1409.51 1504.88 1412.45C1504.88 1415.38 1505.47 1417.96 1506.64 1420.19C1507.87 1422.36 1509.45 1424.03 1511.39 1425.21C1513.39 1426.38 1515.5 1426.97 1517.73 1426.97C1520.01 1426.97 1522.16 1426.41 1524.15 1425.3C1526.15 1424.12 1527.73 1422.48 1528.9 1420.37C1530.08 1418.2 1530.66 1415.62 1530.66 1412.62ZM1313.99 1471.58V1533H1301.67V1493.05L1285.21 1533H1275.88L1259.34 1493.05V1533H1247.02V1471.58H1261.01L1280.55 1517.25L1300.08 1471.58H1313.99ZM1371.49 1507.57C1371.49 1509.33 1371.37 1510.91 1371.13 1512.32H1335.49C1335.79 1515.84 1337.02 1518.6 1339.19 1520.59C1341.36 1522.59 1344.03 1523.58 1347.2 1523.58C1351.77 1523.58 1355.03 1521.62 1356.97 1517.69H1370.25C1368.85 1522.38 1366.15 1526.25 1362.16 1529.3C1358.17 1532.3 1353.27 1533.79 1347.46 1533.79C1342.77 1533.79 1338.54 1532.77 1334.79 1530.71C1331.09 1528.6 1328.19 1525.64 1326.08 1521.82C1324.02 1518.01 1323 1513.61 1323 1508.62C1323 1503.58 1324.02 1499.15 1326.08 1495.34C1328.13 1491.52 1331.01 1488.59 1334.7 1486.54C1338.4 1484.48 1342.65 1483.46 1347.46 1483.46C1352.1 1483.46 1356.23 1484.45 1359.87 1486.45C1363.57 1488.44 1366.41 1491.29 1368.41 1494.98C1370.46 1498.62 1371.49 1502.82 1371.49 1507.57ZM1358.73 1504.05C1358.67 1500.88 1357.52 1498.36 1355.29 1496.48C1353.06 1494.54 1350.34 1493.58 1347.11 1493.58C1344.06 1493.58 1341.48 1494.51 1339.37 1496.39C1337.31 1498.21 1336.05 1500.76 1335.58 1504.05H1358.73ZM1392.8 1467.88V1533H1380.48V1467.88H1392.8ZM1401.8 1508.45C1401.8 1503.52 1402.77 1499.15 1404.71 1495.34C1406.7 1491.52 1409.37 1488.59 1412.71 1486.54C1416.12 1484.48 1419.9 1483.46 1424.07 1483.46C1427.7 1483.46 1430.87 1484.19 1433.57 1485.66C1436.33 1487.12 1438.53 1488.97 1440.17 1491.2V1484.25H1452.58V1533H1440.17V1525.87C1438.59 1528.16 1436.39 1530.07 1433.57 1531.59C1430.81 1533.06 1427.62 1533.79 1423.98 1533.79C1419.87 1533.79 1416.12 1532.74 1412.71 1530.62C1409.37 1528.51 1406.7 1525.55 1404.71 1521.74C1402.77 1517.86 1401.8 1513.43 1401.8 1508.45ZM1440.17 1508.62C1440.17 1505.63 1439.58 1503.08 1438.41 1500.97C1437.24 1498.8 1435.65 1497.15 1433.66 1496.04C1431.66 1494.87 1429.52 1494.28 1427.23 1494.28C1424.95 1494.28 1422.83 1494.84 1420.9 1495.95C1418.96 1497.07 1417.38 1498.71 1416.15 1500.88C1414.97 1502.99 1414.39 1505.51 1414.39 1508.45C1414.39 1511.38 1414.97 1513.96 1416.15 1516.19C1417.38 1518.36 1418.96 1520.03 1420.9 1521.21C1422.89 1522.38 1425.01 1522.97 1427.23 1522.97C1429.52 1522.97 1431.66 1522.41 1433.66 1521.3C1435.65 1520.12 1437.24 1518.48 1438.41 1516.37C1439.58 1514.2 1440.17 1511.62 1440.17 1508.62ZM1511.25 1484.25L1481.07 1556.06H1467.96L1478.52 1531.77L1458.98 1484.25H1472.8L1485.38 1518.3L1498.14 1484.25H1511.25ZM1563.92 1484.25V1533H1551.51V1526.84C1549.92 1528.95 1547.84 1530.62 1545.26 1531.86C1542.74 1533.03 1539.98 1533.62 1536.99 1533.62C1533.17 1533.62 1529.8 1532.82 1526.87 1531.24C1523.93 1529.6 1521.62 1527.22 1519.92 1524.11C1518.27 1520.94 1517.45 1517.19 1517.45 1512.85V1484.25H1529.77V1511.09C1529.77 1514.96 1530.74 1517.95 1532.68 1520.06C1534.61 1522.12 1537.25 1523.14 1540.6 1523.14C1544 1523.14 1546.67 1522.12 1548.6 1520.06C1550.54 1517.95 1551.51 1514.96 1551.51 1511.09V1484.25H1563.92Z" fill="white"/>
<defs>
<radialGradient id="paint0_radial_339_2140" cx="0" cy="0" r="1" gradientUnits="userSpaceOnUse" gradientTransform="translate(817.863) rotate(90) scale(2504.22 2172.56)">
<stop stop-color="#C64398"/>
<stop offset="1" stop-color="#323A93"/>
</radialGradient>
</defs>
</svg>
