<svg width="64" height="52" viewBox="0 0 64 52" fill="none" xmlns="http://www.w3.org/2000/svg">
<path d="M10 0H2C0.875 0 0 1 0 2V10C0 11.125 0.875 12 2 12H10C11 12 12 11.125 12 10V2C12 1 11 0 10 0ZM10 20H2C0.875 20 0 21 0 22V30C0 31.125 0.875 32 2 32H10C11 32 12 31.125 12 30V22C12 21 11 20 10 20ZM10 40H2C0.875 40 0 41 0 42V50C0 51.125 0.875 52 2 52H10C11 52 12 51.125 12 50V42C12 41 11 40 10 40ZM62 23H22C20.875 23 20 24 20 25V27C20 28.125 20.875 29 22 29H62C63 29 64 28.125 64 27V25C64 24 63 23 62 23ZM62 43H22C20.875 43 20 44 20 45V47C20 48.125 20.875 49 22 49H62C63 49 64 48.125 64 47V45C64 44 63 43 62 43ZM62 3H22C20.875 3 20 4 20 5V7C20 8.125 20.875 9 22 9H62C63 9 64 8.125 64 7V5C64 4 63 3 62 3Z" fill="black"/>
</svg>
