<?xml version="1.0" encoding="UTF-8"?>
<svg xmlns="http://www.w3.org/2000/svg" width="120" height="60" viewBox="0 0 120 60" fill="none">
  <g clip-path="url(#clip0_1272_143)">
    <g clip-path="url(#clip1_1272_143)">
      <path d="M47.9553 21.2313C48.7332 19.398 49.1699 17.3781 49.1699 15.2627C49.1699 6.83297 42.3324 0 33.9072 0C25.482 0 18.6445 6.83297 18.6445 15.2627C18.6445 17.3827 19.0767 19.398 19.8592 21.2313H28.944C27.2335 19.8074 26.1462 17.6602 26.1462 15.2627C26.1462 10.9728 29.6219 7.49716 33.9118 7.49716C38.2017 7.49716 41.6773 10.9728 41.6773 15.2627C41.6773 17.6647 40.5901 19.8074 38.8796 21.2313H47.9644H47.9553Z" fill="white"></path>
      <path d="M19.2359 40.5298C18.8538 41.8673 18.6445 43.2775 18.6445 44.7378C18.6445 53.1676 25.4775 60.0006 33.9072 60.0006C42.337 60.0006 49.1699 53.1676 49.1699 44.7378C49.1699 43.2775 48.9607 41.8673 48.5785 40.5298H40.4309C41.2133 41.7444 41.6728 43.1865 41.6728 44.7378C41.6728 49.0278 38.1972 52.5034 33.9072 52.5034C29.6173 52.5034 26.1417 49.0278 26.1417 44.7378C26.1417 43.1865 26.5966 41.7399 27.3836 40.5298H19.2359Z" fill="white"></path>
      <path d="M14.6041 34.7065C13.7124 35.3116 12.2976 36.1759 9.56352 36.1759C5.56019 36.1759 3.97705 32.0861 3.97705 27.5323C3.97705 23.9293 4.66854 19.4074 8.90388 19.4074C12.0156 19.4074 13.5987 22.2325 13.7124 23.7019H14.5495L14.3766 18.8888C13.0528 18.4566 11.1785 18.0244 8.61728 18.0244C2.1892 18.029 0.574219 22.2916 0.574219 27.5369C0.574219 34.0196 2.82154 37.7909 9.0722 37.7909C12.0383 37.7909 13.6214 37.1267 14.6041 36.6945V34.7065Z" fill="white"></path>
      <path d="M24.5541 32.8641C24.5541 34.9659 23.4577 36.1487 21.8155 36.1487C20.6054 36.1487 20.0003 35.2252 20.0003 34.1015C20.0003 31.3947 23.4577 31.2219 24.5495 31.19V32.8596L24.5541 32.8641ZM29.8813 36.5536C29.5082 36.6673 29.1306 36.8129 28.7576 36.8129C27.8068 36.8129 27.4611 36.1805 27.4611 34.42V28.6879C27.4611 25.4034 26.3101 23.9658 22.6798 23.9658C20.3188 23.9658 17.4072 24.8575 17.4072 26.9319C17.4072 27.9419 18.2443 28.4013 19.0495 28.4013C21.6699 28.4013 19.7137 24.9439 22.5661 24.9439C24.5541 24.9439 24.5541 27.1321 24.5541 28.6879V30.13C22.7662 30.2165 16.8613 30.4758 16.8613 34.511C16.8613 36.3853 18.6492 37.7955 20.6327 37.7955C22.7662 37.7955 24.0036 36.4717 24.5814 35.8348C24.7816 36.7856 25.1273 37.7955 26.856 37.7955C28.0661 37.7955 28.9032 37.5954 29.8813 37.2769V36.5581V36.5536Z" fill="white"></path>
      <path d="M40.3078 27.851L40.1349 24.4527C39.2114 24.2207 38.2333 23.9614 36.8503 23.9614C34.1117 23.9614 31.8371 25.0851 31.8371 27.6782C31.8371 29.2613 32.4967 30.0392 33.9115 31.0219C35.6402 32.2047 38.4608 32.7506 38.4608 34.6249C38.4608 36.0943 37.1051 36.813 35.8404 36.813C33.7068 36.813 32.5832 35.057 32.5832 33.4148H31.7461L31.919 37.2725C32.5832 37.4454 34.1936 37.7911 35.9223 37.7911C39.2341 37.7911 41.1084 36.2353 41.1084 33.8742C41.1084 32.464 40.4488 31.454 39.5799 30.7944C37.792 29.4114 34.4802 28.6926 34.4802 26.8184C34.4802 25.7811 35.3718 24.9441 36.6092 24.9441C38.7428 24.9441 39.3479 26.8456 39.4616 27.8556H40.2987L40.3078 27.851Z" fill="white"></path>
      <path d="M46.1126 28.2285C46.1126 27.1048 46.6904 24.9439 48.8786 24.9439C50.8666 24.9439 51.3533 26.4133 51.3533 28.2285H46.1126ZM54.0055 36.0077C53.4596 36.2078 52.5361 36.499 51.3533 36.499C47.2636 36.499 46.1126 32.4365 46.1126 29.4113H54.2649C54.2649 26.9911 53.5142 23.9658 48.9923 23.9658C45.13 23.9658 42.9736 26.0676 42.9736 30.4167C42.9736 35.1979 45.594 37.791 50.0295 37.791C51.9584 37.791 53.4551 37.2451 54.0055 37.0404V36.0031V36.0077Z" fill="white"></path>
      <path d="M57.9363 37.5046H66.0021V36.7859C63.9868 36.7859 63.5546 36.3537 63.5546 34.1063V19.6443H64.651C67.6762 19.6443 68.3358 20.6542 68.627 22.7833H69.464L69.3185 18.3159H54.6563L54.4834 22.7833H55.3205C55.6389 20.6815 56.244 19.6443 59.2646 19.6443H60.3883V34.1063C60.3883 36.3537 59.9561 36.7859 57.9408 36.7859V37.5046H57.9363Z" fill="white"></path>
      <path d="M70.6006 37.5042H77.8293V36.8719C76.1598 36.8719 75.6684 36.3533 75.6684 34.3652V31.1398C75.6684 28.1737 76.965 26.4177 77.8566 26.4177C78.8074 26.4177 78.6073 27.0819 79.6445 27.0819C80.4815 27.0819 81.2003 26.4768 81.2003 25.4669C81.2003 24.5161 80.3087 23.9702 79.6445 23.9702C77.2834 23.9702 76.2144 26.0174 75.7276 27.3139H75.6684V23.9702L70.6006 24.6617V25.294C71.7242 25.294 72.7615 25.5534 72.7615 27.6005V34.3698C72.7615 36.3578 72.2702 36.8764 70.6006 36.8764V37.5088V37.5042Z" fill="white"></path>
      <path d="M93.0519 37.7911L98.1197 37.0997V36.4673C97.0234 36.4673 95.9588 36.208 95.9588 34.1608V23.9614L90.891 24.6529V25.2853C92.0146 25.2853 93.0519 25.5446 93.0519 27.5917V31.2493C93.0519 33.0372 91.3823 36.0306 89.881 36.0306C88.2115 36.0306 87.6929 35.1071 87.6929 31.6224V23.9614L82.625 24.6529V25.2853C83.7487 25.2853 84.7859 25.5446 84.7859 27.5917V33.9561C84.7859 36.1443 85.3909 37.7866 88.6164 37.7866C91.1503 37.7866 92.3877 35.5393 92.9927 34.3883H93.0519V37.7866V37.7911Z" fill="white"></path>
      <path d="M108.237 27.851L108.064 24.4527C107.14 24.2207 106.162 23.9614 104.779 23.9614C102.041 23.9614 99.7661 25.0851 99.7661 27.6782C99.7661 29.2613 100.43 30.0392 101.841 31.0219C103.569 32.2047 106.394 32.7506 106.394 34.6249C106.394 36.0943 105.039 36.813 103.774 36.813C101.64 36.813 100.517 35.057 100.517 33.4148H99.6797L99.8526 37.2725C100.517 37.4454 102.127 37.7911 103.856 37.7911C107.168 37.7911 109.042 36.2353 109.042 33.8742C109.042 32.464 108.378 31.454 107.513 30.7944C105.726 29.4114 102.414 28.6926 102.414 26.8184C102.414 25.7811 103.305 24.9441 104.547 24.9441C106.681 24.9441 107.281 26.8456 107.4 27.8556H108.237V27.851Z" fill="white"></path>
      <path d="M118.682 36.3218C118.336 36.4355 117.99 36.4946 117.617 36.4946C116.12 36.4946 115.283 35.9487 115.283 34.0153V25.4309H119.027V24.2481H115.283V19.4668H114.446C114.301 21.655 113.436 24.6256 110.038 24.6256V25.4309H112.372V34.0153C112.372 37.3863 114.501 37.7912 117.039 37.7912C117.585 37.7912 118.163 37.6774 118.682 37.4727V36.3218Z" fill="white"></path>
    </g>
  </g>
  <defs>
    <clipPath id="clip0_1272_143">
      <rect width="118.453" height="60" fill="white" transform="translate(0.574219)"></rect>
    </clipPath>
    <clipPath id="clip1_1272_143">
      <rect width="118.453" height="60" fill="white" transform="translate(0.574219)"></rect>
    </clipPath>
  </defs>
</svg>
