<?xml version="1.0" encoding="UTF-8"?>
<svg xmlns="http://www.w3.org/2000/svg" width="42" height="41" viewBox="0 0 42 41" fill="none">
  <path d="M5.99703 34.5726H6.74703V33.8226H5.99703V34.5726ZM10.4598 34.5726V33.8226H10.1193L9.89516 34.0789L10.4598 34.5726ZM5.99703 39.6762H5.24703C5.24703 39.9887 5.4408 40.2684 5.73335 40.3783C6.0259 40.4882 6.35592 40.4051 6.56162 40.1699L5.99703 39.6762ZM3.15997 12.5078H26.1547V11.0078H3.15997V12.5078ZM27.4047 13.7578V32.5726H28.9047V13.7578H27.4047ZM1.90997 32.5726V13.7578H0.409973V32.5726H1.90997ZM5.99703 33.8226H3.15997V35.3226H5.99703V33.8226ZM26.1547 33.8226H10.4598V35.3226H26.1547V33.8226ZM9.89516 34.0789L5.43244 39.1825L6.56162 40.1699L11.0243 35.0663L9.89516 34.0789ZM6.74703 39.6762V34.5726H5.24703V39.6762H6.74703ZM0.409973 32.5726C0.409973 34.0914 1.64119 35.3226 3.15997 35.3226V33.8226C2.46962 33.8226 1.90997 33.2629 1.90997 32.5726H0.409973ZM27.4047 32.5726C27.4047 33.2629 26.8451 33.8226 26.1547 33.8226V35.3226C27.6735 35.3226 28.9047 34.0914 28.9047 32.5726H27.4047ZM26.1547 12.5078C26.8451 12.5078 27.4047 13.0675 27.4047 13.7578H28.9047C28.9047 12.239 27.6735 11.0078 26.1547 11.0078V12.5078ZM3.15997 11.0078C1.64119 11.0078 0.409973 12.239 0.409973 13.7578H1.90997C1.90997 13.0675 2.46962 12.5078 3.15997 12.5078V11.0078Z" fill="black"></path>
  <path d="M36.0946 23.6244H35.3446V22.8744H36.0946V23.6244ZM31.6319 23.6244L31.0673 24.1181L30.8819 23.9061V23.6244H31.6319ZM36.0946 28.728H36.8446C36.8446 29.0405 36.6508 29.3203 36.3583 29.4301C36.0657 29.54 35.7357 29.4569 35.53 29.2217L36.0946 28.728ZM38.9316 1.55963H15.9369V0.0596313H38.9316V1.55963ZM40.1816 21.6244V2.80963H41.6816V21.6244H40.1816ZM36.0946 22.8744H38.9316V24.3744H36.0946V22.8744ZM32.1965 23.1307L36.6592 28.2343L35.53 29.2217L31.0673 24.1181L32.1965 23.1307ZM35.3446 28.728V23.6244H36.8446V28.728H35.3446ZM14.6869 2.80963V6.25305H13.1869V2.80963H14.6869ZM15.9369 7.50305H29.6319V9.00305H15.9369V7.50305ZM32.3819 10.253V23.6244H30.8819V10.253H32.3819ZM29.6319 7.50305C31.1506 7.50305 32.3819 8.73426 32.3819 10.253H30.8819C30.8819 9.56269 30.3222 9.00305 29.6319 9.00305V7.50305ZM41.6816 21.6244C41.6816 23.1432 40.4504 24.3744 38.9316 24.3744V22.8744C39.622 22.8744 40.1816 22.3147 40.1816 21.6244H41.6816ZM14.6869 6.25305C14.6869 6.9434 15.2465 7.50305 15.9369 7.50305V9.00305C14.4181 9.00305 13.1869 7.77183 13.1869 6.25305H14.6869ZM15.9369 1.55963C15.2465 1.55963 14.6869 2.11928 14.6869 2.80963H13.1869C13.1869 1.29085 14.4181 0.0596313 15.9369 0.0596313V1.55963ZM38.9316 0.0596313C40.4504 0.0596313 41.6816 1.29085 41.6816 2.80963H40.1816C40.1816 2.11928 39.622 1.55963 38.9316 1.55963V0.0596313Z" fill="black"></path>
  <path d="M6.67957 19.6724H22.6351" stroke="black" stroke-width="1.5" stroke-linecap="round"></path>
  <path d="M6.67957 22.6636H22.6351" stroke="black" stroke-width="1.5" stroke-linecap="round"></path>
  <path d="M6.67957 25.6547H22.6351" stroke="black" stroke-width="1.5" stroke-linecap="round"></path>
</svg>
