<?xml version="1.0" encoding="UTF-8"?>
<svg xmlns="http://www.w3.org/2000/svg" width="49" height="33" viewBox="0 0 49 33" fill="none">
  <path d="M16.1779 16.8793C15.885 17.1722 15.885 17.6471 16.1779 17.94C16.4708 18.2329 16.9457 18.2329 17.2386 17.94L16.1779 16.8793ZM25.5957 17.4097L26.126 17.94L26.6564 17.4097L26.126 16.8793L25.5957 17.4097ZM22.3686 19.5761C22.0757 19.869 22.0757 20.3439 22.3686 20.6368C22.6615 20.9296 23.1364 20.9296 23.4293 20.6368L22.3686 19.5761ZM34.7681 18.7553C35.061 19.0482 35.5359 19.0482 35.8287 18.7553C36.1216 18.4624 36.1216 17.9875 35.8287 17.6946L34.7681 18.7553ZM30.7465 13.673L30.2162 14.2034L30.7465 13.673ZM21.8591 13.673L21.3288 14.2034L21.8591 13.673ZM17.2386 17.94L20.9752 14.2034L19.9145 13.1427L16.1779 16.8793L17.2386 17.94ZM21.3288 14.2034L25.0654 17.94L26.126 16.8793L22.3894 13.1427L21.3288 14.2034ZM25.0654 16.8793L22.3686 19.5761L23.4293 20.6368L26.126 17.94L25.0654 16.8793ZM23.4293 20.6368L29.8627 14.2034L28.802 13.1427L22.3686 19.5761L23.4293 20.6368ZM30.2162 14.2034L34.7681 18.7553L35.8287 17.6946L31.2769 13.1427L30.2162 14.2034ZM29.8627 14.2034C29.9603 14.1057 30.1186 14.1057 30.2162 14.2034L31.2769 13.1427C30.5934 12.4593 29.4854 12.4593 28.802 13.1427L29.8627 14.2034ZM20.9752 14.2034C21.0728 14.1057 21.2311 14.1057 21.3288 14.2034L22.3894 13.1427C21.706 12.4593 20.598 12.4593 19.9145 13.1427L20.9752 14.2034Z" fill="black"></path>
  <path d="M1.27081 6.12433C1.27081 3.62111 11.7864 1.59186 24.7579 1.59186C37.7295 1.59186 48.2451 3.62111 48.2451 6.12433C48.2451 6.16046 48.2429 6.19649 48.2385 6.23241M1.27081 6.12433V28.2047M1.27081 6.12433C1.27081 7.88023 6.44493 9.40293 14.0114 10.1556V31.9432M48.2385 6.23241V28.2047M48.2385 6.23241C48.0311 7.94256 42.9153 9.41841 35.5044 10.1556V31.9432" stroke="black" stroke-width="1.5"></path>
  <path d="M48.2451 28.0607C48.2451 28.0968 48.2429 28.1329 48.2385 28.1688C48.0311 29.8789 42.9153 31.3548 35.5044 32.092V24.0294M1.27081 28.0607C1.27081 29.8166 6.44493 31.3393 14.0114 32.092L14.0114 24.0294" stroke="black" stroke-width="1.5"></path>
  <path d="M35.5194 24.0294C32.2955 23.7082 28.6365 23.5267 24.7579 23.5267C20.8794 23.5267 17.2204 23.7082 13.9965 24.0294" stroke="black" stroke-width="1.5"></path>
  <circle cx="24.758" cy="9.6586" r="2.32364" stroke="black" stroke-width="1.5"></circle>
</svg>
