<?xml version="1.0" encoding="utf-8"?>
<!-- Generator: Adobe Illustrator 18.0.0, SVG Export Plug-In . SVG Version: 6.00 Build 0)  -->
<!DOCTYPE svg PUBLIC "-//W3C//DTD SVG 1.1//EN" "http://www.w3.org/Graphics/SVG/1.1/DTD/svg11.dtd">
<svg version="1.1" id="Layer_1" xmlns="http://www.w3.org/2000/svg" xmlns:xlink="http://www.w3.org/1999/xlink" x="0px" y="0px"
	 viewBox="0 0 123 48" enable-background="new 0 0 123 48" xml:space="preserve">
<g>
	<path fill="#FFFFFF" d="M13.8,3.3H8.6c-2.1,0-3.6,0.4-4.5,1.3C3.4,5.3,2.9,6.7,2.9,8.5v31c0,0.5,0.2,1,0.5,1.3
		c0.3,0.3,0.7,0.5,1.1,0.5c0.4,0,0.8-0.2,1.1-0.5c0.3-0.3,0.5-0.7,0.5-1.3V23.6h10.3c1,0,2.1,0.4,3,1.2c1.1,0.9,1.7,2,1.7,3.3
		L21,30.2c0,2.5,0,4.3,0.1,5.5c0.1,1.9,0.4,3.4,0.9,4.5c0.2,0.4,0.5,0.7,0.9,0.9c0.4,0.1,0.8,0.1,1.3,0c0.4-0.2,0.7-0.4,0.9-0.8
		c0.2-0.4,0.2-0.9,0-1.5c-0.4-1-0.6-2.5-0.7-4.5c-0.1-1.2-0.1-2.9-0.1-5.3c0-2.2-0.5-4-1.5-5.2c-0.8-1-1.8-1.6-3.1-1.8
		c1.6-0.8,2.8-1.8,3.5-3c0.8-1.4,1.3-3.3,1.3-5.7c0-3.5-1.2-6.1-3.6-7.9C18.9,4,16.6,3.3,13.8,3.3L13.8,3.3z M15.1,20.8H6.1V8.2
		c0-0.8,0.2-1.3,0.5-1.6c0.4-0.3,1-0.5,1.9-0.5h6.6c1.8,0,3.2,0.8,4.4,2.3c1.1,1.4,1.7,3.1,1.7,5.1c0,1.9-0.6,3.6-1.7,5
		C18.3,20,16.9,20.8,15.1,20.8L15.1,20.8z M46.7,32.7c-0.8,1.7-1.7,3-2.6,3.9c-1.2,1.2-2.7,1.8-4.4,1.8c-2.3,0-4.1-1.2-5.5-3.5
		c-1.2-2-1.9-4.4-2-7.2h18.4v-0.8c0-3.9-0.9-7.2-2.8-10c-2.1-2.9-4.7-4.4-8-4.4c-3.3,0-6,1.5-8,4.4c-1.8,2.7-2.7,6-2.7,10
		c0,3.9,0.9,7.1,2.7,9.8c2,3,4.7,4.4,8,4.4c2.3,0,4.3-0.6,6-1.9c1.8-1.3,3.1-3.1,4.1-5.4c0.2-0.5,0.2-1,0-1.4
		c-0.2-0.4-0.5-0.6-0.9-0.8c-0.4-0.2-0.8-0.2-1.2-0.1C47.3,31.8,46.9,32.2,46.7,32.7L46.7,32.7z M32.3,24.9c0.2-2.4,0.8-4.5,2-6.3
		c1.4-2.2,3.2-3.3,5.4-3.3c2.2,0,4,1.1,5.4,3.3c1.2,1.8,1.9,3.9,2,6.3H32.3L32.3,24.9z M55.3,46c0,0.5,0.2,0.9,0.5,1.2
		c0.3,0.3,0.7,0.4,1.1,0.4c0.4,0,0.8-0.1,1.1-0.4c0.3-0.3,0.5-0.7,0.5-1.2v-9.5c1,1.5,2.2,2.6,3.4,3.4c1.2,0.8,2.5,1.2,3.9,1.2
		c3.3,0,5.9-1.5,7.8-4.5c1.7-2.6,2.6-5.9,2.6-9.9s-0.9-7.2-2.6-9.9c-1.9-3-4.5-4.4-7.8-4.4c-1.6,0-3.1,0.4-4.5,1.3
		c-1.2,0.8-2.1,1.8-2.8,3v-2.2c0-0.5-0.2-0.9-0.5-1.2c-0.3-0.3-0.7-0.4-1.1-0.5c-0.4,0-0.8,0.1-1.1,0.4c-0.3,0.3-0.5,0.7-0.5,1.3V46
		L55.3,46z M65.7,38.4c-2.4,0-4.2-1.2-5.6-3.6c-1.2-2.1-1.8-4.8-1.8-8c0-3.2,0.6-5.9,1.8-8c1.3-2.4,3.2-3.6,5.6-3.6
		c2.3,0,4.1,1.2,5.5,3.6c1.2,2.1,1.8,4.8,1.8,8c0,3.2-0.6,5.8-1.8,8C69.9,37.2,68.1,38.4,65.7,38.4L65.7,38.4z"/>
	<path fill="#FFC419" d="M81.1,4v26.5c0,2.9,0.9,5.3,2.6,7.3c1.9,2.2,4.6,3.3,8,3.3c3.1,0,5.7-1.1,7.8-3.3c2-2.1,3-4.5,3-7.4v-7.6
		c0-0.5-0.2-0.8-0.5-1.1c-0.3-0.2-0.7-0.4-1.1-0.4c-0.4,0-0.8,0.1-1.1,0.3c-0.3,0.2-0.5,0.6-0.5,1.1v7.5c0,2.4-0.7,4.4-2.2,5.9
		c-1.4,1.5-3.2,2.3-5.4,2.3c-2.2,0-4-0.7-5.5-2.1c-1.4-1.4-2.1-3.3-2.1-5.6V4c0-0.5-0.2-1-0.5-1.3c-0.3-0.2-0.7-0.4-1.1-0.4
		c-0.4,0-0.8,0.2-1.1,0.5C81.3,3.2,81.1,3.5,81.1,4L81.1,4z"/>
	<path fill="#F58220" d="M101.2,23.8h8.3c2.9,0,5.4-0.9,7.3-2.6c2.2-1.9,3.3-4.6,3.3-8c0-3.1-1.1-5.7-3.3-7.7c-2.1-2-4.5-3-7.4-3
		H90.1h-7.1h0h0h0h0h0h0h0h0h0h0h0h-0.1c0,0,0,0-0.1,0c0,0-0.1,0-0.1,0c-0.9,0-1.6,0.7-1.6,1.6c0,0.9,0.7,1.6,1.6,1.6
		c0,0,0.1,0,0.1,0c0,0,0.1,0,0.1,0l0,0h0l0,0l0,0h0h7.2h19c2.4,0,4.4,0.7,5.9,2.2c1.5,1.4,2.3,3.2,2.3,5.4c0,2.2-0.7,4-2.1,5.4
		c-1.4,1.4-3.3,2.1-5.6,2.1h-8.4c-0.5,0-1,0.2-1.3,0.5c-0.2,0.3-0.4,0.7-0.4,1c0,0.4,0.1,0.8,0.4,1.1
		C100.2,23.6,100.7,23.8,101.2,23.8L101.2,23.8z M83,2.4L83,2.4L83,2.4L83,2.4L83,2.4L83,2.4L83,2.4L83,2.4L83,2.4L83,2.4L83,2.4
		L83,2.4L83,2.4L83,2.4L83,2.4L83,2.4L83,2.4L83,2.4L83,2.4L83,2.4L83,2.4L83,2.4L83,2.4L83,2.4L83,2.4L83,2.4L83,2.4L83,2.4z
		 M83,2.4L83,2.4L83,2.4L83,2.4L83,2.4z M83,2.4L83,2.4L83,2.4L83,2.4L83,2.4L83,2.4L83,2.4L83,2.4L83,2.4z M83,2.4L83,2.4L83,2.4
		L83,2.4z"/>
	<path fill="#FFC419" d="M101.2,23.8h1.4v-1c0,0-0.2-1.7,1.3-2.2h-2.7c-0.5,0-1,0.2-1.3,0.5c-0.2,0.3-0.4,0.7-0.4,1
		c0,0.4,0.1,0.8,0.4,1.1C100.2,23.6,100.7,23.8,101.2,23.8L101.2,23.8z"/>
	<path fill="#FFC419" d="M102.6,27.1v-4.7c0,0,0-0.1,0-0.1c0,0,0-0.1,0-0.1c0-0.9-0.7-1.6-1.6-1.6c-0.9,0-1.6,0.7-1.6,1.6l0,0l0,0
		v4.8H102.6L102.6,27.1z"/>
	<path fill="#F58220" d="M84.2,4.1v1.4h-1c-0.2,0-1.7-0.2-2.2,1.3V4.1c0-0.5,0.2-1,0.5-1.3c0.3-0.2,0.7-0.4,1-0.4
		c0.4,0,0.8,0.1,1.1,0.4C84.1,3.2,84.2,3.6,84.2,4.1L84.2,4.1z"/>
</g>
</svg>
