<?xml version="1.0" encoding="UTF-8"?>
<svg xmlns="http://www.w3.org/2000/svg" width="228" height="60" viewBox="0 0 228 60" fill="none">
  <g clip-path="url(#clip0_1272_170)">
    <path d="M62.7071 14.8012L68.688 22.2989C68.9945 22.6505 69.176 23.1043 69.1987 23.5693C69.1987 24.0003 69.0398 24.42 68.7448 24.7376C68.4383 25.0666 67.9957 25.2367 67.5531 25.2254C67.2921 25.2254 67.0311 25.1687 66.8041 25.0666C66.6225 24.9872 66.4523 24.8851 66.3047 24.749L66.1572 24.5902L60.1763 17.0925L57.2482 19.7694V23.4559C57.2709 23.9323 57.1007 24.386 56.7716 24.7376C56.0225 25.3955 54.899 25.3955 54.1499 24.7376C53.8322 24.386 53.6619 23.9323 53.6846 23.4559V8.94828C53.6619 7.96145 54.4337 7.14476 55.421 7.12207C56.4084 7.09938 57.2255 7.8707 57.2482 8.85754C57.2482 8.89157 57.2482 8.91425 57.2482 8.94828V15.3003L65.2606 7.80265C65.6238 7.40564 66.1231 7.17878 66.6566 7.16744C67.5645 7.19013 68.2908 7.91607 68.3135 8.82351C68.3135 9.06171 68.2568 9.29991 68.1433 9.51543C68.0638 9.70826 67.9503 9.88974 67.8255 10.0485L67.678 10.23L62.7071 14.8126V14.8012Z" fill="white"></path>
    <path d="M85.2354 18.2275C85.2695 20.2239 84.441 22.1295 82.9656 23.468C79.663 26.315 74.7716 26.315 71.4691 23.468C69.9937 22.1295 69.1652 20.2239 69.1993 18.2275V14.1668C69.1652 12.1704 69.9937 10.2648 71.4691 8.92632C74.7716 6.07925 79.663 6.07925 82.9656 8.92632C84.441 10.2648 85.2695 12.1704 85.2354 14.1668V18.2275ZM80.4348 21.1427C81.2519 20.394 81.6945 19.3391 81.6718 18.2275V14.1668C81.6945 13.0665 81.2519 12.0003 80.4348 11.2516C78.5622 9.70898 75.8611 9.70898 73.9999 11.2516C73.1828 12.0003 72.7401 13.0551 72.7628 14.1668V18.2389C72.7288 19.3391 73.1828 20.4054 73.9999 21.154C75.8725 22.6966 78.5735 22.6966 80.4348 21.154" fill="white"></path>
    <path d="M95.0175 7.29237C96.7312 7.21297 98.4108 7.79146 99.716 8.91441C100.874 9.91258 101.532 11.3645 101.509 12.8844C101.509 13.5423 101.407 14.1889 101.169 14.8014C100.987 15.3118 100.703 15.7769 100.34 16.1852C100.045 16.5028 99.716 16.7977 99.3755 17.0586C99.1258 17.2628 98.8534 17.4329 98.5584 17.5577L98.2065 17.7052V17.8299L101.77 22.2877C102.077 22.6393 102.258 23.0931 102.281 23.5581C102.281 23.9892 102.122 24.4088 101.827 24.7264C101.52 25.0554 101.078 25.2255 100.635 25.2142C100.374 25.2142 100.113 25.1575 99.8862 25.044C99.7046 24.9646 99.5344 24.8626 99.3868 24.7264L99.2393 24.5676L94.3819 18.4651H90.319V23.422C90.3417 24.4088 89.5699 25.2255 88.5826 25.2482C87.5952 25.2709 86.7781 24.4996 86.7554 23.5127C86.7554 23.4787 86.7554 23.456 86.7554 23.422V9.07321C86.7327 8.10906 87.4931 7.31505 88.4464 7.29237C88.4804 7.29237 88.5031 7.29237 88.5372 7.29237H95.0288H95.0175ZM97.083 11.2057C96.4928 10.7633 95.7551 10.5478 95.0175 10.5932H90.3076V15.1757H95.0175C95.7551 15.2211 96.4815 14.9829 97.0603 14.5292C97.9796 13.7125 98.0703 12.3059 97.2532 11.3872C97.1965 11.3191 97.1397 11.2624 97.0716 11.2057" fill="white"></path>
    <path d="M107.49 10.6041V14.6762H114.231C115.071 14.6536 115.775 15.3228 115.797 16.1622C115.82 17.0015 115.15 17.7048 114.311 17.7275C114.288 17.7275 114.254 17.7275 114.231 17.7275H107.49V21.7996H116.773C117.681 21.8223 118.408 22.5823 118.385 23.501C118.362 24.3858 117.659 25.089 116.773 25.1117H105.708C104.743 25.1344 103.949 24.3744 103.926 23.4103C103.926 23.3876 103.926 23.3536 103.926 23.3309V9.07283C103.904 8.10868 104.664 7.31468 105.617 7.29199C105.651 7.29199 105.674 7.29199 105.708 7.29199H116.524C117.432 7.29199 118.181 8.02928 118.181 8.94806C118.181 9.86684 117.443 10.6041 116.524 10.6041H107.49Z" fill="white"></path>
    <path d="M130.007 7.30361C130.45 7.63255 130.801 8.06358 131.028 8.56267L136.884 22.299C137.043 22.6619 137.123 23.0476 137.134 23.4446C137.134 24.4314 136.34 25.2254 135.352 25.2254C134.444 25.2027 133.661 24.5789 133.446 23.6941L132.299 20.7677H124.412L123.266 23.6941C123.05 24.5789 122.267 25.2027 121.359 25.2254C120.372 25.2254 119.577 24.4314 119.577 23.4446C119.577 23.2744 119.6 23.1043 119.645 22.9342C119.679 22.7754 119.725 22.6279 119.781 22.4804L119.838 22.299L125.694 8.56267C125.921 8.06358 126.273 7.63255 126.716 7.30361C127.714 6.61169 129.031 6.61169 130.018 7.30361M125.694 17.4669H131.04L128.441 10.9787H128.293L125.694 17.4669Z" fill="white"></path>
    <path d="M150.481 18.7374V8.94841C150.459 8.47201 150.629 8.00695 150.958 7.66666C151.707 7.00877 152.83 7.00877 153.58 7.66666C153.897 8.01829 154.068 8.48335 154.056 8.94841V23.4447C154.079 24.4088 153.318 25.2028 152.365 25.2255C152.331 25.2255 152.308 25.2255 152.274 25.2255C151.571 25.2482 150.901 24.9079 150.493 24.3294L142.219 13.6444H142.094V23.4333C142.117 23.9097 141.947 24.3634 141.629 24.7151C140.88 25.373 139.756 25.373 139.007 24.7151C138.69 24.3634 138.519 23.9097 138.542 23.4333V8.94841C138.519 7.98426 139.28 7.19026 140.244 7.16757C140.267 7.16757 140.301 7.16757 140.324 7.16757C141.027 7.14489 141.697 7.48517 142.106 8.06366L150.379 18.7487H150.504L150.481 18.7374Z" fill="white"></path>
    <path d="M53.8548 51.7343C52.9242 50.9517 52.3908 49.7947 52.4021 48.581C52.3568 47.4013 52.8788 46.2557 53.7981 45.5184C55.0692 44.6677 56.6013 44.2707 58.1221 44.3841H61.2998C61.2998 43.023 60.3692 42.3537 58.4966 42.3537C58.0767 42.3537 57.6454 42.3991 57.2368 42.5239C56.9531 42.5919 56.6921 42.694 56.431 42.8415L56.2041 42.9889C55.8296 43.3519 55.3302 43.5788 54.8081 43.6241C53.991 43.6582 53.3101 43.0116 53.276 42.2063C53.276 42.1723 53.276 42.1382 53.276 42.1042C53.3668 41.2762 53.8775 40.5616 54.6266 40.1986C55.8069 39.5407 57.146 39.2231 58.4966 39.3025C60.1081 39.2118 61.697 39.7222 62.9567 40.7317C64.0349 41.6505 64.6364 43.0003 64.6023 44.4182V51.1332C64.5796 52.0406 63.8533 52.7552 62.9454 52.7892C62.5255 52.8006 62.1056 52.6758 61.7651 52.4263C61.4927 52.2561 61.3225 51.9725 61.2998 51.6549H61.1749C61.0955 51.757 60.9707 51.8818 60.8231 52.0406C60.4713 52.3015 60.0854 52.517 59.6655 52.6645C59.0186 52.9367 58.3263 53.0615 57.6227 53.0615C56.2495 53.1182 54.8989 52.6531 53.8548 51.7684M60.46 49.3637C60.9934 48.9894 61.3111 48.3768 61.3111 47.7189V47.2085H58.1334C57.5319 47.1631 56.9304 47.2993 56.4084 47.6055C55.8523 47.9458 55.682 48.6831 56.0225 49.2276C56.1133 49.3864 56.2495 49.5111 56.4084 49.6132C56.9304 49.9195 57.5319 50.0556 58.1334 50.0102C58.9619 50.0556 59.779 49.8287 60.46 49.3637Z" fill="white"></path>
    <path d="M67.0881 40.2323C67.3831 39.9487 67.769 39.7899 68.1776 39.8012H68.6883V38.0204C68.711 37.113 69.4713 36.387 70.3906 36.4097C71.2758 36.4324 71.9795 37.1356 72.0022 38.0204V39.8012H74.8054C75.214 39.7785 75.6112 39.926 75.9176 40.1982C76.5304 40.7994 76.5418 41.7749 75.9403 42.3874C75.6452 42.6937 75.2367 42.8525 74.8167 42.8525H72.0135V48.195C71.9795 48.7054 72.1951 49.2045 72.5923 49.5335C73.0122 49.8397 73.5229 49.9985 74.045 49.9758C74.1925 49.9758 74.3401 49.9531 74.4876 49.9078C74.6011 49.8737 74.7032 49.8397 74.8054 49.7943L74.9302 49.7149C75.1913 49.5448 75.509 49.4541 75.8154 49.4654C76.6326 49.4314 77.3135 50.0666 77.3476 50.8833C77.3476 50.9173 77.3476 50.9513 77.3476 50.9854C77.3249 51.5979 76.973 52.1537 76.4283 52.4372C75.5771 52.8796 74.6124 53.0838 73.6478 53.0271C72.3199 53.0725 71.0375 52.5734 70.0842 51.6546C69.1536 50.7472 68.6429 49.4881 68.6883 48.195V42.8525H68.1776C67.3264 42.8411 66.6341 42.1379 66.6568 41.2872C66.6568 40.8902 66.8157 40.5158 67.0881 40.2323Z" fill="white"></path>
    <path d="M100.489 35.2191C100.829 35.5593 101.011 36.0131 101 36.4895C101 36.7277 100.943 36.9545 100.852 37.17C100.773 37.3629 100.67 37.5444 100.546 37.7032L100.364 37.8846L94.5079 46.0289V50.9857C94.4738 51.9952 93.634 52.8006 92.6126 52.7666C92.17 52.7552 91.7387 52.5737 91.4096 52.2675C91.0918 51.9158 90.9216 51.4621 90.9443 50.9857V46.0289L85.0882 37.8846C84.691 37.5217 84.464 37.0226 84.4526 36.4895C84.4299 35.5253 85.1903 34.7313 86.155 34.7086C86.1777 34.7086 86.2117 34.7086 86.2344 34.7086C86.5068 34.7086 86.7792 34.788 87.0289 34.9241C87.2445 35.0376 87.4374 35.185 87.585 35.3665L87.7666 35.5934L92.6466 42.3311H92.7942L97.6742 35.5934C98.0034 35.0603 98.5708 34.72 99.2064 34.6973C99.683 34.6859 100.148 34.8674 100.477 35.2077" fill="white"></path>
    <path d="M117.534 45.7794C117.568 47.7757 116.74 49.6814 115.264 51.0198C111.962 53.8669 107.07 53.8669 103.768 51.0198C102.293 49.6814 101.464 47.7757 101.498 45.7794V41.7073C101.464 39.7109 102.293 37.8053 103.768 36.4668C107.07 33.6198 111.962 33.6198 115.264 36.4668C116.74 37.8053 117.568 39.7109 117.534 41.7073V45.7794ZM112.734 48.6945C113.551 47.9459 113.993 46.891 113.971 45.7794V41.7073C113.993 40.607 113.551 39.5408 112.734 38.7921C110.861 37.2495 108.16 37.2495 106.299 38.7921C105.482 39.5408 105.039 40.5957 105.062 41.7073V45.7794C105.028 46.8797 105.482 47.9459 106.299 48.6945C108.171 50.2372 110.872 50.2372 112.734 48.6945Z" fill="white"></path>
    <path d="M122.494 35.2185C122.835 35.5588 123.016 36.0125 123.005 36.4889V46.1531C122.971 47.1626 123.368 48.1381 124.094 48.8187C125.842 50.1798 128.305 50.1798 130.053 48.8073C130.79 48.1154 131.188 47.1399 131.142 46.1191V36.4776C131.119 35.4907 131.891 34.6741 132.879 34.6514C133.866 34.6287 134.683 35.4 134.706 36.3868C134.706 36.4209 134.706 36.4435 134.706 36.4776V46.1191C134.751 48.0247 133.979 49.8509 132.583 51.144C129.394 53.8096 124.753 53.8096 121.564 51.144C120.168 49.8622 119.396 48.036 119.441 46.1531V36.4889C119.441 35.4907 120.27 34.6967 121.257 34.7081C121.722 34.7081 122.165 34.8896 122.494 35.2185Z" fill="white"></path>
    <path d="M145.011 34.844C146.725 34.7646 148.404 35.3544 149.709 36.466C150.867 37.4642 151.525 38.9161 151.503 40.436C151.503 41.0939 151.4 41.7405 151.162 42.353C150.981 42.8634 150.697 43.3285 150.334 43.7368C150.039 44.0544 149.709 44.3493 149.369 44.6102C149.119 44.8144 148.847 44.9732 148.552 45.1093L148.2 45.2568V45.3816L151.764 49.828C152.07 50.1796 152.252 50.6333 152.274 51.0984C152.274 51.5294 152.115 51.9491 151.82 52.2667C151.514 52.5957 151.071 52.7658 150.629 52.7545C150.368 52.7545 150.107 52.6977 149.88 52.5843C149.698 52.5049 149.528 52.4028 149.38 52.2667L149.233 52.1193L144.375 46.0168H140.324V50.9736C140.347 51.9604 139.575 52.7771 138.587 52.7998C137.6 52.8225 136.783 52.0512 136.76 51.0644C136.76 51.0303 136.76 51.0076 136.76 50.9736V36.6021C136.738 35.638 137.498 34.844 138.451 34.8213C138.485 34.8213 138.508 34.8213 138.542 34.8213H145.034L145.011 34.844ZM147.077 38.7573C146.486 38.3149 145.749 38.0994 145.011 38.1448H140.301V42.7273H145.011C145.749 42.7727 146.475 42.5345 147.054 42.0808C147.973 41.2641 148.064 39.8575 147.247 38.9388C147.19 38.8707 147.133 38.814 147.065 38.7573" fill="white"></path>
    <path d="M166.664 34.8445C168.821 34.7651 170.92 35.5251 172.509 36.977C173.996 38.3154 174.824 40.2437 174.79 42.2401V45.246C174.824 47.2423 173.996 49.1706 172.509 50.5091C170.92 51.961 168.821 52.7323 166.664 52.6416H161.546C160.581 52.6642 159.787 51.9043 159.764 50.9515C159.764 50.9174 159.764 50.8948 159.764 50.8607V36.6254C159.741 35.6612 160.502 34.8672 161.467 34.8445C161.489 34.8445 161.523 34.8445 161.546 34.8445H166.664ZM166.664 49.3408C167.867 49.3975 169.048 48.9778 169.956 48.1838C170.784 47.4352 171.249 46.3576 171.215 45.246V42.2401C171.249 41.1285 170.784 40.0509 169.956 39.3023C169.048 38.5083 167.867 38.0886 166.664 38.1453H163.328V49.3294H166.664V49.3408Z" fill="white"></path>
    <path d="M192.597 45.7794C192.631 47.7644 191.802 49.6814 190.338 51.0198C187.036 53.8669 182.144 53.8669 178.83 51.0198C177.355 49.6814 176.527 47.7757 176.561 45.7794V41.7073C176.527 39.7109 177.355 37.8053 178.83 36.4668C182.133 33.6198 187.024 33.6198 190.338 36.4668C191.814 37.8053 192.631 39.7109 192.597 41.7073V45.7794ZM187.796 48.6945C188.613 47.9459 189.056 46.891 189.033 45.7794V41.7073C189.056 40.607 188.613 39.5408 187.796 38.7921C185.924 37.2495 183.222 37.2495 181.361 38.7921C180.544 39.5408 180.101 40.5957 180.124 41.7073V45.7794C180.09 46.8797 180.544 47.9459 181.361 48.6945C183.234 50.2372 185.935 50.2372 187.796 48.6945Z" fill="white"></path>
    <path d="M210.143 45.7789C210.177 47.7639 209.348 49.6809 207.884 51.0193C204.582 53.8664 199.69 53.8664 196.376 51.0193C194.901 49.6809 194.072 47.7753 194.106 45.7789V41.7068C194.072 39.7104 194.901 37.8048 196.376 36.4664C199.679 33.6193 204.57 33.6193 207.884 36.4664C209.36 37.8048 210.177 39.7104 210.143 41.7068V45.7789ZM205.342 48.694C206.159 47.9454 206.602 46.8905 206.579 45.7789V41.7068C206.602 40.6065 206.159 39.5403 205.342 38.7917C203.469 37.249 200.768 37.249 198.907 38.7917C198.09 39.5403 197.647 40.5952 197.67 41.7068V45.7789C197.636 46.8792 198.09 47.9454 198.907 48.694C200.78 50.2367 203.481 50.2367 205.342 48.694Z" fill="white"></path>
    <path d="M220.073 34.844C221.787 34.7646 223.467 35.3544 224.772 36.466C225.93 37.4642 226.588 38.9161 226.565 40.436C226.565 41.0939 226.463 41.7405 226.225 42.353C226.043 42.8634 225.759 43.3285 225.396 43.7368C225.101 44.0544 224.772 44.3493 224.432 44.6102C224.182 44.8144 223.909 44.9732 223.614 45.1093L223.263 45.2568V45.3816L226.826 49.828C227.133 50.1796 227.314 50.6333 227.337 51.0984C227.337 51.5294 227.178 51.9491 226.883 52.2667C226.576 52.5957 226.134 52.7658 225.691 52.7545C225.43 52.7545 225.169 52.6977 224.942 52.5843C224.761 52.5049 224.59 52.4028 224.443 52.2667L224.295 52.1193L219.438 46.0168H215.386V50.9736C215.409 51.9604 214.637 52.7771 213.65 52.7998C212.663 52.8225 211.845 52.0512 211.823 51.0644C211.823 51.0303 211.823 51.0076 211.823 50.9736V36.6021C211.8 35.638 212.56 34.844 213.525 34.8213C213.548 34.8213 213.582 34.8213 213.605 34.8213H220.085L220.073 34.844ZM222.139 38.7573C221.549 38.3149 220.811 38.0994 220.073 38.1448H215.364V42.7273H220.073C220.811 42.7727 221.538 42.5345 222.116 42.0808C223.036 41.2641 223.126 39.8689 222.309 38.9388C222.253 38.8707 222.196 38.814 222.128 38.7573" fill="white"></path>
    <path d="M8.09607 42.2853V41.9903C8.00527 42.013 7.92583 42.0357 7.86909 42.0471C7.25624 42.1945 6.70014 42.5121 6.26888 42.9545C5.96245 43.3402 5.72412 43.7825 5.57659 44.2589C4.68001 46.6636 3.78344 49.0683 2.88687 51.473C2.81878 51.6659 2.73933 51.8587 2.67124 52.0629C2.23998 52.9136 2.11514 53.9004 2.31942 54.8419C2.79608 56.1917 4.46438 56.7475 5.93975 57.0311C11.1943 57.8364 16.5057 58.1427 21.817 57.9385C27.1284 58.1427 32.4397 57.8364 37.6943 57.0311C39.1697 56.7588 40.8493 56.1917 41.3146 54.8419C41.5189 53.9004 41.3941 52.9249 40.9628 52.0629L40.7472 51.473L38.0688 44.2589C37.9213 43.7825 37.6829 43.3515 37.3765 42.9545C36.9339 42.5121 36.3778 42.1945 35.7763 42.0471L35.5266 41.979V42.2853C35.5266 42.2853 21.8511 45.9604 8.09607 42.2853Z" fill="#B3B3B3"></path>
    <path d="M30.8628 48.6036C29.0016 48.4675 28.139 50.0896 28.0029 51.7456C27.844 53.7987 27.878 55.8518 28.1277 57.8935C30.4088 57.8595 32.6786 57.712 34.9371 57.4398C34.8577 55.5342 34.5739 53.6399 34.1086 51.791C33.6433 50.3164 32.5198 48.7171 30.8628 48.5923" fill="white"></path>
    <path d="M31.1226 53.9006C31.1226 54.4904 30.646 54.9555 30.0672 54.9555C29.4884 54.9555 29.0117 54.4791 29.0117 53.9006C29.0117 53.3108 29.4884 52.8457 30.0672 52.8457C30.6573 52.8457 31.1226 53.3221 31.1226 53.9006Z" fill="#E2E2E2"></path>
    <path d="M21.4312 2.00669C21.4312 2.00669 36.0601 1.23537 37.3199 16.2534C37.649 20.0987 37.0361 23.9779 35.5381 27.5396C35.4359 27.7211 35.3792 27.9139 35.4019 28.1181V28.7306C35.4019 28.7306 38.9541 28.7306 40.9515 24.5224L43.9704 23.3541C43.9704 23.3541 46.2856 29.1276 35.4586 32.9275L35.5494 42.2741C35.5494 42.2741 21.8738 45.9492 8.11884 42.2741L8.35717 32.1902C8.02805 32.5305 7.65354 32.8368 7.25632 33.0977C6.62078 33.4947 5.69016 34.1299 6.72292 35.4343L7.27902 36.285C7.31307 36.3417 7.32441 36.4211 7.31307 36.4892C7.09743 37.51 6.22356 38.2473 5.17945 38.2814C5.10001 38.2814 4.92977 38.0659 4.87303 38.0205C4.612 37.7709 4.37367 37.51 4.15804 37.2265C3.10258 35.888 2.2968 33.7896 3.10258 32.1448C3.56789 31.3282 4.16939 30.6022 4.89573 30.0124C5.62206 29.3545 6.35975 28.7079 7.09743 28.0727L7.76703 27.4942C8.0394 27.3014 8.28908 27.0859 8.51606 26.8477C8.02805 25.3845 7.63084 23.8872 7.33576 22.3786C7.33576 22.3786 7.31307 21.8228 6.3711 21.4031C5.42913 20.9834 0.276677 20.11 0.344771 15.8904C0.344771 15.8904 0.24263 13.9735 2.08117 14.0529C3.91971 14.1323 6.72292 14.2911 7.32441 13.4744C7.32441 13.4744 7.47195 13.4517 7.80107 12.272C8.13019 11.0924 9.90064 2.49444 21.4312 2.00669Z" fill="#848484"></path>
    <path d="M24.8928 19.7246C25.1311 19.4864 25.1311 19.1007 24.8928 18.8625C24.8928 18.8625 24.8701 18.8399 24.8587 18.8399C24.2118 18.3975 23.4287 18.216 22.657 18.3408C22.3052 18.3521 21.9647 18.4202 21.6356 18.5449C21.3859 18.647 21.1816 18.8512 21.0795 19.1007C21.0114 19.3616 21.1135 19.6339 21.3292 19.7813C21.6696 19.9968 22.0669 20.1103 22.4754 20.1216C22.9067 20.167 23.3493 20.167 23.7806 20.1216C24.1778 20.1216 24.5636 19.9741 24.8814 19.7133" fill="#B3B3B3"></path>
    <path d="M1.92206 14.087H1.88801C1.37731 13.8942 0.809855 14.0757 0.480734 14.5067C0.219707 14.9604 0.389942 15.5389 0.832553 15.7885C0.911996 15.8338 0.991439 15.8679 1.08223 15.8906C1.59294 15.97 2.09229 15.6524 2.23983 15.1533C2.41007 14.7676 2.27388 14.3139 1.91071 14.087" fill="#B3B3B3"></path>
    <path d="M11.0926 12.6575C10.911 13.1679 10.3549 13.4402 9.84418 13.27C9.33347 13.0885 9.06109 12.5327 9.23133 12.0223C9.39022 11.5572 9.87822 11.2737 10.3662 11.3757C10.9223 11.5345 11.2515 12.1017 11.1039 12.6575" fill="white"></path>
    <path d="M20.2058 14.3816C20.0243 14.8921 19.4682 15.1643 18.9575 14.9942C18.4468 14.824 18.1744 14.2569 18.3446 13.7464C18.5035 13.2814 18.9915 13.0091 19.4795 13.0999C20.0356 13.2587 20.3647 13.8258 20.2058 14.3816Z" fill="white"></path>
    <path d="M7.36914 20.2914C8.79912 19.8264 10.195 19.2819 11.5796 18.7034C11.6591 18.6694 11.7385 18.6581 11.818 18.6807C11.8974 18.7261 11.9428 18.8055 11.9655 18.8849C12.1584 19.8264 11.7612 20.7905 10.9668 21.3123C10.4107 21.732 9.71839 21.9135 9.0261 21.8227C8.25436 21.6072 7.64152 21.0401 7.36914 20.2914Z" fill="#E2E2E2"></path>
    <path d="M5.14551 38.2925C5.54272 39.1659 6.11017 39.9372 6.81381 40.5951C7.05214 40.8106 7.40396 40.9921 7.58555 40.8333C7.76713 40.6745 7.61959 40.3455 7.4834 40.0847C7.77848 40.4023 8.28918 40.4817 8.49347 40.2321C8.69775 39.9826 8.52751 39.4721 8.16434 39.2339C8.34593 39.3247 8.53886 39.3927 8.74314 39.4268C8.91338 39.4721 9.09496 39.3814 9.17441 39.2226C9.2652 38.9504 8.95878 38.5874 8.67505 38.3379C8.89068 38.4513 9.14036 38.5193 9.39004 38.5193C9.59432 38.5193 9.7759 38.4059 9.844 38.2131C9.92344 37.9295 9.65107 37.748 9.43543 37.6346C9.2652 37.5438 9.08362 37.4871 8.91338 37.3964C8.34593 37.1242 7.80118 36.7952 7.27912 36.4209C7.27912 36.4436 7.27912 36.4776 7.27912 36.5003C7.06349 37.5212 6.18962 38.2585 5.14551 38.2925Z" fill="#B3B3B3"></path>
    <path d="M20.7494 7.429C18.332 7.29289 16.153 8.90358 15.5629 11.2516C15.0635 11.1381 14.0421 11.0361 14.0421 11.0361C14.201 8.25704 12.0674 5.88636 9.29822 5.72756C6.51772 5.56876 4.14577 7.70123 3.98689 10.4689C3.828 13.2366 5.95027 15.6072 8.71942 15.7774C8.81022 15.7774 8.91236 15.7774 9.0145 15.7774C11.4091 15.7774 13.4747 14.076 13.9513 11.728C14.0648 11.728 15.1884 11.8868 15.4494 11.9435C15.4494 12.0229 15.4267 12.0909 15.4267 12.1703C15.2678 14.9494 17.4014 17.32 20.1706 17.4902C20.2614 17.4902 20.3635 17.4902 20.4543 17.4902C23.2348 17.4902 25.4819 15.2102 25.4819 12.4312C25.4819 9.77699 23.3937 7.57646 20.738 7.41766M13.2931 10.9793C13.1569 13.3387 11.1368 15.1535 8.76482 15.0174C6.40423 14.8813 4.58838 12.8623 4.72457 10.4916C4.84941 8.22301 6.73335 6.44217 9.00315 6.44217C9.08259 6.44217 9.16204 6.44217 9.25283 6.44217C11.6134 6.58963 13.4179 8.60867 13.2931 10.968M24.7329 12.6808C24.5967 15.0401 22.5652 16.8436 20.2046 16.7075C17.844 16.5714 16.0395 14.541 16.1757 12.1817C16.3119 9.82236 18.332 8.01883 20.6926 8.15495C23.0419 8.26838 24.8577 10.2647 24.7329 12.6127C24.7329 12.6354 24.7329 12.6581 24.7329 12.6808Z" fill="white"></path>
    <path d="M20.7494 7.429C18.332 7.29289 16.153 8.90358 15.5629 11.2516C15.0635 11.1381 14.0421 11.0361 14.0421 11.0361C14.201 8.25704 12.0674 5.88636 9.29822 5.72756C6.51772 5.56876 4.14577 7.70123 3.98689 10.4689C3.828 13.2366 5.95027 15.6072 8.71942 15.7774C8.81022 15.7774 8.91236 15.7774 9.0145 15.7774C11.4091 15.7774 13.4747 14.076 13.9513 11.728C14.0648 11.728 15.1884 11.8868 15.4494 11.9435C15.4494 12.0229 15.4267 12.0909 15.4267 12.1703C15.2678 14.9494 17.4014 17.32 20.1706 17.4902C20.2614 17.4902 20.3635 17.4902 20.4543 17.4902C23.2348 17.4902 25.4819 15.2102 25.4819 12.4312C25.4819 9.77699 23.3937 7.57646 20.738 7.41766L20.7494 7.429ZM13.3044 10.9907C13.1682 13.35 11.1481 15.1649 8.77617 15.0288C6.41557 14.8926 4.59973 12.8736 4.73592 10.5029C4.86076 8.23435 6.7447 6.45351 9.0145 6.45351C9.09394 6.45351 9.17338 6.45351 9.26418 6.45351C11.6248 6.60097 13.4293 8.62001 13.3044 10.9793V10.9907ZM24.7442 12.7035C24.608 15.0628 22.5766 16.8663 20.216 16.7302C17.8554 16.5941 16.0509 14.5637 16.1871 12.2044C16.3233 9.84504 18.3434 8.04152 20.704 8.17763C23.0532 8.29106 24.8691 10.2874 24.7442 12.6354C24.7442 12.6581 24.7442 12.6808 24.7442 12.6921V12.7035Z" stroke="white" stroke-width="0.143754" stroke-miterlimit="10"></path>
    <path d="M27.5706 33.5629C26.0271 30.9427 23.1104 29.4455 20.0802 29.729C19.0021 29.8651 17.958 30.2395 17.05 30.8406C13.9404 32.8597 12.0451 36.9998 11.6252 41.0946C11.5685 41.6278 11.5344 42.4331 11.5117 43.0456C17.7423 44.1119 24.0978 44.1913 30.3397 43.2725C30.2376 42.4104 30.1128 41.3442 29.9766 40.5729C29.6361 38.1001 28.8303 35.7181 27.5819 33.5516" fill="white"></path>
    <path d="M46.0358 18.3175L37.8418 29.8987C37.3879 30.5452 36.4913 30.6927 35.8444 30.239L30.7487 26.6432C30.1018 26.1895 29.9543 25.2934 30.4082 24.6469L38.6022 13.0658C39.0562 12.4192 39.9528 12.2718 40.5997 12.7255L45.6954 16.3212C46.3423 16.7749 46.4898 17.671 46.0358 18.3175Z" fill="white"></path>
    <path d="M44.0157 18.8053L38.8292 26.1329C38.3071 26.8588 37.2971 27.0403 36.5707 26.5185L34.0512 24.7377C33.3249 24.2159 33.1433 23.2064 33.6654 22.4805L38.8519 15.1529C39.3739 14.427 40.384 14.2455 41.1103 14.7673L43.6298 16.5481C44.3561 17.0699 44.5377 18.0794 44.0157 18.8053Z" fill="#E2E2E2"></path>
    <path d="M33.3583 27.4036C33.4605 27.8573 33.9144 28.1409 34.357 28.0274C34.7997 27.914 35.0947 27.4716 34.9812 27.0292C34.8791 26.5755 34.4251 26.292 33.9825 26.4054C33.5286 26.5075 33.2448 26.9612 33.347 27.4036" fill="#E2E2E2"></path>
    <path d="M41.8134 26.5638C41.4502 26.5638 41.1551 26.2916 41.1438 25.9286C41.1438 25.9286 41.1438 25.9173 41.1438 25.9059C41.087 25.5089 40.8487 25.1686 40.4855 24.9758C40.3266 24.8737 40.1451 24.8284 39.9748 24.7376C39.7705 24.6242 39.4982 24.4427 39.6003 24.1591C39.6797 23.9663 39.8727 23.8529 40.077 23.8642C40.3266 23.8642 40.565 23.9209 40.7806 24.0457C40.5082 23.7961 40.2131 23.4332 40.3266 23.1609C40.4174 23.0021 40.599 22.9227 40.7692 22.9568C40.9622 22.9908 41.1551 23.0589 41.3367 23.1496C40.9962 22.9341 40.8714 22.5031 41.0643 22.1401C41.3707 21.9019 41.8247 21.9699 42.0517 22.2762C41.9268 22.0153 41.8134 21.675 41.9949 21.5276C42.1765 21.3801 42.5283 21.5502 42.7553 21.7658C43.1525 22.1401 43.493 22.5598 43.7767 23.0135C43.9583 23.2857 44.0832 23.5806 44.1399 23.8982C44.2307 24.7716 43.8108 25.611 43.0504 26.0647C42.7099 26.2916 42.3354 26.4617 41.9382 26.5411C41.8815 26.5411 41.8361 26.5411 41.7793 26.5411" fill="#B3B3B3"></path>
    <path d="M18.0839 46.6641H10.2871V53.0842H18.0839V46.6641Z" fill="#E2E2E2"></path>
    <path d="M18.5137 49.4767V46.7771C18.5137 46.5275 18.3094 46.312 18.0484 46.312H10.4673C10.2176 46.312 10.002 46.5162 10.002 46.7771V53.0724C10.002 53.3219 10.2062 53.5375 10.4673 53.5375H18.0484C18.2981 53.5375 18.5137 53.3333 18.5137 53.0837V49.4767ZM14.9274 47.2308H17.4015C17.515 47.2308 17.5944 47.3215 17.6058 47.4236V49.4653H14.7345V47.4236C14.7345 47.3102 14.8253 47.2308 14.9388 47.2308M10.9439 47.435C10.9439 47.3215 11.0347 47.2308 11.1369 47.2308H13.6223C13.7358 47.2308 13.8152 47.3215 13.8152 47.435V49.4767H10.9326V47.435H10.9439ZM13.6223 52.63H11.1369C11.0234 52.63 10.9439 52.5393 10.9439 52.4258V50.3841H13.8266V52.4258C13.8266 52.5393 13.7358 52.6187 13.6336 52.63M17.6171 52.4258C17.6171 52.5393 17.5263 52.63 17.4242 52.63H14.9501C14.8366 52.63 14.7458 52.5393 14.7458 52.4258V50.3841H17.6171V52.4258Z" fill="white"></path>
  </g>
  <defs>
    <clipPath id="clip0_1272_170">
      <rect width="226.993" height="60" fill="white" transform="translate(0.34375)"></rect>
    </clipPath>
  </defs>
</svg>
