<?xml version="1.0" encoding="UTF-8"?>
<svg xmlns="http://www.w3.org/2000/svg" width="40" height="40" viewBox="0 0 40 40" fill="none">
  <path d="M3.85804 3.85703C4.31169 3.85703 4.67946 3.4815 4.67946 3.01827C4.67946 2.55503 4.31169 2.1795 3.85804 2.1795C3.40438 2.1795 3.03662 2.55503 3.03662 3.01827C3.03662 3.4815 3.40438 3.85703 3.85804 3.85703Z" fill="#484751"></path>
  <path d="M6.47816 3.85703C6.93181 3.85703 7.29957 3.4815 7.29957 3.01827C7.29957 2.55503 6.93181 2.1795 6.47816 2.1795C6.0245 2.1795 5.65674 2.55503 5.65674 3.01827C5.65674 3.4815 6.0245 3.85703 6.47816 3.85703Z" fill="#484751"></path>
  <path d="M9.09777 3.85703C9.55142 3.85703 9.91918 3.4815 9.91918 3.01827C9.91918 2.55503 9.55142 2.1795 9.09777 2.1795C8.64411 2.1795 8.27637 2.55503 8.27637 3.01827C8.27637 3.4815 8.64411 3.85703 9.09777 3.85703Z" fill="#484751"></path>
  <path d="M26.5482 30.3562H26.5405H2.00389C1.18839 30.3562 0.506363 29.675 0.506363 28.8165V2.03971C0.506363 1.18125 1.18839 0.5 2.00389 0.5H30.604C31.4195 0.5 32.1015 1.18126 32.1015 2.03971V27.9523C32.1015 27.9649 32.0972 27.9719 32.0934 27.9758C32.0914 27.9779 32.0897 27.9788 32.0889 27.9792C32.0884 27.9794 32.0875 27.9797 32.085 27.9797C32.0826 27.9797 32.0817 27.9794 32.0812 27.9792C32.0804 27.9788 32.0787 27.9779 32.0767 27.9758C32.0729 27.9719 32.0685 27.9649 32.0685 27.9523V2.03971C32.0685 1.22701 31.4189 0.548451 30.5978 0.548451H1.99768C1.17658 0.548451 0.526897 1.227 0.526897 2.03971V28.8229C0.526897 29.6356 1.17658 30.3141 1.99768 30.3141H26.5343C26.5367 30.3141 26.5376 30.3145 26.5381 30.3147C26.5389 30.3151 26.5406 30.316 26.5426 30.3181C26.5464 30.3219 26.5508 30.329 26.5508 30.3415C26.5508 30.3477 26.5497 30.3525 26.5482 30.3562Z" fill="#484751" stroke="#484751"></path>
  <path d="M32.0787 6.04925H0.516505C0.230255 6.04925 0 5.81414 0 5.52185C0 5.22955 0.230255 4.99445 0.516505 4.99445H32.0787C32.3649 4.99445 32.5952 5.22955 32.5952 5.52185C32.5952 5.81414 32.3649 6.04925 32.0787 6.04925Z" fill="#484751"></path>
  <path d="M24.8354 22.0683C24.7047 22.0683 24.574 22.0175 24.4745 21.9158L22.3649 19.7617L22.2778 19.8507C22.0787 20.054 21.7489 20.054 21.5497 19.8507C21.3506 19.6474 21.3506 19.3106 21.5497 19.1073L21.9978 18.6498C22.1907 18.4528 22.533 18.4528 22.7259 18.6498L25.1963 21.1724C25.3955 21.3757 25.3955 21.7125 25.1963 21.9158C25.0968 22.0175 24.9661 22.0683 24.8354 22.0683Z" fill="#484751"></path>
  <path d="M21.9294 24.8896C21.7987 24.8896 21.668 24.8388 21.5684 24.7371L19.1664 22.2844C18.9673 22.081 18.9673 21.7443 19.1664 21.5409L19.5647 21.1343C19.7638 20.9309 20.0936 20.9309 20.2928 21.1343C20.4919 21.3376 20.4919 21.6744 20.2928 21.8777L20.2616 21.9095L22.3027 23.9937C22.5019 24.197 22.5019 24.5338 22.3027 24.7371C22.2032 24.8388 22.0725 24.8896 21.9418 24.8896H21.9294Z" fill="#484751"></path>
  <path d="M18.7865 22.2335C17.8033 22.2335 16.8201 21.8523 16.0734 21.0898C12.5637 17.506 14.1194 11.1073 14.1879 10.8404C14.2376 10.6434 14.3994 10.4909 14.5986 10.4528C14.7977 10.4146 14.9968 10.5036 15.1151 10.6752C16.8263 13.2232 18.4007 13.9031 19.6577 14.4496C20.3422 14.7482 20.9956 15.0278 21.5059 15.5489C22.234 16.2923 22.6322 17.2709 22.6322 18.3193C22.6322 19.3678 22.234 20.3527 21.5059 21.0898C20.7592 21.8523 19.776 22.2335 18.7928 22.2335H18.7865ZM14.9782 12.2383C14.7168 14.1509 14.5301 18.0207 16.8014 20.34C17.8967 21.4583 19.6764 21.4583 20.7778 20.34C21.3068 19.7999 21.5993 19.0755 21.5993 18.313C21.5993 17.5505 21.3068 16.8261 20.7778 16.286C20.4045 15.9047 19.9004 15.6887 19.2532 15.4091C18.1082 14.9134 16.5961 14.259 14.9782 12.2383Z" fill="#484751"></path>
  <path d="M38.1336 40.0001C37.7292 40.0001 37.3185 39.8666 36.9762 39.587C36.3788 39.1041 35.6321 38.5259 34.7982 37.8714C27.5548 32.2161 20.5479 26.4147 21.388 23.1041C21.4129 23.0151 21.4565 22.9325 21.5249 22.8626L23.4913 20.8547C23.6096 20.734 23.7838 20.6768 23.9518 20.7086C28.2767 21.5727 34.0639 29.4202 37.891 34.6116C38.5381 35.4885 39.1106 36.2701 39.6022 36.9055C40.1872 37.6617 40.1187 38.7483 39.4529 39.4345C39.0919 39.8031 38.6128 39.9937 38.1336 39.9937V40.0001ZM22.3588 23.4981C21.9169 26.4973 31.0147 33.6013 35.4267 37.039C36.2668 37.6935 37.0135 38.2781 37.6172 38.761C37.9532 39.0279 38.4323 39.0024 38.731 38.6911C39.0297 38.3861 39.0608 37.8968 38.7995 37.5537C38.3079 36.9119 37.7229 36.124 37.0758 35.2407C33.647 30.5894 27.9531 22.869 24.0203 21.7951L22.365 23.4854L22.3588 23.4981Z" fill="#484751"></path>
  <path d="M11.0642 18.2812H4.03237C3.74612 18.2812 3.51587 18.0461 3.51587 17.7538C3.51587 17.4615 3.74612 17.2264 4.03237 17.2264H11.0642C11.3504 17.2264 11.5807 17.4615 11.5807 17.7538C11.5807 18.0461 11.3504 18.2812 11.0642 18.2812Z" fill="#484751"></path>
  <path d="M12.4209 20.6069H3.92056C3.63431 20.6069 3.40405 20.3718 3.40405 20.0795C3.40405 19.7872 3.63431 19.5521 3.92056 19.5521H12.4209C12.7072 19.5521 12.9374 19.7872 12.9374 20.0795C12.9374 20.3718 12.7072 20.6069 12.4209 20.6069Z" fill="#484751"></path>
  <path d="M13.7711 22.9325H3.80215C3.5159 22.9325 3.28564 22.6974 3.28564 22.4051C3.28564 22.1128 3.5159 21.8777 3.80215 21.8777H13.7711C14.0574 21.8777 14.2876 22.1128 14.2876 22.4051C14.2876 22.6974 14.0574 22.9325 13.7711 22.9325Z" fill="#484751"></path>
  <path d="M10.9024 15.9555H4.19424C3.90799 15.9555 3.67773 15.7204 3.67773 15.4281V13.4329C3.67773 13.1406 3.90799 12.9055 4.19424 12.9055H10.9024C11.1887 12.9055 11.4189 13.1406 11.4189 13.4329V15.4281C11.4189 15.7204 11.1887 15.9555 10.9024 15.9555ZM4.71073 14.907H10.3859V13.9603H4.71073V14.907Z" fill="#484751"></path>
</svg>
