<?xml version="1.0" encoding="UTF-8"?>
<svg xmlns="http://www.w3.org/2000/svg" width="41" height="40" viewBox="0 0 41 40" fill="none">
  <path d="M40.5 36.6721H0.5V3.32794H40.5V36.6721ZM1.92316 35.2489H39.0768V4.75651H1.92316V35.2489Z" fill="#484751"></path>
  <path d="M37.0693 8.60938H1.21434V10.0325H37.0693V8.60938Z" fill="#484751"></path>
  <path d="M5.02383 5.99567H3.63314V7.41883H5.02383V5.99567Z" fill="#484751"></path>
  <path d="M7.80509 5.99567H6.4144V7.41883H7.80509V5.99567Z" fill="#484751"></path>
  <path d="M10.5865 5.99567H9.19585V7.41883H10.5865V5.99567Z" fill="#484751"></path>
  <path d="M16.2359 32.8355H11.6472V31.0985C11.3225 30.9903 11.0032 30.8604 10.6948 30.7035L9.46645 31.9318L6.2197 28.6851L7.44805 27.4567C7.29654 27.1483 7.16126 26.829 7.05303 26.5044H5.31602V21.9156H7.05303C7.16126 21.5909 7.29113 21.2717 7.44805 20.9632L6.2197 19.7349L9.46645 16.4881L10.6948 17.7165C11.0032 17.565 11.3225 17.4297 11.6472 17.3215V15.5898H16.2359V17.3215C16.5606 17.4297 16.8799 17.5595 17.1883 17.7165L18.4167 16.4881L21.6634 19.7349L20.4351 20.9632C20.5866 21.2717 20.7219 21.5909 20.8301 21.9156H22.5671V26.5044H20.8301C20.7219 26.829 20.592 27.1483 20.4351 27.4567L21.6634 28.6851L18.4167 31.9318L17.1883 30.7035C16.8799 30.855 16.5606 30.9903 16.2359 31.0985V32.8355ZM13.0703 31.4124H14.8128V30.0108L15.3539 29.8756C15.9167 29.7349 16.4524 29.513 16.9502 29.2154L17.4264 28.9286L18.4167 29.9189L19.6504 28.6851L18.6602 27.6948L18.947 27.2186C19.2446 26.7208 19.4665 26.1851 19.6071 25.6223L19.7424 25.0812H21.1439V23.3388H19.7424L19.6071 22.7976C19.4665 22.2349 19.2446 21.6992 18.947 21.2013L18.6602 20.7251L19.6504 19.7349L18.4167 18.5065L17.4264 19.4968L16.9502 19.21C16.4524 18.9124 15.9167 18.6905 15.3539 18.5498L14.8128 18.4145V17.013H13.0703V18.4145L12.5292 18.5498C11.9664 18.6905 11.4307 18.9124 10.9329 19.21L10.4567 19.4968L9.46645 18.5065L8.2381 19.7349L9.22835 20.7251L8.94156 21.2013C8.64394 21.6992 8.42208 22.2349 8.28139 22.7976L8.1461 23.3388H6.74459V25.0812H8.1461L8.28139 25.6223C8.42208 26.1851 8.64394 26.7208 8.94156 27.2186L9.22835 27.6948L8.2381 28.6851L9.46645 29.9189L10.4567 28.9286L10.9329 29.2154C11.4307 29.513 11.9664 29.7349 12.5292 29.8756L13.0703 30.0108V31.4124Z" fill="#484751"></path>
  <path d="M13.9416 28.2035C11.7447 28.2035 9.95354 26.4178 9.95354 24.2154C9.95354 22.013 11.7393 20.2273 13.9416 20.2273C16.144 20.2273 17.9297 22.013 17.9297 24.2154C17.9297 26.4178 16.144 28.2035 13.9416 28.2035ZM13.9416 21.6559C12.5293 21.6559 11.3821 22.803 11.3821 24.2154C11.3821 25.6277 12.5293 26.7749 13.9416 26.7749C15.354 26.7749 16.5012 25.6277 16.5012 24.2154C16.5012 22.803 15.354 21.6559 13.9416 21.6559Z" fill="#484751"></path>
  <path d="M29.5043 23.1548C29.0497 23.1548 28.6006 23.0412 28.1948 22.8139C27.5616 22.4622 27.1017 21.8832 26.9015 21.1905C26.7013 20.4979 26.7824 19.7619 27.1342 19.1234C27.4859 18.4903 28.0649 18.0303 28.7575 17.8301C29.4556 17.6299 30.1861 17.7111 30.8246 18.0628C31.4578 18.4145 31.9177 18.9935 32.1179 19.6862C32.3181 20.3842 32.237 21.1147 31.8852 21.7533C31.5335 22.3864 30.9545 22.8463 30.2619 23.0466C30.0129 23.1169 29.7586 23.1548 29.5043 23.1548ZM29.5043 19.1451C29.3852 19.1451 29.2662 19.1613 29.1471 19.1938C28.8171 19.2912 28.5411 19.5076 28.3733 19.8106C28.2056 20.1137 28.1677 20.46 28.2597 20.7901C28.4545 21.4719 29.1742 21.8669 29.856 21.6721C30.1861 21.5747 30.4621 21.3583 30.6298 21.0552C30.7976 20.7522 30.8355 20.4059 30.7435 20.0758C30.5811 19.513 30.0616 19.1396 29.5043 19.1396V19.1451Z" fill="#484751"></path>
  <path d="M29.2446 27.6461L28.8604 26.3096C28.368 26.2554 27.8864 26.1364 27.421 25.9578L26.4578 26.9427L23.2489 23.8041L24.1472 22.8842C24.0227 22.6191 23.9253 22.3485 23.8442 22.0725C23.7738 21.8345 23.7197 21.5855 23.6818 21.3312L22.4751 21.0119L23.6277 16.6721L24.7478 16.9697C25.0617 16.5368 25.4351 16.1472 25.8463 15.8171L25.5325 14.7295L29.8452 13.4903L30.1591 14.578C30.7327 14.6429 31.2955 14.789 31.8312 15.0217L32.6374 14.1938L35.8463 17.3323L34.9751 18.2251C35.0563 18.4199 35.1212 18.6148 35.1807 18.815C35.2727 19.1288 35.3377 19.4589 35.3701 19.7944L36.6147 20.1245L35.4621 24.4643L34.1255 24.1126C33.8442 24.4697 33.5249 24.789 33.1732 25.0704L33.5574 26.407L29.2446 27.6461ZM27.1017 24.2425L27.5617 24.4643C28.1569 24.7511 28.7792 24.9026 29.4232 24.9189L29.948 24.9297L30.224 25.8821L31.7987 25.4275L31.5227 24.4751L31.961 24.1883C32.4697 23.8528 32.9026 23.4254 33.2435 22.9059L33.5249 22.4784L34.4502 22.7219L34.8723 21.1364L33.9848 20.9037L33.974 20.368C33.9686 19.9622 33.9091 19.5725 33.8063 19.21C33.7305 18.9394 33.6223 18.6689 33.487 18.4037L33.2543 17.9492L33.8279 17.3593L32.6537 16.2122L32.1071 16.7695L31.6364 16.5152C31.0087 16.1743 30.2998 15.9849 29.5909 15.9741L29.066 15.9632L28.8604 15.2598L27.2803 15.7143L27.4859 16.4178L27.0476 16.7046C26.4903 17.0671 26.0087 17.5704 25.6623 18.1602L25.3864 18.6202L24.6288 18.4199L24.2067 20.0054L25.0022 20.2165L25.0346 20.7251C25.0563 21.0552 25.1104 21.3799 25.197 21.6829C25.289 22.013 25.4351 22.3431 25.619 22.6624L25.8842 23.1277L25.2457 23.7825L26.4199 24.9297L27.0909 24.2425H27.1017Z" fill="#484751"></path>
</svg>
