<?xml version="1.0" encoding="UTF-8"?>
<svg xmlns="http://www.w3.org/2000/svg" width="125" height="92" viewBox="0 0 125 92" fill="none">
  <path d="M70.925 89.7691L67.2783 90.7926C64.8703 91.4682 62.3294 91.8273 59.7017 91.8223C54.8668 91.813 50.3064 90.5727 46.3135 88.3955L49.9601 87.3721C53.9534 89.5493 58.5137 90.7896 63.3484 90.7989C65.9763 90.8038 68.5173 90.4451 70.925 89.7691Z" fill="#115957"></path>
  <mask id="mask0_2873_367313" style="mask-type:luminance" maskUnits="userSpaceOnUse" x="46" y="87" width="25" height="5">
    <path d="M70.925 89.7701L67.2783 90.7935C64.8703 91.4692 62.3294 91.8283 59.7017 91.8233C54.8668 91.814 50.3064 90.5737 46.3135 88.3965L49.9601 87.373C53.9534 89.5503 58.5137 90.7905 63.3484 90.7998C65.9763 90.8048 68.5173 90.4461 70.925 89.7701Z" fill="white"></path>
  </mask>
  <g mask="url(#mask0_2873_367313)">
    <path d="M70.925 89.7701L67.2783 90.7935C64.8703 91.4692 62.3294 91.8283 59.7017 91.8233C54.8668 91.814 50.3064 90.5737 46.3135 88.3965L49.9601 87.373C53.9534 89.5503 58.5137 90.7905 63.3484 90.7998C65.9763 90.8048 68.5173 90.4461 70.925 89.7701Z" fill="#115957"></path>
  </g>
  <mask id="mask1_2873_367313" style="mask-type:luminance" maskUnits="userSpaceOnUse" x="31" y="34" width="25" height="46">
    <path d="M51.6938 35.8721L55.3405 34.8486C43.4149 38.1958 34.744 49.3402 34.9456 62.4714C35.04 68.6042 37.0476 74.2798 40.3876 78.915L36.7409 79.9385C33.401 75.3033 31.3933 69.6277 31.299 63.4949C31.0973 50.3636 39.7683 39.2193 51.6938 35.8721Z" fill="white"></path>
  </mask>
  <g mask="url(#mask1_2873_367313)">
    <path d="M40.3876 78.915L36.7409 79.9385C33.401 75.3033 31.3933 69.6277 31.299 63.4949C31.0973 50.3636 39.7683 39.2193 51.6938 35.8721L55.3405 34.8486C43.4149 38.1958 34.744 49.3402 34.9456 62.4714C35.04 68.6042 37.0476 74.2798 40.3876 78.915Z" fill="#115957"></path>
  </g>
  <path d="M49.9601 87.3721L46.3135 88.3959L36.9729 90.3466L40.6195 89.3232L49.9601 87.3721Z" fill="#115957"></path>
  <path d="M38.0099 86.3882L34.3633 87.412L36.7409 79.9385L40.3876 78.915L38.0099 86.3882Z" fill="#115957"></path>
  <mask id="mask2_2873_367313" style="mask-type:luminance" maskUnits="userSpaceOnUse" x="34" y="33" width="58" height="58">
    <path d="M62.8892 33.8223C78.449 33.8521 91.1676 46.6319 91.2946 62.3647C91.4216 78.0982 78.9094 90.8286 63.3488 90.7988C58.5138 90.7895 53.9535 89.5492 49.9606 87.372L40.6203 89.3228C40.4616 89.3559 40.3053 89.3715 40.1526 89.3712C38.6786 89.3682 37.5333 87.8892 38.0107 86.3886L40.3883 78.9151C37.0483 74.2799 35.0407 68.6043 34.9463 62.4715C34.7043 46.7659 47.1559 33.9025 62.6878 33.8226C62.7555 33.8223 62.8215 33.8223 62.8892 33.8226V33.8223Z" fill="white"></path>
  </mask>
  <g mask="url(#mask2_2873_367313)">
    <rect x="32.9177" y="31.5508" width="60.4329" height="66.2413" fill="#00B1AC"></rect>
  </g>
  <path d="M40.6195 89.3228L36.9729 90.3462C36.8142 90.3794 36.6579 90.395 36.5052 90.3946C35.0313 90.3917 33.8859 88.9127 34.3633 87.4121L38.0099 86.3887C37.5326 87.8892 38.6776 89.3685 40.1519 89.3712C40.3049 89.3712 40.4612 89.3559 40.6195 89.3228Z" fill="#F1C36D"></path>
  <mask id="mask3_2873_367313" style="mask-type:luminance" maskUnits="userSpaceOnUse" x="34" y="86" width="7" height="5">
    <path d="M40.6195 89.3238L36.9729 90.3472C36.8142 90.3804 36.6579 90.396 36.5052 90.3956C35.0313 90.3926 33.8859 88.9136 34.3633 87.4131L38.0099 86.3896C37.5326 87.8902 38.6776 89.3695 40.1519 89.3722C40.3049 89.3722 40.4612 89.3569 40.6195 89.3238Z" fill="white"></path>
  </mask>
  <g mask="url(#mask3_2873_367313)">
    <path d="M40.6195 89.3238L36.9729 90.3472C36.8142 90.3804 36.6579 90.396 36.5052 90.3956C35.0313 90.3926 33.8859 88.9136 34.3633 87.4131L38.0099 86.3896C37.5326 87.8902 38.6776 89.3695 40.1519 89.3722C40.3049 89.3722 40.4612 89.3569 40.6195 89.3238Z" fill="#115957"></path>
  </g>
  <path d="M73.0201 49.9521H53.2182C51.5473 49.9521 50.1799 51.3121 50.1799 52.9741V72.6695C50.1799 74.3315 51.5473 75.6915 53.2182 75.6915H73.0201C74.6911 75.6915 76.0584 74.3315 76.0584 72.6695V52.9741C76.0584 51.3121 74.6911 49.9521 73.0201 49.9521ZM73.0184 69.0802C73.0184 69.8537 72.3821 70.487 71.6041 70.487H54.6339C53.8562 70.487 53.2196 69.8541 53.2196 69.0802C53.2196 68.3068 53.8559 67.6735 54.6339 67.6735H71.6041C72.3818 67.6735 73.0184 68.3064 73.0184 69.0802ZM73.0184 62.8218C73.0184 63.5953 72.3821 64.2285 71.6041 64.2285H54.6339C53.8562 64.2285 53.2196 63.5956 53.2196 62.8218C53.2196 62.0483 53.8559 61.4151 54.6339 61.4151H71.6041C72.3818 61.4151 73.0184 62.048 73.0184 62.8218ZM73.0184 56.5634C73.0184 57.3368 72.3821 57.9701 71.6041 57.9701H54.6339C53.8562 57.9701 53.2196 57.3372 53.2196 56.5634C53.2196 55.7899 53.8559 55.1566 54.6339 55.1566H71.6041C72.3818 55.1566 73.0184 55.7895 73.0184 56.5634Z" fill="white"></path>
  <mask id="path-14-outside-1_2873_367313" maskUnits="userSpaceOnUse" x="4.66345" y="4.31836" width="116" height="49" fill="black">
    <rect fill="white" x="4.66345" y="4.31836" width="116" height="49"></rect>
    <path d="M10.4107 36.1173L18.5479 42.0357L17.7486 44.1826L10.6475 43.4795L16.4504 47.6696L15.669 49.8083L5.66345 48.8684L6.39007 46.9167L14.038 47.9418L7.67375 43.4687L8.42943 41.4389L16.0916 42.3064L9.67921 38.082L10.4107 36.1173Z"></path>
    <path d="M15.7448 32.2022C16.0613 31.7125 16.4515 31.3475 16.9154 31.1073C17.3715 30.8621 17.8772 30.7702 18.4326 30.8316C18.9853 30.8803 19.5531 31.093 20.1361 31.4699L23.9256 33.9193L22.8705 35.5517L19.3025 33.2455C18.7895 32.9138 18.314 32.7884 17.8762 32.869C17.4305 32.9447 17.0645 33.204 16.7781 33.6471C16.4867 34.0979 16.3955 34.546 16.5045 34.9911C16.6107 35.4235 16.9204 35.8055 17.4334 36.1371L21.0014 38.4434L19.9462 40.0758L11.3178 34.4986L12.373 32.8662L15.3463 34.788C15.2021 34.3973 15.1653 33.9768 15.236 33.5265C15.2988 33.0712 15.4684 32.6297 15.7448 32.2022Z"></path>
    <path d="M21.8441 30.5815C21.2803 30.0462 20.8854 29.4607 20.6593 28.825C20.4397 28.1825 20.394 27.5585 20.5223 26.9528C20.657 26.3404 20.9506 25.7959 21.403 25.3193C21.7982 24.9032 22.2262 24.6203 22.6871 24.4709C23.1545 24.3147 23.6049 24.2637 24.0384 24.3179L23.243 23.5628L24.5908 22.1431L30.1689 27.4388L28.8211 28.8585L28.0055 28.0842C28.0953 28.514 28.0744 28.9728 27.9431 29.4607C27.8114 29.9355 27.548 30.381 27.1529 30.7972C26.7068 31.2671 26.1781 31.582 25.5668 31.7419C24.9619 31.8951 24.333 31.8787 23.68 31.6927C23.0267 31.4936 22.4147 31.1232 21.8441 30.5815ZM26.032 26.2106C25.6897 25.8856 25.334 25.6755 24.9649 25.5804C24.5891 25.4788 24.229 25.4816 23.8848 25.5888C23.5339 25.6896 23.2342 25.8708 22.9856 26.1326C22.7371 26.3944 22.5715 26.6966 22.4887 27.0392C22.4059 27.3818 22.4218 27.7415 22.5364 28.1182C22.6506 28.4819 22.8755 28.8231 23.2111 29.1417C23.5467 29.4603 23.9058 29.6736 24.2883 29.7815C24.6705 29.8763 25.0339 29.8767 25.3785 29.7827C25.7294 29.6819 26.0259 29.504 26.2681 29.2489C26.5166 28.9871 26.6855 28.6816 26.7746 28.3322C26.857 27.9766 26.8411 27.6169 26.7269 27.2532C26.606 26.8832 26.3744 26.5357 26.032 26.2106Z"></path>
    <path d="M29.9301 20.1329L32.1886 23.0899C32.3459 23.2958 32.5089 23.4101 32.6775 23.4327C32.8479 23.4423 33.0508 23.3572 33.2862 23.1774L34.0034 22.6297L34.9978 23.9316L34.0269 24.6732C32.7249 25.6676 31.5908 25.5323 30.6244 24.2671L28.3743 21.3212L27.6461 21.8774L26.677 20.6085L27.4052 20.0523L26.2506 18.5407L27.8064 17.3525L28.9609 18.8641L30.3291 17.8191L31.2982 19.0879L29.9301 20.1329Z"></path>
    <path d="M39.4872 21.4809C38.9376 21.7876 38.3905 21.9658 37.8458 22.0155C37.2966 22.057 36.7979 21.9802 36.3498 21.7851C35.9098 21.5855 35.5626 21.2864 35.3083 20.8878L37.0177 19.9337C37.1944 20.1742 37.4392 20.3185 37.7521 20.3664C38.0732 20.4098 38.3994 20.3391 38.7307 20.1541C39.054 19.9737 39.2685 19.7692 39.3741 19.5406C39.4878 19.3075 39.4883 19.09 39.3755 18.8879C39.2537 18.6697 39.0503 18.5712 38.7654 18.5925C38.484 18.6011 38.0648 18.6761 37.5077 18.8175C36.9389 18.9759 36.4568 19.0807 36.0613 19.1319C35.674 19.1785 35.2887 19.1338 34.9054 18.998C34.5302 18.8576 34.2163 18.5611 33.9637 18.1085C33.7562 17.7367 33.6718 17.3386 33.7105 16.9142C33.7573 16.4853 33.9291 16.0714 34.2259 15.6725C34.5307 15.2692 34.9539 14.9164 35.4954 14.6141C36.2955 14.1675 37.0468 14.0132 37.7492 14.1511C38.4471 14.281 39.0097 14.6719 39.4372 15.3237L37.8127 16.2304C37.6396 15.9772 37.4091 15.8303 37.1214 15.7895C36.8372 15.7361 36.5294 15.8019 36.198 15.9869C35.8909 16.1583 35.6841 16.3479 35.5775 16.5558C35.479 16.7592 35.4862 16.9619 35.5989 17.164C35.7252 17.3903 35.9354 17.5009 36.2293 17.4958C36.5188 17.4826 36.9358 17.4036 37.4803 17.2586C38.0329 17.1092 38.5029 17.0112 38.8902 16.9646C39.2776 16.9179 39.6612 16.9689 40.0408 17.1173C40.4241 17.2532 40.7438 17.5412 41 17.9812C41.2165 18.3691 41.3014 18.7775 41.2546 19.2065C41.2159 19.6309 41.0441 20.0448 40.7393 20.4481C40.438 20.8389 40.0206 21.1831 39.4872 21.4809Z"></path>
    <path d="M48.7228 15.5995L45.0765 16.8651L45.0787 18.819L43.1506 19.4882L43.2605 9.17737L45.3984 8.4353L51.8728 16.4607L49.9316 17.1345L48.7228 15.5995ZM47.7145 14.3035L45.0604 10.9334L45.065 15.2231L47.7145 14.3035Z"></path>
    <path d="M53.6262 9.79822C53.8234 9.41444 54.1207 9.077 54.5183 8.7859C54.9237 8.48431 55.4058 8.29324 55.9646 8.21267C56.6151 8.1189 57.2245 8.19469 57.7929 8.44005C58.3705 8.68408 58.8533 9.08205 59.2415 9.63393C59.6375 10.1753 59.8916 10.8354 60.0039 11.6141C60.1162 12.3928 60.0601 13.1069 59.8358 13.7564C59.6194 14.3955 59.2692 14.9182 58.7854 15.3246C58.3108 15.7297 57.7483 15.9791 57.0978 16.0729C56.539 16.1535 56.0278 16.1103 55.5642 15.9433C55.1098 15.775 54.7246 15.536 54.4088 15.2262L55.0883 19.9396L53.1645 20.2169L51.5439 8.97625L53.4677 8.69889L53.6262 9.79822ZM58.0388 11.8974C57.9728 11.4393 57.8198 11.0593 57.5799 10.7572C57.3478 10.4447 57.0635 10.2238 56.7269 10.0946C56.3995 9.96417 56.0571 9.92469 55.6999 9.9762C55.3517 10.0264 55.0351 10.1655 54.7501 10.3937C54.4729 10.6113 54.2625 10.9035 54.119 11.2702C53.9846 11.6356 53.9505 12.0473 54.0165 12.5053C54.0825 12.9634 54.2316 13.3487 54.4637 13.6612C54.7049 13.9725 54.9899 14.1979 55.3187 14.3375C55.6552 14.4667 55.9976 14.5062 56.3457 14.456C56.703 14.4045 57.0196 14.2653 57.2955 14.0385C57.5805 13.8104 57.7903 13.5136 57.9246 13.1482C58.0681 12.7816 58.1062 12.3646 58.0388 11.8974Z"></path>
    <path d="M64.1746 9.14892C64.441 8.80952 64.797 8.53464 65.2426 8.32426C65.6978 8.10508 66.2074 8.00895 66.7714 8.03589C67.4278 8.06724 68.0118 8.2573 68.5233 8.60605C69.0441 8.95525 69.4427 9.43761 69.719 10.0531C70.0051 10.6598 70.1294 11.3561 70.0919 12.142C70.0543 12.9278 69.8638 13.6183 69.5203 14.2135C69.1865 14.7999 68.7436 15.2467 68.1915 15.5539C67.6486 15.8615 67.0489 15.9997 66.3925 15.9683C65.8286 15.9414 65.3348 15.802 64.9113 15.5501C64.4971 15.2987 64.1643 14.9909 63.913 14.6267L63.6858 19.3834L61.7443 19.2907L62.2861 7.94675L64.2276 8.03949L64.1746 9.14892ZM68.1088 12.0472C68.1308 11.585 68.0527 11.1828 67.8745 10.8407C67.7059 10.4898 67.4687 10.219 67.1627 10.0283C66.866 9.83809 66.5374 9.73436 66.1768 9.71714C65.8255 9.70036 65.4882 9.77691 65.1651 9.9468C64.8516 10.1079 64.5896 10.3548 64.3791 10.6876C64.1779 11.0209 64.0662 11.4186 64.0441 11.8809C64.022 12.3432 64.0953 12.7497 64.2639 13.1007C64.4417 13.452 64.6787 13.7274 64.975 13.9269C65.2809 14.1176 65.6096 14.2213 65.9609 14.2381C66.3214 14.2553 66.6587 14.1787 66.9726 14.0084C67.2958 13.8385 67.558 13.587 67.7592 13.2537C67.9697 12.9209 68.0862 12.5188 68.1088 12.0472Z"></path>
    <path d="M85.4412 6.92298L76.9089 20.58L75.1055 19.9753L83.6378 6.31836L85.4412 6.92298Z"></path>
    <path d="M93.7457 17.0483L92.4074 19.0761L95.1305 20.8733L94.2817 22.1595L91.5586 20.3624L90.1438 22.5061L93.2146 24.5327L92.3428 25.8537L87.6497 22.7565L92.9952 14.6567L97.6882 17.7538L96.8165 19.0748L93.7457 17.0483Z"></path>
    <path d="M105.525 28.0193C106.189 28.6901 106.516 29.4345 106.506 30.2526C106.509 31.0707 106.142 31.8445 105.405 32.574L102.2 35.7495L100.832 34.3685L103.85 31.3787C104.277 30.9554 104.495 30.5244 104.504 30.086C104.519 29.641 104.341 29.2311 103.97 28.8562C103.599 28.4814 103.187 28.2962 102.736 28.3006C102.297 28.3051 101.864 28.519 101.437 28.9424L98.4183 31.9322L97.0504 30.5512L100.069 27.5614C100.496 27.1381 100.714 26.7071 100.723 26.2687C100.738 25.8237 100.56 25.4138 100.189 25.0389C99.811 24.6575 99.3963 24.469 98.9446 24.4734C98.5061 24.4779 98.0731 24.6918 97.6457 25.1152L94.6274 28.105L93.2595 26.7241L98.7241 21.3112L100.092 22.6921L99.431 23.3468C99.8371 23.2963 100.243 23.3441 100.648 23.49C101.059 23.6425 101.431 23.8864 101.763 24.2218C102.187 24.6492 102.473 25.1218 102.621 25.6395C102.775 26.1508 102.776 26.6646 102.623 27.1809C103.115 27.0458 103.622 27.0515 104.145 27.1979C104.674 27.351 105.134 27.6248 105.525 28.0193Z"></path>
    <path d="M105.571 34.437C106.231 34.0254 106.897 33.7899 107.569 33.7305C108.246 33.679 108.861 33.7913 109.415 34.0673C109.974 34.3513 110.428 34.772 110.776 35.3295C111.08 35.8163 111.246 36.3016 111.275 36.7853C111.309 37.2769 111.246 37.7257 111.084 38.1318L112.015 37.5511L113.051 39.2118L106.526 43.2839L105.49 41.6232L106.444 41.0278C106.005 41.0069 105.566 40.8717 105.127 40.6222C104.7 40.3756 104.335 40.0089 104.031 39.5221C103.688 38.9724 103.516 38.3817 103.514 37.7499C103.518 37.1259 103.691 36.5211 104.035 35.9356C104.392 35.3531 104.904 34.8536 105.571 34.437ZM108.752 39.5871C109.153 39.3372 109.445 39.0455 109.63 38.7121C109.823 38.3737 109.91 38.0245 109.893 37.6644C109.883 37.2994 109.783 36.9638 109.592 36.6576C109.401 36.3514 109.15 36.1152 108.839 35.9492C108.528 35.7832 108.176 35.7084 107.782 35.7248C107.401 35.7442 107.015 35.8763 106.622 36.1214C106.23 36.3664 105.933 36.6605 105.733 37.0038C105.545 37.35 105.454 37.7016 105.458 38.0588C105.468 38.4237 105.566 38.7554 105.752 39.0538C105.943 39.36 106.196 39.6001 106.512 39.774C106.836 39.9429 107.188 40.0177 107.569 39.9984C107.957 39.9741 108.352 39.837 108.752 39.5871Z"></path>
    <path d="M115.228 42.1938C115.093 41.8789 115.078 41.5732 115.183 41.2767C115.3 40.9851 115.507 40.7757 115.805 40.6483C116.103 40.5209 116.393 40.5175 116.677 40.638C116.972 40.7634 117.187 40.9836 117.321 41.2984C117.456 41.6133 117.465 41.9165 117.348 42.2081C117.243 42.5046 117.042 42.7165 116.744 42.8439C116.446 42.9713 116.15 42.9723 115.854 42.8469C115.571 42.7263 115.363 42.5086 115.228 42.1938ZM114.762 43.4349L107.69 46.4594L106.926 44.6722L113.998 41.6477L114.762 43.4349Z"></path>
    <path d="M119.341 48.954L109.488 51.8669L108.937 50.0029L118.789 47.0901L119.341 48.954Z"></path>
  </mask>
  <path d="M10.4107 36.1173L18.5479 42.0357L17.7486 44.1826L10.6475 43.4795L16.4504 47.6696L15.669 49.8083L5.66345 48.8684L6.39007 46.9167L14.038 47.9418L7.67375 43.4687L8.42943 41.4389L16.0916 42.3064L9.67921 38.082L10.4107 36.1173Z" fill="white"></path>
  <path d="M15.7448 32.2022C16.0613 31.7125 16.4515 31.3475 16.9154 31.1073C17.3715 30.8621 17.8772 30.7702 18.4326 30.8316C18.9853 30.8803 19.5531 31.093 20.1361 31.4699L23.9256 33.9193L22.8705 35.5517L19.3025 33.2455C18.7895 32.9138 18.314 32.7884 17.8762 32.869C17.4305 32.9447 17.0645 33.204 16.7781 33.6471C16.4867 34.0979 16.3955 34.546 16.5045 34.9911C16.6107 35.4235 16.9204 35.8055 17.4334 36.1371L21.0014 38.4434L19.9462 40.0758L11.3178 34.4986L12.373 32.8662L15.3463 34.788C15.2021 34.3973 15.1653 33.9768 15.236 33.5265C15.2988 33.0712 15.4684 32.6297 15.7448 32.2022Z" fill="white"></path>
  <path d="M21.8441 30.5815C21.2803 30.0462 20.8854 29.4607 20.6593 28.825C20.4397 28.1825 20.394 27.5585 20.5223 26.9528C20.657 26.3404 20.9506 25.7959 21.403 25.3193C21.7982 24.9032 22.2262 24.6203 22.6871 24.4709C23.1545 24.3147 23.6049 24.2637 24.0384 24.3179L23.243 23.5628L24.5908 22.1431L30.1689 27.4388L28.8211 28.8585L28.0055 28.0842C28.0953 28.514 28.0744 28.9728 27.9431 29.4607C27.8114 29.9355 27.548 30.381 27.1529 30.7972C26.7068 31.2671 26.1781 31.582 25.5668 31.7419C24.9619 31.8951 24.333 31.8787 23.68 31.6927C23.0267 31.4936 22.4147 31.1232 21.8441 30.5815ZM26.032 26.2106C25.6897 25.8856 25.334 25.6755 24.9649 25.5804C24.5891 25.4788 24.229 25.4816 23.8848 25.5888C23.5339 25.6896 23.2342 25.8708 22.9856 26.1326C22.7371 26.3944 22.5715 26.6966 22.4887 27.0392C22.4059 27.3818 22.4218 27.7415 22.5364 28.1182C22.6506 28.4819 22.8755 28.8231 23.2111 29.1417C23.5467 29.4603 23.9058 29.6736 24.2883 29.7815C24.6705 29.8763 25.0339 29.8767 25.3785 29.7827C25.7294 29.6819 26.0259 29.504 26.2681 29.2489C26.5166 28.9871 26.6855 28.6816 26.7746 28.3322C26.857 27.9766 26.8411 27.6169 26.7269 27.2532C26.606 26.8832 26.3744 26.5357 26.032 26.2106Z" fill="white"></path>
  <path d="M29.9301 20.1329L32.1886 23.0899C32.3459 23.2958 32.5089 23.4101 32.6775 23.4327C32.8479 23.4423 33.0508 23.3572 33.2862 23.1774L34.0034 22.6297L34.9978 23.9316L34.0269 24.6732C32.7249 25.6676 31.5908 25.5323 30.6244 24.2671L28.3743 21.3212L27.6461 21.8774L26.677 20.6085L27.4052 20.0523L26.2506 18.5407L27.8064 17.3525L28.9609 18.8641L30.3291 17.8191L31.2982 19.0879L29.9301 20.1329Z" fill="white"></path>
  <path d="M39.4872 21.4809C38.9376 21.7876 38.3905 21.9658 37.8458 22.0155C37.2966 22.057 36.7979 21.9802 36.3498 21.7851C35.9098 21.5855 35.5626 21.2864 35.3083 20.8878L37.0177 19.9337C37.1944 20.1742 37.4392 20.3185 37.7521 20.3664C38.0732 20.4098 38.3994 20.3391 38.7307 20.1541C39.054 19.9737 39.2685 19.7692 39.3741 19.5406C39.4878 19.3075 39.4883 19.09 39.3755 18.8879C39.2537 18.6697 39.0503 18.5712 38.7654 18.5925C38.484 18.6011 38.0648 18.6761 37.5077 18.8175C36.9389 18.9759 36.4568 19.0807 36.0613 19.1319C35.674 19.1785 35.2887 19.1338 34.9054 18.998C34.5302 18.8576 34.2163 18.5611 33.9637 18.1085C33.7562 17.7367 33.6718 17.3386 33.7105 16.9142C33.7573 16.4853 33.9291 16.0714 34.2259 15.6725C34.5307 15.2692 34.9539 14.9164 35.4954 14.6141C36.2955 14.1675 37.0468 14.0132 37.7492 14.1511C38.4471 14.281 39.0097 14.6719 39.4372 15.3237L37.8127 16.2304C37.6396 15.9772 37.4091 15.8303 37.1214 15.7895C36.8372 15.7361 36.5294 15.8019 36.198 15.9869C35.8909 16.1583 35.6841 16.3479 35.5775 16.5558C35.479 16.7592 35.4862 16.9619 35.5989 17.164C35.7252 17.3903 35.9354 17.5009 36.2293 17.4958C36.5188 17.4826 36.9358 17.4036 37.4803 17.2586C38.0329 17.1092 38.5029 17.0112 38.8902 16.9646C39.2776 16.9179 39.6612 16.9689 40.0408 17.1173C40.4241 17.2532 40.7438 17.5412 41 17.9812C41.2165 18.3691 41.3014 18.7775 41.2546 19.2065C41.2159 19.6309 41.0441 20.0448 40.7393 20.4481C40.438 20.8389 40.0206 21.1831 39.4872 21.4809Z" fill="white"></path>
  <path d="M48.7228 15.5995L45.0765 16.8651L45.0787 18.819L43.1506 19.4882L43.2605 9.17737L45.3984 8.4353L51.8728 16.4607L49.9316 17.1345L48.7228 15.5995ZM47.7145 14.3035L45.0604 10.9334L45.065 15.2231L47.7145 14.3035Z" fill="white"></path>
  <path d="M53.6262 9.79822C53.8234 9.41444 54.1207 9.077 54.5183 8.7859C54.9237 8.48431 55.4058 8.29324 55.9646 8.21267C56.6151 8.1189 57.2245 8.19469 57.7929 8.44005C58.3705 8.68408 58.8533 9.08205 59.2415 9.63393C59.6375 10.1753 59.8916 10.8354 60.0039 11.6141C60.1162 12.3928 60.0601 13.1069 59.8358 13.7564C59.6194 14.3955 59.2692 14.9182 58.7854 15.3246C58.3108 15.7297 57.7483 15.9791 57.0978 16.0729C56.539 16.1535 56.0278 16.1103 55.5642 15.9433C55.1098 15.775 54.7246 15.536 54.4088 15.2262L55.0883 19.9396L53.1645 20.2169L51.5439 8.97625L53.4677 8.69889L53.6262 9.79822ZM58.0388 11.8974C57.9728 11.4393 57.8198 11.0593 57.5799 10.7572C57.3478 10.4447 57.0635 10.2238 56.7269 10.0946C56.3995 9.96417 56.0571 9.92469 55.6999 9.9762C55.3517 10.0264 55.0351 10.1655 54.7501 10.3937C54.4729 10.6113 54.2625 10.9035 54.119 11.2702C53.9846 11.6356 53.9505 12.0473 54.0165 12.5053C54.0825 12.9634 54.2316 13.3487 54.4637 13.6612C54.7049 13.9725 54.9899 14.1979 55.3187 14.3375C55.6552 14.4667 55.9976 14.5062 56.3457 14.456C56.703 14.4045 57.0196 14.2653 57.2955 14.0385C57.5805 13.8104 57.7903 13.5136 57.9246 13.1482C58.0681 12.7816 58.1062 12.3646 58.0388 11.8974Z" fill="white"></path>
  <path d="M64.1746 9.14892C64.441 8.80952 64.797 8.53464 65.2426 8.32426C65.6978 8.10508 66.2074 8.00895 66.7714 8.03589C67.4278 8.06724 68.0118 8.2573 68.5233 8.60605C69.0441 8.95525 69.4427 9.43761 69.719 10.0531C70.0051 10.6598 70.1294 11.3561 70.0919 12.142C70.0543 12.9278 69.8638 13.6183 69.5203 14.2135C69.1865 14.7999 68.7436 15.2467 68.1915 15.5539C67.6486 15.8615 67.0489 15.9997 66.3925 15.9683C65.8286 15.9414 65.3348 15.802 64.9113 15.5501C64.4971 15.2987 64.1643 14.9909 63.913 14.6267L63.6858 19.3834L61.7443 19.2907L62.2861 7.94675L64.2276 8.03949L64.1746 9.14892ZM68.1088 12.0472C68.1308 11.585 68.0527 11.1828 67.8745 10.8407C67.7059 10.4898 67.4687 10.219 67.1627 10.0283C66.866 9.83809 66.5374 9.73436 66.1768 9.71714C65.8255 9.70036 65.4882 9.77691 65.1651 9.9468C64.8516 10.1079 64.5896 10.3548 64.3791 10.6876C64.1779 11.0209 64.0662 11.4186 64.0441 11.8809C64.022 12.3432 64.0953 12.7497 64.2639 13.1007C64.4417 13.452 64.6787 13.7274 64.975 13.9269C65.2809 14.1176 65.6096 14.2213 65.9609 14.2381C66.3214 14.2553 66.6587 14.1787 66.9726 14.0084C67.2958 13.8385 67.558 13.587 67.7592 13.2537C67.9697 12.9209 68.0862 12.5188 68.1088 12.0472Z" fill="white"></path>
  <path d="M85.4412 6.92298L76.9089 20.58L75.1055 19.9753L83.6378 6.31836L85.4412 6.92298Z" fill="white"></path>
  <path d="M93.7457 17.0483L92.4074 19.0761L95.1305 20.8733L94.2817 22.1595L91.5586 20.3624L90.1438 22.5061L93.2146 24.5327L92.3428 25.8537L87.6497 22.7565L92.9952 14.6567L97.6882 17.7538L96.8165 19.0748L93.7457 17.0483Z" fill="white"></path>
  <path d="M105.525 28.0193C106.189 28.6901 106.516 29.4345 106.506 30.2526C106.509 31.0707 106.142 31.8445 105.405 32.574L102.2 35.7495L100.832 34.3685L103.85 31.3787C104.277 30.9554 104.495 30.5244 104.504 30.086C104.519 29.641 104.341 29.2311 103.97 28.8562C103.599 28.4814 103.187 28.2962 102.736 28.3006C102.297 28.3051 101.864 28.519 101.437 28.9424L98.4183 31.9322L97.0504 30.5512L100.069 27.5614C100.496 27.1381 100.714 26.7071 100.723 26.2687C100.738 25.8237 100.56 25.4138 100.189 25.0389C99.811 24.6575 99.3963 24.469 98.9446 24.4734C98.5061 24.4779 98.0731 24.6918 97.6457 25.1152L94.6274 28.105L93.2595 26.7241L98.7241 21.3112L100.092 22.6921L99.431 23.3468C99.8371 23.2963 100.243 23.3441 100.648 23.49C101.059 23.6425 101.431 23.8864 101.763 24.2218C102.187 24.6492 102.473 25.1218 102.621 25.6395C102.775 26.1508 102.776 26.6646 102.623 27.1809C103.115 27.0458 103.622 27.0515 104.145 27.1979C104.674 27.351 105.134 27.6248 105.525 28.0193Z" fill="white"></path>
  <path d="M105.571 34.437C106.231 34.0254 106.897 33.7899 107.569 33.7305C108.246 33.679 108.861 33.7913 109.415 34.0673C109.974 34.3513 110.428 34.772 110.776 35.3295C111.08 35.8163 111.246 36.3016 111.275 36.7853C111.309 37.2769 111.246 37.7257 111.084 38.1318L112.015 37.5511L113.051 39.2118L106.526 43.2839L105.49 41.6232L106.444 41.0278C106.005 41.0069 105.566 40.8717 105.127 40.6222C104.7 40.3756 104.335 40.0089 104.031 39.5221C103.688 38.9724 103.516 38.3817 103.514 37.7499C103.518 37.1259 103.691 36.5211 104.035 35.9356C104.392 35.3531 104.904 34.8536 105.571 34.437ZM108.752 39.5871C109.153 39.3372 109.445 39.0455 109.63 38.7121C109.823 38.3737 109.91 38.0245 109.893 37.6644C109.883 37.2994 109.783 36.9638 109.592 36.6576C109.401 36.3514 109.15 36.1152 108.839 35.9492C108.528 35.7832 108.176 35.7084 107.782 35.7248C107.401 35.7442 107.015 35.8763 106.622 36.1214C106.23 36.3664 105.933 36.6605 105.733 37.0038C105.545 37.35 105.454 37.7016 105.458 38.0588C105.468 38.4237 105.566 38.7554 105.752 39.0538C105.943 39.36 106.196 39.6001 106.512 39.774C106.836 39.9429 107.188 40.0177 107.569 39.9984C107.957 39.9741 108.352 39.837 108.752 39.5871Z" fill="white"></path>
  <path d="M115.228 42.1938C115.093 41.8789 115.078 41.5732 115.183 41.2767C115.3 40.9851 115.507 40.7757 115.805 40.6483C116.103 40.5209 116.393 40.5175 116.677 40.638C116.972 40.7634 117.187 40.9836 117.321 41.2984C117.456 41.6133 117.465 41.9165 117.348 42.2081C117.243 42.5046 117.042 42.7165 116.744 42.8439C116.446 42.9713 116.15 42.9723 115.854 42.8469C115.571 42.7263 115.363 42.5086 115.228 42.1938ZM114.762 43.4349L107.69 46.4594L106.926 44.6722L113.998 41.6477L114.762 43.4349Z" fill="white"></path>
  <path d="M119.341 48.954L109.488 51.8669L108.937 50.0029L118.789 47.0901L119.341 48.954Z" fill="white"></path>
  <path d="M10.4107 36.1173L18.5479 42.0357L17.7486 44.1826L10.6475 43.4795L16.4504 47.6696L15.669 49.8083L5.66345 48.8684L6.39007 46.9167L14.038 47.9418L7.67375 43.4687L8.42943 41.4389L16.0916 42.3064L9.67921 38.082L10.4107 36.1173Z" stroke="#00B1AC" stroke-width="2" stroke-linejoin="round" mask="url(#path-14-outside-1_2873_367313)"></path>
  <path d="M15.7448 32.2022C16.0613 31.7125 16.4515 31.3475 16.9154 31.1073C17.3715 30.8621 17.8772 30.7702 18.4326 30.8316C18.9853 30.8803 19.5531 31.093 20.1361 31.4699L23.9256 33.9193L22.8705 35.5517L19.3025 33.2455C18.7895 32.9138 18.314 32.7884 17.8762 32.869C17.4305 32.9447 17.0645 33.204 16.7781 33.6471C16.4867 34.0979 16.3955 34.546 16.5045 34.9911C16.6107 35.4235 16.9204 35.8055 17.4334 36.1371L21.0014 38.4434L19.9462 40.0758L11.3178 34.4986L12.373 32.8662L15.3463 34.788C15.2021 34.3973 15.1653 33.9768 15.236 33.5265C15.2988 33.0712 15.4684 32.6297 15.7448 32.2022Z" stroke="#00B1AC" stroke-width="2" stroke-linejoin="round" mask="url(#path-14-outside-1_2873_367313)"></path>
  <path d="M21.8441 30.5815C21.2803 30.0462 20.8854 29.4607 20.6593 28.825C20.4397 28.1825 20.394 27.5585 20.5223 26.9528C20.657 26.3404 20.9506 25.7959 21.403 25.3193C21.7982 24.9032 22.2262 24.6203 22.6871 24.4709C23.1545 24.3147 23.6049 24.2637 24.0384 24.3179L23.243 23.5628L24.5908 22.1431L30.1689 27.4388L28.8211 28.8585L28.0055 28.0842C28.0953 28.514 28.0744 28.9728 27.9431 29.4607C27.8114 29.9355 27.548 30.381 27.1529 30.7972C26.7068 31.2671 26.1781 31.582 25.5668 31.7419C24.9619 31.8951 24.333 31.8787 23.68 31.6927C23.0267 31.4936 22.4147 31.1232 21.8441 30.5815ZM26.032 26.2106C25.6897 25.8856 25.334 25.6755 24.9649 25.5804C24.5891 25.4788 24.229 25.4816 23.8848 25.5888C23.5339 25.6896 23.2342 25.8708 22.9856 26.1326C22.7371 26.3944 22.5715 26.6966 22.4887 27.0392C22.4059 27.3818 22.4218 27.7415 22.5364 28.1182C22.6506 28.4819 22.8755 28.8231 23.2111 29.1417C23.5467 29.4603 23.9058 29.6736 24.2883 29.7815C24.6705 29.8763 25.0339 29.8767 25.3785 29.7827C25.7294 29.6819 26.0259 29.504 26.2681 29.2489C26.5166 28.9871 26.6855 28.6816 26.7746 28.3322C26.857 27.9766 26.8411 27.6169 26.7269 27.2532C26.606 26.8832 26.3744 26.5357 26.032 26.2106Z" stroke="#00B1AC" stroke-width="2" stroke-linejoin="round" mask="url(#path-14-outside-1_2873_367313)"></path>
  <path d="M29.9301 20.1329L32.1886 23.0899C32.3459 23.2958 32.5089 23.4101 32.6775 23.4327C32.8479 23.4423 33.0508 23.3572 33.2862 23.1774L34.0034 22.6297L34.9978 23.9316L34.0269 24.6732C32.7249 25.6676 31.5908 25.5323 30.6244 24.2671L28.3743 21.3212L27.6461 21.8774L26.677 20.6085L27.4052 20.0523L26.2506 18.5407L27.8064 17.3525L28.9609 18.8641L30.3291 17.8191L31.2982 19.0879L29.9301 20.1329Z" stroke="#00B1AC" stroke-width="2" stroke-linejoin="round" mask="url(#path-14-outside-1_2873_367313)"></path>
  <path d="M39.4872 21.4809C38.9376 21.7876 38.3905 21.9658 37.8458 22.0155C37.2966 22.057 36.7979 21.9802 36.3498 21.7851C35.9098 21.5855 35.5626 21.2864 35.3083 20.8878L37.0177 19.9337C37.1944 20.1742 37.4392 20.3185 37.7521 20.3664C38.0732 20.4098 38.3994 20.3391 38.7307 20.1541C39.054 19.9737 39.2685 19.7692 39.3741 19.5406C39.4878 19.3075 39.4883 19.09 39.3755 18.8879C39.2537 18.6697 39.0503 18.5712 38.7654 18.5925C38.484 18.6011 38.0648 18.6761 37.5077 18.8175C36.9389 18.9759 36.4568 19.0807 36.0613 19.1319C35.674 19.1785 35.2887 19.1338 34.9054 18.998C34.5302 18.8576 34.2163 18.5611 33.9637 18.1085C33.7562 17.7367 33.6718 17.3386 33.7105 16.9142C33.7573 16.4853 33.9291 16.0714 34.2259 15.6725C34.5307 15.2692 34.9539 14.9164 35.4954 14.6141C36.2955 14.1675 37.0468 14.0132 37.7492 14.1511C38.4471 14.281 39.0097 14.6719 39.4372 15.3237L37.8127 16.2304C37.6396 15.9772 37.4091 15.8303 37.1214 15.7895C36.8372 15.7361 36.5294 15.8019 36.198 15.9869C35.8909 16.1583 35.6841 16.3479 35.5775 16.5558C35.479 16.7592 35.4862 16.9619 35.5989 17.164C35.7252 17.3903 35.9354 17.5009 36.2293 17.4958C36.5188 17.4826 36.9358 17.4036 37.4803 17.2586C38.0329 17.1092 38.5029 17.0112 38.8902 16.9646C39.2776 16.9179 39.6612 16.9689 40.0408 17.1173C40.4241 17.2532 40.7438 17.5412 41 17.9812C41.2165 18.3691 41.3014 18.7775 41.2546 19.2065C41.2159 19.6309 41.0441 20.0448 40.7393 20.4481C40.438 20.8389 40.0206 21.1831 39.4872 21.4809Z" stroke="#00B1AC" stroke-width="2" stroke-linejoin="round" mask="url(#path-14-outside-1_2873_367313)"></path>
  <path d="M48.7228 15.5995L45.0765 16.8651L45.0787 18.819L43.1506 19.4882L43.2605 9.17737L45.3984 8.4353L51.8728 16.4607L49.9316 17.1345L48.7228 15.5995ZM47.7145 14.3035L45.0604 10.9334L45.065 15.2231L47.7145 14.3035Z" stroke="#00B1AC" stroke-width="2" stroke-linejoin="round" mask="url(#path-14-outside-1_2873_367313)"></path>
  <path d="M53.6262 9.79822C53.8234 9.41444 54.1207 9.077 54.5183 8.7859C54.9237 8.48431 55.4058 8.29324 55.9646 8.21267C56.6151 8.1189 57.2245 8.19469 57.7929 8.44005C58.3705 8.68408 58.8533 9.08205 59.2415 9.63393C59.6375 10.1753 59.8916 10.8354 60.0039 11.6141C60.1162 12.3928 60.0601 13.1069 59.8358 13.7564C59.6194 14.3955 59.2692 14.9182 58.7854 15.3246C58.3108 15.7297 57.7483 15.9791 57.0978 16.0729C56.539 16.1535 56.0278 16.1103 55.5642 15.9433C55.1098 15.775 54.7246 15.536 54.4088 15.2262L55.0883 19.9396L53.1645 20.2169L51.5439 8.97625L53.4677 8.69889L53.6262 9.79822ZM58.0388 11.8974C57.9728 11.4393 57.8198 11.0593 57.5799 10.7572C57.3478 10.4447 57.0635 10.2238 56.7269 10.0946C56.3995 9.96417 56.0571 9.92469 55.6999 9.9762C55.3517 10.0264 55.0351 10.1655 54.7501 10.3937C54.4729 10.6113 54.2625 10.9035 54.119 11.2702C53.9846 11.6356 53.9505 12.0473 54.0165 12.5053C54.0825 12.9634 54.2316 13.3487 54.4637 13.6612C54.7049 13.9725 54.9899 14.1979 55.3187 14.3375C55.6552 14.4667 55.9976 14.5062 56.3457 14.456C56.703 14.4045 57.0196 14.2653 57.2955 14.0385C57.5805 13.8104 57.7903 13.5136 57.9246 13.1482C58.0681 12.7816 58.1062 12.3646 58.0388 11.8974Z" stroke="#00B1AC" stroke-width="2" stroke-linejoin="round" mask="url(#path-14-outside-1_2873_367313)"></path>
  <path d="M64.1746 9.14892C64.441 8.80952 64.797 8.53464 65.2426 8.32426C65.6978 8.10508 66.2074 8.00895 66.7714 8.03589C67.4278 8.06724 68.0118 8.2573 68.5233 8.60605C69.0441 8.95525 69.4427 9.43761 69.719 10.0531C70.0051 10.6598 70.1294 11.3561 70.0919 12.142C70.0543 12.9278 69.8638 13.6183 69.5203 14.2135C69.1865 14.7999 68.7436 15.2467 68.1915 15.5539C67.6486 15.8615 67.0489 15.9997 66.3925 15.9683C65.8286 15.9414 65.3348 15.802 64.9113 15.5501C64.4971 15.2987 64.1643 14.9909 63.913 14.6267L63.6858 19.3834L61.7443 19.2907L62.2861 7.94675L64.2276 8.03949L64.1746 9.14892ZM68.1088 12.0472C68.1308 11.585 68.0527 11.1828 67.8745 10.8407C67.7059 10.4898 67.4687 10.219 67.1627 10.0283C66.866 9.83809 66.5374 9.73436 66.1768 9.71714C65.8255 9.70036 65.4882 9.77691 65.1651 9.9468C64.8516 10.1079 64.5896 10.3548 64.3791 10.6876C64.1779 11.0209 64.0662 11.4186 64.0441 11.8809C64.022 12.3432 64.0953 12.7497 64.2639 13.1007C64.4417 13.452 64.6787 13.7274 64.975 13.9269C65.2809 14.1176 65.6096 14.2213 65.9609 14.2381C66.3214 14.2553 66.6587 14.1787 66.9726 14.0084C67.2958 13.8385 67.558 13.587 67.7592 13.2537C67.9697 12.9209 68.0862 12.5188 68.1088 12.0472Z" stroke="#00B1AC" stroke-width="2" stroke-linejoin="round" mask="url(#path-14-outside-1_2873_367313)"></path>
  <path d="M85.4412 6.92298L76.9089 20.58L75.1055 19.9753L83.6378 6.31836L85.4412 6.92298Z" stroke="#00B1AC" stroke-width="2" stroke-linejoin="round" mask="url(#path-14-outside-1_2873_367313)"></path>
  <path d="M93.7457 17.0483L92.4074 19.0761L95.1305 20.8733L94.2817 22.1595L91.5586 20.3624L90.1438 22.5061L93.2146 24.5327L92.3428 25.8537L87.6497 22.7565L92.9952 14.6567L97.6882 17.7538L96.8165 19.0748L93.7457 17.0483Z" stroke="#00B1AC" stroke-width="2" stroke-linejoin="round" mask="url(#path-14-outside-1_2873_367313)"></path>
  <path d="M105.525 28.0193C106.189 28.6901 106.516 29.4345 106.506 30.2526C106.509 31.0707 106.142 31.8445 105.405 32.574L102.2 35.7495L100.832 34.3685L103.85 31.3787C104.277 30.9554 104.495 30.5244 104.504 30.086C104.519 29.641 104.341 29.2311 103.97 28.8562C103.599 28.4814 103.187 28.2962 102.736 28.3006C102.297 28.3051 101.864 28.519 101.437 28.9424L98.4183 31.9322L97.0504 30.5512L100.069 27.5614C100.496 27.1381 100.714 26.7071 100.723 26.2687C100.738 25.8237 100.56 25.4138 100.189 25.0389C99.811 24.6575 99.3963 24.469 98.9446 24.4734C98.5061 24.4779 98.0731 24.6918 97.6457 25.1152L94.6274 28.105L93.2595 26.7241L98.7241 21.3112L100.092 22.6921L99.431 23.3468C99.8371 23.2963 100.243 23.3441 100.648 23.49C101.059 23.6425 101.431 23.8864 101.763 24.2218C102.187 24.6492 102.473 25.1218 102.621 25.6395C102.775 26.1508 102.776 26.6646 102.623 27.1809C103.115 27.0458 103.622 27.0515 104.145 27.1979C104.674 27.351 105.134 27.6248 105.525 28.0193Z" stroke="#00B1AC" stroke-width="2" stroke-linejoin="round" mask="url(#path-14-outside-1_2873_367313)"></path>
  <path d="M105.571 34.437C106.231 34.0254 106.897 33.7899 107.569 33.7305C108.246 33.679 108.861 33.7913 109.415 34.0673C109.974 34.3513 110.428 34.772 110.776 35.3295C111.08 35.8163 111.246 36.3016 111.275 36.7853C111.309 37.2769 111.246 37.7257 111.084 38.1318L112.015 37.5511L113.051 39.2118L106.526 43.2839L105.49 41.6232L106.444 41.0278C106.005 41.0069 105.566 40.8717 105.127 40.6222C104.7 40.3756 104.335 40.0089 104.031 39.5221C103.688 38.9724 103.516 38.3817 103.514 37.7499C103.518 37.1259 103.691 36.5211 104.035 35.9356C104.392 35.3531 104.904 34.8536 105.571 34.437ZM108.752 39.5871C109.153 39.3372 109.445 39.0455 109.63 38.7121C109.823 38.3737 109.91 38.0245 109.893 37.6644C109.883 37.2994 109.783 36.9638 109.592 36.6576C109.401 36.3514 109.15 36.1152 108.839 35.9492C108.528 35.7832 108.176 35.7084 107.782 35.7248C107.401 35.7442 107.015 35.8763 106.622 36.1214C106.23 36.3664 105.933 36.6605 105.733 37.0038C105.545 37.35 105.454 37.7016 105.458 38.0588C105.468 38.4237 105.566 38.7554 105.752 39.0538C105.943 39.36 106.196 39.6001 106.512 39.774C106.836 39.9429 107.188 40.0177 107.569 39.9984C107.957 39.9741 108.352 39.837 108.752 39.5871Z" stroke="#00B1AC" stroke-width="2" stroke-linejoin="round" mask="url(#path-14-outside-1_2873_367313)"></path>
  <path d="M115.228 42.1938C115.093 41.8789 115.078 41.5732 115.183 41.2767C115.3 40.9851 115.507 40.7757 115.805 40.6483C116.103 40.5209 116.393 40.5175 116.677 40.638C116.972 40.7634 117.187 40.9836 117.321 41.2984C117.456 41.6133 117.465 41.9165 117.348 42.2081C117.243 42.5046 117.042 42.7165 116.744 42.8439C116.446 42.9713 116.15 42.9723 115.854 42.8469C115.571 42.7263 115.363 42.5086 115.228 42.1938ZM114.762 43.4349L107.69 46.4594L106.926 44.6722L113.998 41.6477L114.762 43.4349Z" stroke="#00B1AC" stroke-width="2" stroke-linejoin="round" mask="url(#path-14-outside-1_2873_367313)"></path>
  <path d="M119.341 48.954L109.488 51.8669L108.937 50.0029L118.789 47.0901L119.341 48.954Z" stroke="#00B1AC" stroke-width="2" stroke-linejoin="round" mask="url(#path-14-outside-1_2873_367313)"></path>
</svg>
